<svg xmlns="http://www.w3.org/2000/svg" width="263" height="257"><title>background</title><rect fill="none" id="canvas_background" height="259" width="265" y="-1" x="-1"/><title>Layer 1</title><g stroke="none" id="svg_1"><path stroke="none" id="svg_2" d="m125.57 256.05c-26.3-1.11-51.06-10.19-71.79-26.32l-34.14 0 -5.65 0 -0.24 0 0-1.09 -13.43-59.63 4.67-1.7c1.63-0.59 3.32-1.19 5.11-1.81 -3.31-11.39-4.99-23.19-4.99-35.17 0-69.41 56.47-125.87 125.87-125.87 69.41 0 125.88 56.47 125.88 125.88 0 11.98-1.67 23.79-4.98 35.17 1.8 0.62 3.48 1.22 5.11 1.81l4.67 1.7 -13.43 59.64 0 1.09 -0.24 0 -5.65 0 -34.15 0c-21.98 17.08-49.31 26.46-77.2 26.46 -0.93 0-1.85-0.02-2.77-0.05l-2.63-0.08z" fill="#FFFFFF"/><path stroke="none" id="svg_3" d="m253.46 179.62c0.53-2.34 1.05-4.67 1.58-7.01 -3.4-1.24-6.81-2.41-10.22-3.54 4.14-12.16 6.39-25.19 6.39-38.75 0-66.4-53.83-120.23-120.23-120.23 -66.39 0-120.22 53.83-120.22 120.23 0 13.56 2.25 26.59 6.39 38.75 -3.41 1.13-6.83 2.3-10.23 3.54 3.87 17.17 7.74 34.34 11.6 51.51 0.29-0.1 0.58-0.2 0.88-0.3l0 0.26 36.35 0c19.62 15.76 44.29 25.48 71.19 26.37l0.19 0.09 0.24-0.08c1.2 0.04 2.41 0.08 3.62 0.08 28.48 0 54.64-9.91 75.24-26.46l36.35 0 0-0.26c0.29 0.11 0.58 0.2 0.88 0.31 3.34-14.83 6.68-29.67 10.02-44.5l0-0.01 0 0z" fill="#FFFFFF"/><g stroke="none" id="svg_4"><g stroke="none" id="svg_5"><path stroke="none" id="svg_6" d="m148.25 96.95c0-9.54-7.73-17.27-17.27-17.27 -9.54 0-17.27 7.74-17.27 17.27 0 5.82 2.88 10.95 7.29 14.08 0.29-0.77 0.58-1.55 0.86-2.32 -3.51-2.73-5.78-6.98-5.78-11.76 0-8.23 6.67-14.9 14.9-14.9 8.23 0 14.9 6.67 14.9 14.9 0 4.79-2.27 9.04-5.78 11.77 0.28 0.77 0.56 1.54 0.85 2.32 4.41-3.13 7.3-8.26 7.3-14.08z" fill="#D2D3D3"/><path stroke="none" id="svg_7" d="m155.42 96.95c0-13.5-10.94-24.44-24.44-24.44s-24.44 10.94-24.44 24.44c0 8.83 4.69 16.57 11.71 20.86 0.46-1.04 0.9-2.09 1.32-3.14 -5.82-3.75-9.68-10.28-9.68-17.71 0-11.65 9.44-21.09 21.08-21.09 11.65 0 21.09 9.44 21.09 21.09 0 7.44-3.86 13.96-9.68 17.71 0.43 1.05 0.87 2.1 1.33 3.15 7.02-4.29 11.71-12.03 11.71-20.86z" fill="#D2D3D3"/><path stroke="none" id="svg_8" d="m164.1 96.95c0-18.29-14.83-33.12-33.12-33.12 -18.3 0-33.12 14.83-33.12 33.12 0 12.29 6.7 23.01 16.64 28.73 0.12-0.24 0.25-0.47 0.37-0.71 0.57-1.12 1.11-2.24 1.65-3.38 -8.44-4.96-14.11-14.14-14.11-24.64 0-15.78 12.79-28.58 28.57-28.58 15.78 0 28.57 12.8 28.57 28.58 0 10.5-5.67 19.68-14.11 24.64 0.53 1.13 1.08 2.26 1.64 3.38 0.12 0.24 0.25 0.47 0.37 0.71 9.95-5.71 16.65-16.44 16.65-28.73z" fill="#D2D3D3"/><path stroke="none" id="svg_9" d="m175.04 96.95c0-24.33-19.73-44.06-44.06-44.06 -24.34 0-44.06 19.73-44.06 44.07 0 16.39 8.95 30.68 22.23 38.27 1.05-1.71 2.06-3.44 3.05-5.22 -11.48-6.54-19.23-18.89-19.23-33.05 0-21 17.02-38.02 38.01-38.02 20.99 0 38.01 17.02 38.01 38.02 0 14.16-7.75 26.51-19.24 33.05 0.99 1.78 2 3.52 3.05 5.22 13.28-7.59 22.23-21.88 22.23-38.27z" fill="#D2D3D3"/><path stroke="none" id="svg_10" d="m130.98 41.43c-30.67 0-55.52 24.86-55.52 55.52 0 20.35 10.96 38.14 27.3 47.81 1.49-2.01 2.94-4.12 4.35-6.29 -14.35-8.27-24.02-23.76-24.02-41.52 0-26.45 21.44-47.9 47.9-47.9 26.46 0 47.9 21.45 47.9 47.9 0 17.76-9.67 33.24-24.02 41.52 1.41 2.17 2.86 4.27 4.35 6.29 16.34-9.67 27.3-27.45 27.3-47.8 0-30.66-24.87-55.52-55.52-55.52z" fill="#D2D3D3"/></g><g stroke="none" id="svg_11"><path stroke="none" id="svg_12" d="m35.29 163.52c1.58-0.44 3.16-0.86 4.74-1.28 -3.51-9.99-5.42-20.74-5.42-31.93 0-53.22 43.15-96.38 96.37-96.38 53.23 0 96.37 43.15 96.37 96.38 0 11.19-1.91 21.94-5.42 31.93 1.58 0.42 3.16 0.84 4.74 1.28 0.04 0.01 0.09 0.03 0.14 0.04 3.62-10.42 5.59-21.6 5.59-33.25 0-56.01-45.41-101.41-101.41-101.41 -56.01 0-101.41 45.4-101.41 101.41 0 11.65 1.97 22.83 5.58 33.25 0.04-0.01 0.09-0.02 0.13-0.04z" fill="#A4874B"/><path stroke="none" id="svg_13" d="m186.78 208.89c-9.93 7.06-21.25 12.29-33.48 15.19 -7.16 1.7-14.64 2.61-22.32 2.61s-15.16-0.91-22.33-2.61c-12.23-2.9-23.55-8.12-33.48-15.19 -2.18 0.39-4.36 0.8-6.54 1.23 -0.06 0.01-0.12 0.02-0.19 0.04 7.23 5.67 15.24 10.37 23.86 13.93 11.92 4.92 24.98 7.65 38.68 7.65 13.7 0 26.76-2.72 38.68-7.64 8.61-3.55 16.63-8.25 23.85-13.92 -0.06-0.01-0.12-0.02-0.18-0.04 -2.18-0.43-4.36-0.84-6.54-1.23z" fill="#A4874B"/><path stroke="none" id="svg_14" d="m243.22 173.44c-6-1.99-12.03-3.8-18.07-5.46 -0.05-0.01-0.09-0.02-0.13-0.04 -1.59-0.44-3.18-0.88-4.77-1.3 -16.68-4.34-33.47-7.44-50.29-9.34 -1.55-0.17-3.1-0.33-4.65-0.48 -10.52-1.04-21.06-1.6-31.6-1.69 -1.82-0.01-3.63-0.01-5.45 0 -10.54 0.09-21.08 0.65-31.6 1.69 -1.56 0.16-3.11 0.31-4.67 0.49 -16.83 1.89-33.61 5-50.29 9.34 -1.59 0.42-3.18 0.86-4.76 1.3 -0.05 0.01-0.09 0.02-0.13 0.04 -6.04 1.66-12.06 3.48-18.07 5.46 -2.11 0.69-4.22 1.4-6.32 2.13 2.33 10.75 4.65 21.5 6.98 32.25 0.74 3.4 1.47 6.79 2.2 10.18 6.88-2.4 13.79-4.57 20.72-6.52 7.13-2 14.28-3.75 21.45-5.26 0.06-0.02 0.11-0.02 0.17-0.04 2.04-0.43 4.07-0.84 6.1-1.23 40.48-7.74 81.41-7.74 121.89 0 2.04 0.39 4.07 0.8 6.1 1.23 0.06 0.02 0.12 0.02 0.18 0.04 7.16 1.51 14.32 3.26 21.45 5.26 6.93 1.94 13.84 4.11 20.72 6.52 0.73-3.4 1.47-6.79 2.2-10.18 2.33-10.75 4.66-21.5 6.98-32.25 -2.1-0.73-4.21-1.44-6.32-2.14zm-4.26 41.65c-5.85-2-11.72-3.82-17.61-5.5 -6.99-1.99-14.01-3.75-21.05-5.28 -0.06-0.01-0.11-0.02-0.17-0.04 -1.98-0.43-3.96-0.83-5.94-1.22 -20.97-4.14-42.11-6.24-63.22-6.24 -21.11 0-42.25 2.1-63.22 6.24 -1.98 0.39-3.96 0.8-5.94 1.23 -0.06 0.01-0.11 0.03-0.17 0.04 -7.04 1.53-14.05 3.29-21.04 5.28 -5.89 1.67-11.76 3.5-17.61 5.5l-3.6-16.64 -4.6-21.26c1.6-0.55 3.2-1.07 4.8-1.6 6.02-1.98 12.05-3.8 18.11-5.46 0.05-0.01 0.1-0.02 0.14-0.04 1.6-0.44 3.19-0.86 4.79-1.28 16.46-4.26 33.05-7.32 49.69-9.18 11.93-1.34 23.89-2.06 35.84-2.15 0.95-0.01 1.89-0.03 2.84-0.03 0.94 0 1.89 0.02 2.83 0.03 11.95 0.1 23.91 0.82 35.85 2.15 16.64 1.87 33.23 4.93 49.68 9.19 1.6 0.41 3.19 0.85 4.79 1.28 0.05 0.01 0.09 0.03 0.14 0.04 6.06 1.66 12.09 3.48 18.11 5.46 1.6 0.53 3.2 1.05 4.8 1.6l-4.6 21.26 -3.6 16.64z" fill="#A4874B"/></g><g stroke="none" id="svg_15"><path stroke="none" id="svg_16" d="m110.31 237.26l-0.96-0.19 -0.36 1.88 1.05-0.4c0.12-0.05 0.18-0.11 0.2-0.2l0.19-0.95c0.01-0.05 0.01-0.08 0-0.1 -0.01-0.02-0.05-0.03-0.1-0.04z" fill="#020202"/><path stroke="none" id="svg_17" d="m149.06 237.61l-0.84 0.14 0.79 4.74 0.84-0.14c0.05-0.01 0.08-0.02 0.09-0.04 0.02-0.02 0.02-0.06 0.01-0.1l-0.75-4.49c-0.02-0.08-0.06-0.11-0.14-0.1z" fill="#020202"/><path stroke="none" id="svg_18" d="m166.46 233.15l-0.88 0.3c-0.06 0.02-0.07 0.06-0.06 0.11l1.5 4.37c0.02 0.06 0.06 0.08 0.12 0.06l0.88-0.3c0.06-0.02 0.07-0.06 0.05-0.12l-1.49-4.37c-0.02-0.05-0.06-0.07-0.12-0.05z" fill="#020202"/><polygon stroke="none" id="svg_19" points="102.15 238.3 102.25 236.29 101.02 238.57 " fill="#020202"/><path stroke="none" id="svg_20" d="m109.85 240.06c-0.07-0.08-0.15-0.17-0.23-0.26l-0.76 0.32c-0.08 0.04-0.12 0.08-0.13 0.13l-0.3 1.54 1.19 0.23c0.08 0.02 0.13-0.02 0.14-0.1l0.29-1.5c0.01-0.03-0.01-0.08-0.06-0.15 -0.05-0.07-0.1-0.14-0.15-0.21z" fill="#020202"/><path stroke="none" id="svg_21" d="m178.72 228.05l-0.81 0.39c-0.03 0.02-0.04 0.04-0.02 0.08l0.83 1.71c0.02 0.03 0.04 0.04 0.07 0.03l0.81-0.39c0.04-0.02 0.05-0.05 0.03-0.08l-0.83-1.71c-0.02-0.04-0.05-0.04-0.08-0.03z" fill="#020202"/><path stroke="none" id="svg_22" d="m172.71 230.78l-0.85 0.35c-0.06 0.02-0.07 0.06-0.05 0.11l1.76 4.27c0.02 0.06 0.06 0.07 0.11 0.05l0.85-0.35c0.06-0.02 0.07-0.06 0.05-0.12l-1.76-4.27c-0.02-0.06-0.06-0.07-0.11-0.05z" fill="#020202"/><path stroke="none" id="svg_23" d="m124.29 216.32c-0.07 0-0.19 0.05-0.38 0.16 -0.19 0.11-0.39 0.24-0.62 0.38 -0.22 0.14-0.44 0.28-0.63 0.42 -0.2 0.14-0.34 0.23-0.41 0.29 -0.08 0.07-0.14 0.13-0.17 0.2 -0.03 0.06-0.05 0.17-0.05 0.31l0 1.21 -1.18 0 0-10.48c0-0.19 0.04-0.37 0.13-0.52 0.09-0.16 0.18-0.3 0.29-0.42 0.11-0.13 0.2-0.25 0.29-0.36 0.08-0.11 0.12-0.21 0.12-0.31 0-0.09-0.04-0.17-0.1-0.23 -0.07-0.06-0.18-0.1-0.32-0.1l-3.39 0c-0.14 0-0.25 0.03-0.32 0.1 -0.07 0.06-0.1 0.14-0.1 0.23 0 0.1 0.04 0.21 0.12 0.31 0.08 0.11 0.18 0.23 0.29 0.36 0.11 0.13 0.21 0.27 0.29 0.42 0.08 0.15 0.13 0.33 0.13 0.52l0 10.65c0 0.19-0.04 0.36-0.13 0.52 -0.08 0.15-0.18 0.29-0.29 0.42 -0.11 0.13-0.2 0.25-0.29 0.35 -0.08 0.11-0.12 0.22-0.12 0.32 0 0.09 0.03 0.16 0.1 0.23 0.07 0.06 0.18 0.1 0.32 0.1l6.09 0c0.44 0 0.65-0.22 0.65-0.66l0-4.06c0-0.1-0.04-0.19-0.11-0.26 -0.07-0.07-0.15-0.1-0.22-0.1z" fill="#020202"/><path stroke="none" id="svg_24" d="m133.95 216.32c-0.06 0-0.19 0.05-0.37 0.16 -0.19 0.11-0.39 0.24-0.62 0.38 -0.22 0.14-0.44 0.28-0.64 0.42 -0.2 0.14-0.34 0.23-0.41 0.29 -0.08 0.07-0.13 0.13-0.17 0.2 -0.03 0.06-0.05 0.17-0.05 0.31l0 1.21 -1.18 0 0-10.48c0-0.19 0.04-0.37 0.12-0.52 0.08-0.16 0.18-0.3 0.29-0.42 0.11-0.13 0.2-0.25 0.29-0.36 0.08-0.11 0.12-0.21 0.12-0.31 0-0.09-0.04-0.17-0.11-0.23 -0.07-0.06-0.18-0.1-0.32-0.1l-3.39 0c-0.14 0-0.25 0.03-0.32 0.1 -0.07 0.06-0.1 0.14-0.1 0.23 0 0.1 0.04 0.21 0.12 0.31 0.08 0.11 0.18 0.23 0.29 0.36 0.11 0.13 0.2 0.27 0.29 0.42 0.08 0.15 0.12 0.33 0.12 0.52l0 10.65c0 0.19-0.04 0.36-0.12 0.52 -0.09 0.15-0.18 0.29-0.29 0.42 -0.11 0.13-0.21 0.25-0.29 0.35 -0.08 0.11-0.12 0.22-0.12 0.32 0 0.09 0.03 0.16 0.11 0.23 0.07 0.06 0.18 0.1 0.32 0.1l6.09 0c0.43 0 0.65-0.22 0.65-0.66l0-4.06c0-0.1-0.04-0.19-0.1-0.26 -0.07-0.07-0.14-0.1-0.22-0.1z" fill="#020202"/><path stroke="none" id="svg_25" d="m144.18 215.68c-0.06 0-0.19 0.06-0.37 0.17 -0.19 0.11-0.39 0.24-0.62 0.37 -0.23 0.14-0.44 0.28-0.64 0.43 -0.2 0.14-0.34 0.24-0.41 0.29 -0.08 0.06-0.13 0.12-0.17 0.19 -0.03 0.06-0.05 0.16-0.05 0.31l0 1.6c0 0.17-0.08 0.25-0.25 0.25l-1.68 0c-0.17 0-0.25-0.09-0.25-0.25l0-9.8c0-0.16 0.09-0.25 0.25-0.25l1.49 0c0.16 0 0.25 0.09 0.25 0.25l0 2.45c0 0.11 0.04 0.19 0.11 0.26 0.07 0.07 0.15 0.11 0.22 0.11 0.05 0 0.18-0.05 0.37-0.16s0.4-0.23 0.63-0.37c0.23-0.14 0.44-0.28 0.64-0.41 0.2-0.14 0.34-0.23 0.42-0.3 0.07-0.06 0.13-0.13 0.16-0.19 0.03-0.06 0.05-0.17 0.05-0.31l0-1.85c0-0.39-0.17-0.76-0.51-1.08 -0.35-0.33-0.81-0.49-1.39-0.49l-3.41 0c-0.53 0-0.97 0.12-1.31 0.37 -0.35 0.25-0.52 0.63-0.52 1.11l0 11.57c0 0.49 0.17 0.85 0.52 1.11 0.35 0.25 0.78 0.38 1.31 0.38l3.6 0c0.3 0 0.56-0.05 0.8-0.14 0.24-0.1 0.44-0.22 0.6-0.36 0.16-0.15 0.29-0.31 0.38-0.5 0.09-0.19 0.13-0.37 0.13-0.55l0 0 0-3.8c0-0.1-0.03-0.19-0.1-0.26 -0.07-0.07-0.15-0.11-0.22-0.11z" fill="#020202"/><polygon stroke="none" id="svg_26" points="112.04 214.26 112.04 211.87 92.13 213.06 " fill="#020202"/><polygon stroke="none" id="svg_27" points="149.91 214.26 169.82 213.06 149.91 211.87 " fill="#020202"/><path stroke="none" id="svg_28" d="m244.82 169.07c4.14-12.16 6.39-25.19 6.39-38.75 0-66.4-53.83-120.23-120.23-120.23 -66.39 0-120.22 53.83-120.22 120.23 0 13.56 2.25 26.59 6.39 38.75 -3.41 1.13-6.83 2.3-10.23 3.54 3.87 17.17 7.74 34.34 11.6 51.51 0.29-0.1 0.58-0.2 0.88-0.3l0 0.26 36.35 0c20.6 16.55 46.76 26.46 75.23 26.46 28.48 0 54.64-9.91 75.24-26.46l36.35 0 0-0.26c0.29 0.11 0.58 0.2 0.88 0.31 3.86-17.17 7.73-34.35 11.6-51.51 -3.4-1.24-6.81-2.41-10.22-3.54zm-215.25-38.75c0-56.01 45.4-101.41 101.41-101.41 56 0 101.41 45.4 101.41 101.41 0 11.64-1.97 22.83-5.58 33.25 -0.05-0.01-0.09-0.03-0.14-0.04 -1.58-0.44-3.16-0.86-4.74-1.28 -18.85-4.97-37.84-8.38-56.89-10.23 -1.33-0.13-2.67-0.26-4.01-0.37 -1.45-1.75-2.89-3.58-4.31-5.5 -1.48-2.02-2.94-4.12-4.37-6.32 -0.69-1.06-1.37-2.16-2.05-3.26 -1.04-1.71-2.06-3.44-3.06-5.24 -0.78-1.41-1.55-2.86-2.3-4.33 -0.13-0.25-0.26-0.48-0.39-0.74 -0.56-1.11-1.1-2.23-1.63-3.34 -0.59-1.25-1.17-2.51-1.72-3.76 -0.45-1.04-0.89-2.07-1.32-3.11 -0.49-1.18-0.96-2.37-1.41-3.54 -0.28-0.74-0.57-1.49-0.84-2.23 -0.46-1.27-0.9-2.54-1.31-3.81 0.88-0.5 1.68-1.1 2.38-1.81 1.96-1.97 3.17-4.69 3.17-7.69 0-5.78-4.5-10.5-10.18-10.88 -0.25-0.02-0.49-0.04-0.74-0.04 -0.25 0-0.49 0.02-0.74 0.04 -5.68 0.38-10.18 5.1-10.18 10.88 0 3 1.21 5.72 3.17 7.69 0.7 0.71 1.51 1.32 2.39 1.81 -0.41 1.26-0.85 2.53-1.31 3.81 -0.27 0.74-0.56 1.48-0.84 2.22 -0.45 1.18-0.92 2.37-1.41 3.55 -0.43 1.04-0.86 2.07-1.32 3.11 -0.55 1.25-1.12 2.51-1.71 3.76 -0.53 1.11-1.06 2.23-1.62 3.34 -0.13 0.25-0.26 0.49-0.39 0.74 -0.75 1.47-1.52 2.91-2.31 4.33 -0.99 1.8-2.02 3.54-3.06 5.24 -0.67 1.1-1.35 2.2-2.04 3.27 -1.42 2.2-2.89 4.31-4.37 6.32 -1.42 1.92-2.85 3.75-4.3 5.5 -1.34 0.12-2.67 0.25-4 0.38 -19.04 1.85-38.03 5.27-56.89 10.23 -1.58 0.42-3.16 0.84-4.74 1.28 -0.04 0.02-0.09 0.03-0.14 0.04 -3.61-10.41-5.58-21.6-5.58-33.25zm78.62 17.27c0.94-1.3 1.86-2.64 2.77-3.99l6.68-0.63 11.18-1.06c-0.04 0.98-0.08 1.95-0.11 2.9 -0.07 1.92-0.15 3.78-0.24 5.56 -3.9 0.03-7.8 0.12-11.7 0.27 -3.8 0.15-7.59 0.37-11.37 0.65 0.94-1.21 1.88-2.43 2.8-3.7zm6.43-9.72c1.04-1.73 2.06-3.5 3.04-5.3 0.27-0.48 0.54-0.97 0.8-1.46l0.03 0.18 8.3-1.48 2.47-0.44c-0.01 0.22-0.01 0.45-0.02 0.67 -0.05 1.66-0.11 3.29-0.16 4.89 -0.04 1.1-0.08 2.19-0.12 3.27l-10.54 1 -4.91 0.47c0.37-0.59 0.74-1.19 1.11-1.79zm10.41-20.69c0.48-1.19 0.96-2.38 1.41-3.57 0.28-0.75 0.55-1.49 0.82-2.24 0.45-1.26 0.89-2.52 1.3-3.77 0.43 0.09 0.86 0.18 1.31 0.22 -0.01 0.54-0.02 1.09-0.04 1.63 -0.02 0.79-0.04 1.57-0.06 2.35 -0.02 0.79-0.04 1.58-0.06 2.37 -0.02 0.83-0.04 1.66-0.06 2.49l-3.25 0.88 -1.7 0.46c0.11-0.27 0.23-0.54 0.34-0.81zm-2.6-20.22c0-4 2.74-7.34 6.45-8.28 0.67-0.17 1.38-0.27 2.1-0.27s1.43 0.1 2.1 0.27c3.7 0.94 6.45 4.28 6.45 8.27 0 0.35-0.03 0.7-0.07 1.04 -0.37-3.05-2.34-5.59-5.04-6.78 -1.05-0.46-2.21-0.72-3.43-0.72 -1.22 0-2.38 0.26-3.43 0.72 -2.71 1.19-4.68 3.74-5.05 6.79 -0.04-0.34-0.07-0.69-0.07-1.04zm12.27 14.42c0.27 0.75 0.53 1.49 0.82 2.24 0.45 1.19 0.92 2.38 1.41 3.57 0.09 0.22 0.18 0.43 0.27 0.65l-1.36-0.37 -3.53-0.95c-0.02-0.78-0.04-1.56-0.06-2.34 -0.02-0.79-0.04-1.58-0.06-2.37 -0.02-0.78-0.04-1.56-0.06-2.35 -0.01-0.54-0.03-1.09-0.04-1.63 0.45-0.04 0.88-0.13 1.31-0.22 0.42 1.26 0.85 2.51 1.3 3.78zm7.13 16.55c0.05 0.1 0.1 0.19 0.15 0.28 0.04 0.08 0.08 0.15 0.12 0.23l-0.53-0.09 -8.96-1.6c-0.01-0.41-0.02-0.83-0.04-1.25 -0.04-1.36-0.08-2.74-0.12-4.14 -0.03-0.94-0.06-1.89-0.08-2.85l5.78 1.55c0.04 0.08 0.07 0.16 0.1 0.24 0.55 1.27 1.12 2.53 1.71 3.79 0.6 1.28 1.22 2.57 1.87 3.83zm6.59 11.7l-4.8-0.45 -10.63-1.01c-0.04-1.06-0.08-2.14-0.12-3.23 -0.05-1.6-0.11-3.23-0.16-4.89 -0.01-0.27-0.02-0.55-0.02-0.82l2.95 0.53 7.88 1.41c0.25 0.48 0.52 0.95 0.77 1.42 0.99 1.8 2 3.57 3.04 5.3 0.36 0.59 0.72 1.17 1.09 1.75zm-28.29-11.7c0.64-1.27 1.26-2.55 1.87-3.84 0.59-1.25 1.16-2.52 1.71-3.78 0.01-0.02 0.02-0.05 0.03-0.08l5.85-1.57c-0.02 0.91-0.05 1.81-0.08 2.71 -0.04 1.4-0.08 2.77-0.12 4.13 -0.02 0.47-0.03 0.93-0.04 1.39l-8.68 1.56 -0.89 0.16c0.07-0.13 0.14-0.26 0.21-0.39 0.05-0.1 0.1-0.19 0.15-0.28zm25.06 22.72c-3.9-0.16-7.8-0.25-11.7-0.27 -0.08-1.78-0.16-3.64-0.24-5.56 -0.04-0.96-0.08-1.94-0.11-2.93l11.27 1.06 6.56 0.62c0.92 1.37 1.85 2.72 2.79 4.03 0.92 1.27 1.86 2.49 2.8 3.7 -3.79-0.28-7.58-0.5-11.38-0.65zm-70.1 78.6c-0.82 0-1.49-0.67-1.49-1.5 0-0.82 0.67-1.5 1.49-1.5 0.83 0 1.5 0.67 1.5 1.5 0 0.83-0.67 1.5-1.5 1.5zm10.73-0.48l-0.44 0.93c-0.03 0.06-0.05 0.1-0.08 0.12 -0.03 0.02-0.06 0.04-0.11 0.05 -0.04 0.01-0.12 0.03-0.23 0.04 -0.11 0.02-0.23 0.03-0.35 0.05 -0.12 0.02-0.24 0.03-0.34 0.03 -0.1 0.01-0.16 0-0.19 0 -0.03-0.02-0.06-0.04-0.07-0.09 -0.02-0.05-0.01-0.09 0.01-0.13l0.43-0.89 -0.66-0.32c-0.03-0.02-0.06-0.02-0.09-0.01 -0.03 0.01-0.05 0.02-0.06 0.05l-0.95 1.99 0.94-0.11c0.11-0.02 0.19-0.01 0.25 0.02 0.05 0.02 0.08 0.06 0.09 0.1 0.01 0.05 0 0.1-0.01 0.14l-0.36 0.75c-0.03 0.07-0.07 0.12-0.11 0.15 -0.04 0.03-0.1 0.04-0.17 0.05l-1.21 0.15 -0.43 0.9c-0.03 0.06-0.01 0.11 0.06 0.15l0.67 0.32 0.24-0.51c0.03-0.06 0.05-0.1 0.08-0.12 0.03-0.02 0.06-0.03 0.11-0.05 0.04-0.01 0.12-0.02 0.23-0.04 0.11-0.02 0.23-0.04 0.35-0.05 0.12-0.02 0.24-0.02 0.34-0.04 0.1-0.01 0.16-0.01 0.19 0.01 0.03 0.02 0.05 0.05 0.07 0.09 0.02 0.04 0.01 0.09-0.01 0.13l-0.82 1.71c-0.09 0.18-0.22 0.23-0.41 0.14l-2.83-1.35c-0.06-0.02-0.1-0.06-0.11-0.1 -0.02-0.04-0.02-0.08 0-0.12 0.02-0.04 0.06-0.07 0.12-0.1 0.06-0.03 0.12-0.06 0.19-0.09 0.07-0.03 0.14-0.08 0.21-0.12 0.07-0.05 0.12-0.11 0.16-0.19l2.14-4.48c0.04-0.08 0.06-0.16 0.05-0.24 -0.01-0.08-0.02-0.16-0.04-0.24 -0.02-0.08-0.04-0.15-0.05-0.21 -0.01-0.07-0.01-0.12 0.01-0.16 0.02-0.04 0.05-0.06 0.09-0.07 0.04-0.01 0.1 0 0.15 0.02l2.84 1.35c0.19 0.08 0.23 0.22 0.15 0.4zm5.72 2.88l-0.52 1.29c-0.03 0.08-0.07 0.13-0.13 0.16 -0.06 0.03-0.11 0.03-0.15 0.02 -0.05-0.02-0.1-0.06-0.16-0.13 -0.06-0.06-0.12-0.13-0.18-0.21 -0.06-0.08-0.11-0.16-0.16-0.23 -0.05-0.08-0.09-0.13-0.11-0.16 -0.03-0.04-0.05-0.09-0.05-0.15 -0.01-0.06 0.01-0.14 0.05-0.25l0.23-0.56 -0.77-0.31 -0.41 1.02c-0.03 0.06-0.03 0.11-0.03 0.16 0 0.05 0.03 0.11 0.07 0.19l1 1.52c0.1 0.16 0.17 0.3 0.2 0.42 0.03 0.13 0.01 0.28-0.06 0.46l-0.69 1.72c-0.04 0.08-0.09 0.16-0.17 0.22 -0.08 0.07-0.17 0.12-0.27 0.15 -0.1 0.03-0.2 0.05-0.31 0.05 -0.11 0-0.21-0.02-0.31-0.06l-1.47-0.59c-0.25-0.1-0.42-0.26-0.51-0.46 -0.09-0.2-0.1-0.39-0.04-0.56l0.62-1.52c0.04-0.07 0.08-0.12 0.14-0.15 0.06-0.02 0.12-0.02 0.18 0 0.04 0.01 0.09 0.05 0.15 0.12 0.06 0.06 0.12 0.13 0.18 0.21 0.06 0.07 0.12 0.15 0.16 0.23 0.05 0.07 0.08 0.13 0.11 0.16 0.03 0.04 0.05 0.09 0.06 0.15 0.01 0.06 0 0.14-0.05 0.25l-0.32 0.78 0.86 0.35 0.47-1.15c0.04-0.11 0.03-0.21-0.05-0.32l-0.99-1.5c-0.09-0.13-0.15-0.27-0.2-0.41 -0.05-0.14-0.03-0.3 0.04-0.48l0.67-1.66c0.09-0.21 0.23-0.34 0.42-0.39 0.2-0.04 0.41-0.02 0.63 0.07l1.39 0.56c0.12 0.05 0.23 0.12 0.31 0.19 0.09 0.08 0.16 0.17 0.2 0.26 0.05 0.1 0.07 0.19 0.08 0.29 0 0.1-0.01 0.19-0.04 0.27zm6.22 2.74c-0.02 0.07-0.06 0.12-0.12 0.15 -0.06 0.03-0.12 0.03-0.18 0 -0.06-0.02-0.1-0.05-0.13-0.1 -0.03-0.05-0.07-0.13-0.11-0.24 -0.03-0.06-0.05-0.11-0.07-0.15 -0.02-0.04-0.05-0.07-0.08-0.11 -0.04-0.03-0.09-0.06-0.17-0.1 -0.07-0.03-0.17-0.07-0.3-0.11l-1.56 4.63c-0.03 0.08-0.04 0.17-0.02 0.25 0.01 0.08 0.04 0.15 0.07 0.23 0.03 0.07 0.05 0.14 0.07 0.2 0.02 0.06 0.03 0.12 0.01 0.16 -0.01 0.04-0.04 0.07-0.08 0.09 -0.04 0.02-0.09 0.02-0.15-0.01l-1.5-0.5c-0.06-0.02-0.11-0.05-0.13-0.09 -0.02-0.04-0.03-0.08-0.01-0.12 0.01-0.05 0.05-0.09 0.1-0.12 0.05-0.03 0.11-0.07 0.18-0.11 0.07-0.04 0.13-0.09 0.19-0.14 0.06-0.06 0.1-0.13 0.13-0.21l1.56-4.63c-0.12-0.04-0.21-0.06-0.29-0.08 -0.07-0.01-0.14-0.02-0.19-0.02 -0.05 0.01-0.1 0.02-0.15 0.03 -0.04 0.02-0.1 0.04-0.16 0.06 -0.12 0.05-0.22 0.08-0.28 0.11 -0.06 0.02-0.12 0.03-0.19 0.01 -0.04-0.02-0.08-0.04-0.09-0.09 -0.02-0.04-0.02-0.09 0-0.14l0.38-1.11c0.04-0.13 0.13-0.18 0.25-0.13 0.03 0.01 0.07 0.03 0.1 0.05 0.03 0.02 0.08 0.04 0.13 0.07 0.06 0.03 0.13 0.06 0.22 0.11 0.09 0.04 0.21 0.09 0.37 0.14l1.57 0.53c0.07 0.02 0.16 0.05 0.26 0.07 0.1 0.02 0.2 0.04 0.29 0.06 0.15 0.03 0.25 0.05 0.29 0.07 0.07 0.03 0.12 0.06 0.15 0.11 0.03 0.06 0.03 0.12 0.01 0.19l-0.34 1.03zm5.96 0.67c-0.03 0.03-0.07 0.06-0.11 0.09 -0.04 0.03-0.08 0.06-0.11 0.1 -0.04 0.04-0.06 0.08-0.07 0.12 -0.01 0.03-0.02 0.13-0.02 0.28 -0.01 0.16-0.02 0.35-0.03 0.59 -0.01 0.23-0.02 0.49-0.02 0.79 -0.01 0.29-0.02 0.59-0.02 0.89 -0.01 0.31-0.01 0.6-0.02 0.9 0 0.3-0.01 0.56-0.01 0.8 -0.01 0.24-0.01 0.45-0.01 0.61 -0.01 0.17-0.01 0.27-0.01 0.31 0 0.14 0.02 0.27 0.04 0.39 0.03 0.11 0.07 0.21 0.1 0.3 0.04 0.09 0.07 0.16 0.1 0.22 0.03 0.06 0.04 0.11 0.03 0.14 -0.03 0.11-0.11 0.14-0.23 0.11l-1.42-0.38c-0.07-0.02-0.12-0.05-0.14-0.09 -0.02-0.04-0.03-0.08-0.02-0.12 0.01-0.03 0.03-0.06 0.06-0.09 0.03-0.02 0.07-0.05 0.1-0.07 0.04-0.02 0.07-0.05 0.11-0.09s0.06-0.08 0.07-0.13c0-0.01 0.01-0.09 0.01-0.23 0.01-0.14 0.01-0.29 0.01-0.45 0.01-0.19 0.01-0.4 0.02-0.62l-1.79 0.43 -0.06 0.24c-0.02 0.09-0.03 0.16-0.01 0.23 0.02 0.07 0.04 0.13 0.07 0.18 0.03 0.06 0.05 0.11 0.08 0.15 0.02 0.04 0.03 0.08 0.02 0.12 -0.01 0.04-0.04 0.08-0.08 0.1 -0.04 0.02-0.1 0.02-0.16 0l-1.54-0.41c-0.13-0.04-0.18-0.1-0.15-0.21 0.01-0.04 0.04-0.07 0.08-0.1 0.05-0.03 0.1-0.07 0.16-0.1 0.06-0.04 0.12-0.08 0.19-0.12 0.06-0.05 0.11-0.11 0.15-0.18 0.02-0.03 0.07-0.12 0.15-0.27 0.08-0.15 0.19-0.33 0.31-0.55 0.13-0.22 0.26-0.47 0.42-0.74 0.15-0.27 0.31-0.55 0.47-0.84 0.16-0.29 0.31-0.57 0.46-0.84 0.15-0.28 0.28-0.52 0.4-0.75 0.12-0.22 0.22-0.41 0.29-0.56 0.08-0.15 0.12-0.24 0.13-0.28 0.01-0.04 0.01-0.09 0-0.14 -0.01-0.05-0.02-0.1-0.05-0.14 -0.02-0.05-0.03-0.09-0.05-0.13 -0.01-0.04-0.02-0.07-0.01-0.1 0.03-0.1 0.11-0.14 0.23-0.1l1.79 0.48c0.13 0.03 0.18 0.1 0.15 0.21 -0.01 0.03-0.03 0.06-0.06 0.09zm7.91 2.34l-0.26 1.35c-0.01 0.08-0.04 0.15-0.09 0.21 -0.04 0.06-0.09 0.11-0.15 0.16 -0.06 0.05-0.12 0.09-0.19 0.13 -0.06 0.04-0.12 0.07-0.17 0.09 0.05 0.06 0.11 0.11 0.18 0.18 0.07 0.07 0.13 0.14 0.19 0.22 0.06 0.08 0.11 0.16 0.14 0.25 0.04 0.09 0.05 0.17 0.03 0.26l-0.45 2.32c-0.04 0.22-0.16 0.38-0.35 0.46 -0.19 0.08-0.39 0.1-0.62 0.06l-3.02-0.58c-0.06-0.01-0.11-0.04-0.13-0.07 -0.03-0.04-0.04-0.08-0.03-0.11 0.01-0.05 0.04-0.09 0.09-0.14 0.05-0.04 0.1-0.09 0.16-0.14 0.06-0.05 0.12-0.1 0.17-0.17 0.05-0.06 0.08-0.14 0.1-0.22l0.94-4.87c0.02-0.09 0.02-0.17-0.01-0.25 -0.03-0.08-0.05-0.15-0.1-0.22 -0.04-0.07-0.07-0.13-0.1-0.19 -0.03-0.06-0.04-0.11-0.03-0.16 0.01-0.04 0.03-0.07 0.07-0.1 0.04-0.02 0.09-0.03 0.15-0.02l2.67 0.52c0.33 0.06 0.56 0.18 0.69 0.36 0.13 0.18 0.17 0.4 0.11 0.67zm5.7 6.5c-0.03 0.2-0.14 0.29-0.34 0.26l-2.81-0.37c-0.07-0.01-0.11-0.03-0.14-0.06 -0.03-0.03-0.04-0.07-0.04-0.11 0.01-0.05 0.03-0.09 0.08-0.14 0.05-0.04 0.1-0.09 0.16-0.15 0.06-0.05 0.12-0.11 0.16-0.18 0.05-0.07 0.08-0.14 0.09-0.23l0.65-4.92c0.01-0.09 0-0.17-0.03-0.25 -0.03-0.08-0.07-0.15-0.11-0.21 -0.04-0.07-0.08-0.12-0.11-0.18 -0.03-0.06-0.05-0.11-0.04-0.16 0-0.04 0.03-0.07 0.06-0.1 0.04-0.02 0.09-0.03 0.15-0.02l1.57 0.21c0.06 0.01 0.11 0.03 0.14 0.06 0.03 0.03 0.04 0.07 0.04 0.12 0 0.05-0.03 0.1-0.08 0.14 -0.04 0.05-0.1 0.09-0.15 0.15 -0.06 0.05-0.11 0.11-0.16 0.18 -0.05 0.07-0.08 0.14-0.09 0.23l-0.64 4.84 0.55 0.08 0.07-0.56c0.01-0.06 0.02-0.11 0.04-0.14 0.02-0.02 0.05-0.05 0.09-0.08 0.04-0.02 0.11-0.06 0.21-0.11 0.1-0.05 0.21-0.11 0.32-0.16 0.11-0.05 0.21-0.1 0.31-0.13 0.09-0.04 0.15-0.06 0.18-0.05 0.04 0.01 0.07 0.03 0.1 0.07 0.03 0.04 0.04 0.08 0.03 0.12l-0.25 1.88zm5.53-5.68c-0.04 0.05-0.09 0.1-0.15 0.15 -0.05 0.06-0.1 0.12-0.15 0.19 -0.05 0.07-0.07 0.15-0.08 0.24l-0.4 4.95c-0.01 0.09 0 0.17 0.04 0.24 0.03 0.07 0.07 0.14 0.12 0.21 0.05 0.06 0.08 0.12 0.12 0.17 0.03 0.05 0.05 0.11 0.05 0.15 0 0.04-0.02 0.07-0.06 0.1 -0.04 0.03-0.08 0.04-0.15 0.03l-1.58-0.12c-0.06-0.01-0.11-0.02-0.14-0.06s-0.04-0.07-0.04-0.11c0-0.05 0.03-0.1 0.07-0.14 0.04-0.05 0.09-0.1 0.14-0.15 0.06-0.05 0.11-0.11 0.15-0.19 0.05-0.07 0.07-0.15 0.08-0.24l0.4-4.95c0.01-0.09-0.01-0.17-0.04-0.25 -0.04-0.07-0.08-0.14-0.12-0.21 -0.04-0.06-0.08-0.12-0.12-0.18 -0.04-0.05-0.05-0.1-0.05-0.15 0.01-0.04 0.02-0.08 0.06-0.1 0.03-0.03 0.09-0.04 0.15-0.03l1.58 0.13c0.06 0.01 0.11 0.02 0.14 0.06 0.03 0.03 0.04 0.07 0.04 0.11 0 0.05-0.03 0.1-0.07 0.14zm4.34 0.91l-0.03 1.1c0 0.07 0.01 0.12 0.02 0.16 0.02 0.05 0.07 0.09 0.14 0.15l1.47 1.07c0.15 0.11 0.26 0.21 0.33 0.32 0.07 0.11 0.11 0.26 0.1 0.45l-0.05 1.85c0 0.09-0.03 0.18-0.08 0.27 -0.05 0.08-0.12 0.16-0.2 0.23 -0.08 0.07-0.18 0.12-0.28 0.16 -0.1 0.04-0.21 0.06-0.31 0.06l-1.59-0.04c-0.27-0.01-0.48-0.09-0.64-0.25 -0.16-0.16-0.23-0.33-0.23-0.51l0.05-1.64c0-0.08 0.03-0.15 0.07-0.19 0.04-0.05 0.1-0.07 0.17-0.07 0.04 0 0.1 0.02 0.18 0.06 0.08 0.04 0.16 0.08 0.24 0.13 0.08 0.05 0.16 0.11 0.23 0.16 0.07 0.06 0.12 0.09 0.16 0.12 0.04 0.03 0.08 0.07 0.11 0.12 0.02 0.05 0.04 0.14 0.04 0.25l-0.02 0.85 0.93 0.03 0.04-1.25c0-0.11-0.05-0.21-0.16-0.28l-1.45-1.07c-0.13-0.09-0.24-0.19-0.34-0.31 -0.09-0.11-0.14-0.27-0.13-0.47l0.05-1.78c0.01-0.23 0.09-0.4 0.26-0.51 0.16-0.11 0.37-0.16 0.61-0.16l1.5 0.04c0.13 0 0.25 0.02 0.36 0.07 0.11 0.05 0.2 0.1 0.28 0.17 0.07 0.07 0.14 0.15 0.17 0.24 0.04 0.09 0.06 0.18 0.05 0.27l-0.03 1.39c0 0.08-0.03 0.15-0.07 0.2 -0.05 0.05-0.09 0.07-0.14 0.07 -0.05 0-0.12-0.02-0.2-0.06 -0.08-0.04-0.16-0.08-0.25-0.14 -0.08-0.05-0.16-0.1-0.23-0.16 -0.07-0.05-0.13-0.08-0.16-0.11 -0.04-0.03-0.08-0.07-0.1-0.12 -0.03-0.05-0.04-0.13-0.04-0.25l0.02-0.6 -0.83-0.02zm9.99 5.64c-0.03 0.03-0.08 0.05-0.15 0.05l-1.58 0.06c-0.06 0.01-0.11-0.01-0.15-0.04 -0.04-0.02-0.05-0.06-0.05-0.11 0-0.05 0.02-0.1 0.05-0.15 0.04-0.05 0.08-0.11 0.13-0.17 0.05-0.06 0.09-0.13 0.12-0.2 0.04-0.08 0.06-0.16 0.05-0.25l-0.04-1.19 -1.39 0.72 0.02 0.53c0 0.09 0.02 0.17 0.07 0.24 0.04 0.07 0.09 0.13 0.14 0.19 0.06 0.06 0.1 0.11 0.14 0.16 0.04 0.05 0.06 0.1 0.07 0.15 0 0.04-0.02 0.07-0.04 0.11 -0.03 0.03-0.08 0.05-0.15 0.05l-1.58 0.06c-0.07 0-0.11-0.01-0.15-0.04 -0.04-0.02-0.05-0.07-0.05-0.1 0-0.05 0.01-0.1 0.05-0.15 0.04-0.05 0.08-0.1 0.13-0.17 0.05-0.06 0.09-0.13 0.13-0.2 0.04-0.07 0.05-0.15 0.05-0.24l-0.18-4.96c-0.01-0.09-0.03-0.17-0.07-0.24 -0.04-0.07-0.09-0.14-0.14-0.19 -0.06-0.06-0.1-0.11-0.14-0.16 -0.04-0.05-0.06-0.1-0.06-0.15 0-0.04 0.02-0.08 0.05-0.11 0.03-0.03 0.08-0.04 0.15-0.05l1.58-0.06c0.07-0.01 0.12 0.01 0.15 0.04 0.03 0.03 0.05 0.06 0.05 0.11 0 0.05-0.02 0.1-0.05 0.15 -0.04 0.05-0.08 0.11-0.13 0.17 -0.05 0.06-0.09 0.13-0.13 0.2 -0.03 0.08-0.05 0.16-0.05 0.25l0.12 3.14 1.4-0.72 -0.09-2.47c-0.01-0.09-0.03-0.17-0.07-0.24 -0.04-0.07-0.09-0.13-0.14-0.19 -0.05-0.06-0.1-0.11-0.14-0.16 -0.04-0.05-0.06-0.1-0.06-0.14 0-0.04 0.01-0.08 0.04-0.11 0.03-0.03 0.08-0.04 0.15-0.05l1.58-0.06c0.07 0 0.12 0.01 0.15 0.04 0.03 0.02 0.05 0.06 0.05 0.1 0 0.05-0.02 0.1-0.05 0.15 -0.04 0.06-0.08 0.11-0.13 0.17 -0.05 0.06-0.09 0.13-0.12 0.2 -0.04 0.07-0.06 0.15-0.05 0.24l0.18 4.96c0.01 0.09 0.03 0.17 0.07 0.24 0.04 0.07 0.09 0.14 0.14 0.19 0.05 0.06 0.1 0.11 0.14 0.16 0.04 0.05 0.06 0.1 0.07 0.14 0 0.04-0.01 0.08-0.05 0.11zm6.66-0.55l-3.12 0.32c-0.06 0.01-0.11 0-0.15-0.02 -0.04-0.03-0.06-0.06-0.06-0.1 0-0.05 0.01-0.1 0.04-0.15 0.03-0.05 0.07-0.11 0.12-0.18 0.04-0.06 0.08-0.13 0.12-0.21 0.03-0.07 0.04-0.16 0.03-0.24l-0.5-4.94c-0.01-0.09-0.04-0.17-0.08-0.23 -0.05-0.07-0.1-0.13-0.16-0.18 -0.06-0.05-0.1-0.11-0.15-0.15 -0.05-0.05-0.07-0.09-0.07-0.14 -0.01-0.04 0.01-0.08 0.04-0.11 0.03-0.03 0.08-0.05 0.15-0.06l3.12-0.32c0.21-0.02 0.32 0.07 0.34 0.27l0.1 1.02c0.01 0.06 0.01 0.11-0.01 0.14 -0.01 0.03-0.03 0.06-0.06 0.1 -0.03 0.03-0.09 0.09-0.18 0.16 -0.09 0.07-0.18 0.15-0.27 0.22 -0.1 0.08-0.19 0.15-0.28 0.21 -0.08 0.06-0.14 0.09-0.16 0.1 -0.03 0-0.07-0.01-0.1-0.04 -0.04-0.03-0.06-0.07-0.06-0.11l-0.1-0.98 -0.73 0.07c-0.03 0-0.05 0.02-0.08 0.04 -0.02 0.02-0.03 0.05-0.03 0.08l0.22 2.19 0.74-0.58c0.08-0.07 0.16-0.1 0.22-0.11 0.05-0.01 0.1 0.01 0.13 0.05 0.03 0.03 0.06 0.08 0.06 0.12l0.09 0.82c0.01 0.08 0 0.14-0.02 0.19 -0.02 0.04-0.06 0.09-0.12 0.14l-0.96 0.76 0.1 0.99c0.01 0.07 0.05 0.11 0.13 0.1l0.74-0.07 -0.06-0.56c-0.01-0.07 0-0.12 0.01-0.15 0.01-0.03 0.03-0.06 0.07-0.1 0.03-0.02 0.09-0.08 0.18-0.15 0.09-0.07 0.18-0.15 0.28-0.23 0.09-0.08 0.18-0.14 0.27-0.2 0.08-0.06 0.14-0.09 0.17-0.1 0.04 0 0.07 0.01 0.11 0.04 0.04 0.03 0.06 0.07 0.06 0.12l0.19 1.89c0.02 0.2-0.07 0.32-0.27 0.33zm7.19-1.24c-0.14 0.14-0.33 0.24-0.57 0.28l-2.68 0.45c-0.07 0.01-0.11 0-0.15-0.02 -0.04-0.02-0.06-0.05-0.07-0.09 -0.01-0.05 0-0.1 0.03-0.16 0.03-0.06 0.07-0.12 0.11-0.19 0.04-0.07 0.07-0.14 0.1-0.22s0.04-0.16 0.02-0.25l-0.81-4.9c-0.02-0.09-0.05-0.16-0.1-0.23 -0.05-0.07-0.1-0.12-0.17-0.17 -0.06-0.05-0.11-0.1-0.16-0.14 -0.04-0.04-0.07-0.09-0.08-0.13 -0.01-0.04 0-0.08 0.03-0.11 0.02-0.04 0.07-0.06 0.14-0.07l2.56-0.43c0.33-0.06 0.59-0.02 0.77 0.09 0.18 0.12 0.3 0.31 0.34 0.59l0.85 5.15c0.04 0.23-0.01 0.41-0.15 0.56zm11.81-2.65c-0.03 0.06-0.08 0.09-0.15 0.11l-2.52 0.69c-0.17 0.05-0.29 0.06-0.38 0.02s-0.16-0.12-0.2-0.29l-0.31-1.13c-0.01-0.04 0.02-0.14 0.08-0.31 0.06-0.16 0.14-0.35 0.25-0.58 0.1-0.23 0.21-0.47 0.33-0.72 0.12-0.25 0.23-0.49 0.33-0.72 0.1-0.22 0.19-0.42 0.25-0.58 0.07-0.16 0.09-0.26 0.08-0.31l-0.36-1.32c-0.01-0.05-0.05-0.07-0.11-0.05l-0.72 0.19c-0.06 0.02-0.08 0.06-0.06 0.12l0.25 0.93c0.02 0.07 0 0.15-0.07 0.22 -0.03 0.03-0.07 0.09-0.14 0.17 -0.06 0.08-0.14 0.17-0.22 0.26 -0.08 0.09-0.15 0.17-0.22 0.24 -0.07 0.07-0.12 0.11-0.16 0.12 -0.03 0.01-0.07 0.01-0.11-0.02 -0.04-0.02-0.07-0.06-0.08-0.11l-0.51-1.83c-0.02-0.09-0.02-0.18-0.01-0.27 0.02-0.09 0.06-0.18 0.11-0.26 0.05-0.09 0.13-0.16 0.23-0.24 0.09-0.07 0.21-0.12 0.34-0.16l1.53-0.42c0.26-0.07 0.48-0.07 0.66 0.01 0.17 0.07 0.3 0.21 0.35 0.41l0.52 1.89c0.02 0.04-0.01 0.15-0.07 0.32 -0.06 0.17-0.14 0.37-0.24 0.6 -0.1 0.23-0.21 0.47-0.33 0.73 -0.12 0.26-0.23 0.5-0.33 0.73 -0.1 0.23-0.19 0.42-0.25 0.59 -0.06 0.16-0.09 0.26-0.08 0.3l0.08 0.27c0.01 0.05 0.05 0.07 0.11 0.06l1.14-0.32c0.05-0.01 0.1-0.05 0.15-0.11 0.06-0.07 0.12-0.13 0.17-0.21 0.05-0.07 0.11-0.14 0.15-0.2 0.05-0.07 0.09-0.1 0.12-0.11 0.08-0.02 0.14 0.01 0.16 0.1l0.29 1.03c0.02 0.07 0.01 0.12-0.02 0.18zm6.4-2.25c-0.05 0.09-0.12 0.17-0.21 0.25 -0.09 0.07-0.2 0.14-0.34 0.18l-1.67 0.57c-0.22 0.08-0.44 0.09-0.63 0.03 -0.19-0.05-0.32-0.19-0.4-0.41l-1.74-5.1c-0.08-0.21-0.06-0.4 0.06-0.57 0.12-0.16 0.29-0.29 0.52-0.36l1.67-0.57c0.13-0.04 0.25-0.06 0.37-0.06 0.12 0 0.23 0.02 0.32 0.07 0.1 0.04 0.18 0.09 0.25 0.16 0.07 0.07 0.12 0.15 0.15 0.24l1.71 5.01c0.03 0.09 0.04 0.18 0.03 0.27 -0.01 0.1-0.04 0.19-0.09 0.29zm6.54-2.56c-0.04 0.1-0.11 0.18-0.19 0.26 -0.09 0.08-0.19 0.15-0.32 0.2l-1.63 0.67c-0.22 0.09-0.43 0.11-0.63 0.07 -0.2-0.04-0.34-0.17-0.42-0.38l-2.05-4.99c-0.09-0.21-0.08-0.4 0.03-0.57 0.11-0.17 0.27-0.3 0.49-0.39l1.63-0.68c0.12-0.05 0.24-0.08 0.36-0.08s0.23 0.01 0.32 0.05c0.1 0.03 0.19 0.08 0.25 0.15 0.08 0.07 0.13 0.14 0.17 0.22l2.02 4.91c0.03 0.08 0.05 0.17 0.04 0.27 0 0.09-0.03 0.19-0.07 0.28zm6.28-2.84c-0.1 0.18-0.26 0.31-0.47 0.41l-1.5 0.73c-0.12 0.06-0.24 0.1-0.36 0.1 -0.11 0.01-0.22 0-0.32-0.03 -0.1-0.03-0.19-0.07-0.26-0.13 -0.07-0.06-0.13-0.13-0.17-0.21l-0.57-1.17c-0.07-0.14-0.04-0.23 0.07-0.29 0.04-0.02 0.1-0.03 0.19-0.03 0.09 0 0.18 0 0.28 0.01 0.1 0.01 0.2 0.02 0.3 0.03 0.1 0.01 0.16 0.02 0.21 0.02 0.04 0.01 0.09 0.03 0.14 0.04s0.09 0.07 0.14 0.18l0.17 0.35c0.02 0.03 0.04 0.04 0.07 0.02l0.8-0.39c0.04-0.02 0.05-0.04 0.03-0.07l-0.65-1.34c-0.01-0.04-0.04-0.04-0.08-0.02l-1.17 0.57c-0.22 0.11-0.43 0.14-0.63 0.1 -0.2-0.04-0.35-0.17-0.46-0.39l-1.18-2.42c-0.1-0.21-0.1-0.4 0-0.58s0.25-0.32 0.46-0.42l1.51-0.73c0.12-0.06 0.24-0.09 0.35-0.1 0.12-0.01 0.23 0 0.33 0.03 0.11 0.03 0.19 0.08 0.27 0.14 0.08 0.06 0.14 0.13 0.18 0.21l2.33 4.81c0.1 0.21 0.1 0.41 0 0.58zm4.79-3.43c-0.83 0-1.5-0.67-1.5-1.5 0-0.82 0.67-1.5 1.5-1.5 0.83 0 1.5 0.67 1.5 1.5 0 0.83-0.67 1.5-1.5 1.5zm-55.89 2.49c-13.7 0-26.76-2.72-38.67-7.64 -8.61-3.55-16.63-8.25-23.85-13.92 0.06-0.01 0.12-0.02 0.18-0.04 2.18-0.43 4.36-0.84 6.54-1.23 37.09-6.55 74.52-6.55 111.61 0 2.18 0.39 4.36 0.8 6.54 1.23 0.06 0.01 0.13 0.02 0.19 0.04 -7.23 5.67-15.24 10.37-23.85 13.92 -11.92 4.92-24.98 7.64-38.67 7.64zm111.59-23.89c-0.73 3.39-1.47 6.79-2.2 10.18 -6.88-2.4-13.79-4.57-20.72-6.52 -7.13-2-14.28-3.75-21.44-5.26 -0.06-0.02-0.12-0.02-0.18-0.04 -2.03-0.43-4.07-0.84-6.1-1.23 -40.48-7.74-81.4-7.74-121.88 0 -2.04 0.39-4.07 0.8-6.1 1.23 -0.06 0.02-0.12 0.02-0.17 0.04 -7.17 1.51-14.32 3.26-21.45 5.26 -6.93 1.94-13.83 4.11-20.72 6.52 -0.74-3.39-1.47-6.79-2.2-10.18 -2.33-10.75-4.65-21.5-6.98-32.25 2.11-0.73 4.22-1.44 6.32-2.13 6.01-1.99 12.03-3.8 18.07-5.46 0.05-0.01 0.09-0.02 0.14-0.04 1.59-0.44 3.18-0.88 4.76-1.3 16.68-4.34 33.47-7.44 50.29-9.34 1.56-0.17 3.11-0.33 4.67-0.49 10.52-1.04 21.06-1.6 31.6-1.69 1.81-0.01 3.63-0.01 5.45 0 10.54 0.09 21.08 0.65 31.61 1.69 1.55 0.16 3.1 0.31 4.66 0.49 16.83 1.9 33.61 5 50.29 9.34 1.59 0.42 3.18 0.86 4.77 1.3 0.04 0.01 0.09 0.02 0.13 0.04 6.04 1.66 12.06 3.48 18.07 5.46 2.11 0.69 4.22 1.4 6.32 2.13 -2.33 10.75-4.66 21.5-6.99 32.25z" fill="#020202"/><path stroke="none" id="svg_29" d="m242.37 175.59c-6.01-1.98-12.05-3.8-18.11-5.46 -0.05-0.01-0.09-0.02-0.14-0.04 -1.59-0.43-3.19-0.86-4.79-1.28 -16.45-4.25-33.04-7.31-49.68-9.18 -11.93-1.34-23.89-2.06-35.85-2.15 -0.94-0.01-1.89-0.03-2.83-0.03 -0.95 0-1.89 0.02-2.84 0.03 -11.96 0.1-23.91 0.82-35.84 2.15 -16.64 1.87-33.23 4.93-49.69 9.18 -1.6 0.42-3.19 0.85-4.79 1.28 -0.05 0.01-0.09 0.03-0.14 0.04 -6.05 1.66-12.09 3.48-18.1 5.46 -1.6 0.53-3.2 1.05-4.8 1.6l4.6 21.25 3.6 16.64c5.85-2 11.72-3.83 17.61-5.5 6.99-1.99 14.01-3.75 21.05-5.27 0.06-0.01 0.11-0.02 0.17-0.04 1.98-0.43 3.96-0.83 5.95-1.23 20.97-4.14 42.1-6.24 63.21-6.24 21.11 0 42.25 2.11 63.22 6.24 1.98 0.39 3.96 0.8 5.95 1.23 0.06 0.01 0.11 0.02 0.17 0.04 7.04 1.53 14.05 3.29 21.04 5.28 5.89 1.67 11.77 3.5 17.61 5.5l3.6-16.64 4.6-21.26c-1.59-0.55-3.19-1.07-4.79-1.6zm-134.45 5.43c2.85-1.37 4.28-2.05 7.16-3.37 -0.14-4.34-0.2-6.5-0.34-10.84 -0.01-0.39-0.13-0.74-0.34-1.04 -0.21-0.31-0.46-0.58-0.74-0.83 -0.28-0.25-0.52-0.48-0.73-0.69 -0.21-0.21-0.32-0.43-0.33-0.63 -0.01-0.18 0.07-0.35 0.25-0.48 0.16-0.14 0.43-0.22 0.77-0.24 3.34-0.18 5.01-0.25 8.35-0.36 0.35-0.01 0.61 0.05 0.79 0.17 0.17 0.12 0.26 0.28 0.27 0.47 0.01 0.21-0.09 0.43-0.29 0.66 -0.2 0.23-0.44 0.48-0.7 0.75s-0.49 0.56-0.69 0.89c-0.2 0.32-0.29 0.68-0.28 1.07 0.15 7.24 0.29 14.49 0.44 21.74 0.01 0.4 0.11 0.74 0.32 1.05 0.21 0.31 0.44 0.59 0.69 0.84 0.26 0.25 0.49 0.49 0.69 0.71 0.2 0.22 0.3 0.43 0.3 0.64 0 0.19-0.08 0.34-0.24 0.48 -0.16 0.14-0.41 0.21-0.74 0.22 -3.16 0.09-4.74 0.16-7.91 0.34 -0.33 0.02-0.58-0.03-0.75-0.16s-0.26-0.28-0.27-0.46c-0.01-0.21 0.08-0.43 0.27-0.67 0.19-0.24 0.41-0.49 0.65-0.77 0.25-0.27 0.46-0.57 0.65-0.9 0.19-0.32 0.27-0.68 0.26-1.08 -0.07-2.09-0.1-3.13-0.16-5.23 -2.85 1.31-4.27 1.99-7.09 3.36 0.04 0.93 0.06 1.39 0.11 2.32 0.02 0.39 0.13 0.74 0.34 1.04 0.21 0.3 0.45 0.57 0.72 0.82 0.27 0.24 0.51 0.47 0.71 0.68 0.21 0.21 0.31 0.42 0.32 0.63 0.01 0.18-0.07 0.35-0.23 0.49 -0.16 0.14-0.4 0.23-0.73 0.25 -3.16 0.23-4.74 0.36-7.9 0.66 -0.33 0.03-0.58-0.01-0.75-0.12 -0.17-0.11-0.27-0.26-0.28-0.44 -0.01-0.21 0.08-0.44 0.26-0.67 0.18-0.25 0.39-0.5 0.64-0.79 0.24-0.28 0.45-0.59 0.62-0.93 0.18-0.33 0.26-0.69 0.24-1.09 -0.41-7.23-0.81-14.46-1.22-21.69 -0.02-0.39-0.14-0.74-0.37-1.03 -0.22-0.3-0.48-0.56-0.75-0.8 -0.29-0.24-0.53-0.45-0.75-0.66 -0.22-0.2-0.33-0.41-0.34-0.62 -0.01-0.18 0.06-0.35 0.23-0.49 0.17-0.15 0.43-0.24 0.77-0.27 3.33-0.32 5-0.46 8.34-0.7 0.35-0.03 0.61 0.02 0.79 0.15 0.18 0.11 0.27 0.27 0.28 0.45 0.01 0.21-0.09 0.44-0.28 0.67 -0.19 0.24-0.42 0.5-0.68 0.77 -0.26 0.28-0.48 0.58-0.67 0.91 -0.19 0.33-0.28 0.69-0.26 1.09 0.24 5.5 0.37 8.24 0.62 13.74zm26.01-14.31c-0.16 0-0.3 0.05-0.42 0.14 -0.12 0.09-0.19 0.21-0.19 0.33 -0.01 3.86-0.01 5.78-0.02 9.64 1.65-0.87 2.48-1.31 4.14-2.16 0.47-0.25 0.87-0.38 1.21-0.37 0.28 0 0.49 0.09 0.65 0.27 0.15 0.17 0.23 0.37 0.23 0.57 -0.02 1.45-0.02 2.17-0.05 3.61 0 0.34-0.07 0.61-0.19 0.79 -0.12 0.18-0.35 0.36-0.69 0.54 -2.13 1.11-3.19 1.67-5.29 2.82 0 1.76 0 2.64-0.01 4.4 0 0.31 0.19 0.48 0.58 0.48 1.49 0.01 2.23 0.02 3.72 0.04 0.01-0.98 0.02-1.48 0.03-2.47 0-0.29 0.04-0.5 0.12-0.63 0.08-0.13 0.21-0.28 0.39-0.39 0.17-0.11 0.51-0.29 0.99-0.57 0.48-0.28 0.99-0.56 1.52-0.83 0.54-0.28 1.03-0.52 1.48-0.73s0.75-0.31 0.9-0.3c0.18 0.01 0.36 0.09 0.52 0.23 0.16 0.15 0.25 0.33 0.24 0.54 -0.07 3.32-0.1 4.98-0.17 8.3 -0.02 0.89-0.53 1.32-1.56 1.29 -5.25-0.11-10.49-0.14-15.74-0.09 -0.33 0.01-0.58-0.06-0.74-0.18 -0.17-0.13-0.25-0.28-0.26-0.47 0-0.21 0.1-0.43 0.29-0.66 0.2-0.22 0.41-0.48 0.67-0.74 0.26-0.27 0.48-0.56 0.67-0.87 0.19-0.32 0.29-0.67 0.28-1.07 -0.07-7.25-0.14-14.5-0.21-21.74 0-0.4-0.11-0.75-0.31-1.06 -0.21-0.31-0.44-0.59-0.72-0.85 -0.27-0.25-0.51-0.49-0.72-0.71 -0.21-0.22-0.31-0.44-0.32-0.64 0-0.18 0.08-0.34 0.26-0.48s0.43-0.21 0.78-0.21c5.54-0.06 11.07-0.03 16.61 0.09 1.08 0.03 1.61 0.5 1.59 1.39 -0.04 1.8-0.06 2.69-0.1 4.48 -0.01 0.29-0.05 0.5-0.13 0.63 -0.08 0.13-0.21 0.25-0.41 0.38 -0.19 0.12-0.53 0.32-1.02 0.58 -0.49 0.26-1.01 0.52-1.56 0.8 -0.55 0.27-1.06 0.52-1.53 0.73 -0.47 0.21-0.76 0.32-0.89 0.31 -0.19 0-0.37-0.08-0.54-0.22 -0.17-0.14-0.25-0.32-0.25-0.53 0.02-1.72 0.03-2.59 0.05-4.32 -1.55-0.02-2.32-0.02-3.86-0.04zm29.12 25.49c-0.05 0.89-0.58 1.28-1.6 1.19 -4.72-0.43-9.46-0.75-14.19-0.97 -0.33-0.02-0.58-0.09-0.74-0.23 -0.16-0.14-0.24-0.3-0.23-0.48 0-0.21 0.11-0.42 0.31-0.63 0.21-0.21 0.44-0.45 0.7-0.69 0.26-0.26 0.5-0.53 0.7-0.84 0.21-0.3 0.31-0.65 0.33-1.05 0.21-7.24 0.43-14.49 0.65-21.73 0.01-0.4-0.08-0.76-0.27-1.08 -0.19-0.32-0.42-0.62-0.68-0.89 -0.26-0.28-0.49-0.53-0.69-0.76 -0.2-0.23-0.3-0.45-0.29-0.66 0.01-0.18 0.1-0.34 0.27-0.46 0.18-0.12 0.44-0.18 0.79-0.16 3.34 0.16 5.01 0.26 8.35 0.49 0.35 0.03 0.6 0.11 0.77 0.25s0.25 0.31 0.24 0.49c-0.01 0.21-0.12 0.42-0.34 0.63 -0.21 0.21-0.46 0.43-0.74 0.67 -0.28 0.25-0.53 0.52-0.74 0.81 -0.22 0.3-0.33 0.65-0.35 1.04 -0.29 7.12-0.59 14.24-0.88 21.36 1.11 0.08 1.66 0.12 2.77 0.21 0.05-0.99 0.07-1.48 0.11-2.47 0.01-0.29 0.06-0.5 0.14-0.62 0.08-0.13 0.22-0.27 0.41-0.36 0.17-0.09 0.52-0.26 1-0.51s1-0.5 1.55-0.74c0.55-0.24 1.05-0.46 1.5-0.64 0.46-0.18 0.76-0.26 0.91-0.25 0.18 0.02 0.35 0.11 0.52 0.27 0.16 0.16 0.23 0.34 0.22 0.55 -0.19 3.32-0.29 4.97-0.48 8.28zm-115.7 11.01c-0.14 0.18-0.37 0.3-0.7 0.4 -3.11 0.85-4.67 1.29-7.77 2.21 -0.32 0.1-0.58 0.11-0.76 0.03 -0.18-0.08-0.29-0.2-0.33-0.39 -0.04-0.2 0.02-0.44 0.18-0.71 0.15-0.27 0.33-0.58 0.53-0.91 0.2-0.33 0.38-0.67 0.51-1.04 0.14-0.36 0.17-0.74 0.1-1.12 -0.47-2.61-0.94-5.22-1.4-7.83 -0.79-4.45-1.59-8.91-2.38-13.36 -0.07-0.39-0.23-0.7-0.49-0.94 -0.25-0.25-0.54-0.46-0.85-0.64 -0.31-0.18-0.59-0.35-0.82-0.5 -0.24-0.16-0.38-0.34-0.42-0.54 -0.03-0.18 0.02-0.35 0.17-0.54 0.15-0.18 0.39-0.32 0.74-0.42 2.58-0.77 4.16-1.23 6.31-1.82 0.05-0.01 0.09-0.03 0.14-0.04 0.54-0.15 1.11-0.31 1.76-0.48 0.34-0.09 0.61-0.1 0.8-0.02 0.19 0.08 0.3 0.22 0.33 0.39 0.03 0.21-0.03 0.45-0.2 0.72 -0.17 0.27-0.36 0.57-0.58 0.9 -0.22 0.33-0.41 0.67-0.56 1.04 -0.04 0.1-0.06 0.21-0.08 0.31 -0.02 0.07-0.04 0.13-0.05 0.2 -0.02 0.2-0.02 0.4 0.01 0.6 0.84 5.05 1.68 10.09 2.52 15.13 0.34 2.05 0.68 4.09 1.02 6.14 0.06 0.39 0.22 0.71 0.46 0.96 0.24 0.25 0.51 0.47 0.81 0.66 0.29 0.19 0.55 0.36 0.78 0.53 0.23 0.16 0.36 0.35 0.39 0.55 0.03 0.18-0.03 0.36-0.17 0.53zm15.18-3.51c-1.76 0.39-3.03 0.67-4.36 0.99 -0.06 0.01-0.11 0.03-0.16 0.03 -0.99 0.24-2.03 0.49-3.34 0.81 -1.33 0.33-2.45 0.27-3.35-0.18 -0.9-0.45-1.41-1.07-1.54-1.87 -0.36-2.31-0.58-3.68-0.89-5.64 -0.07-0.44-0.14-0.9-0.22-1.42 -0.06-0.36 0.01-0.67 0.21-0.91 0.2-0.25 0.46-0.42 0.79-0.51 0.01 0 0.04 0 0.06 0 0.05-0.01 0.11-0.01 0.16-0.02 0.19-0.02 0.42-0.02 0.72 0.02 0.42 0.05 0.85 0.13 1.31 0.23 0.45 0.1 0.88 0.22 1.27 0.35 0.39 0.13 0.69 0.23 0.89 0.28 0.23 0.07 0.44 0.2 0.62 0.37 0.18 0.17 0.3 0.51 0.38 1.03 0.03 0.21 0.06 0.39 0.09 0.57 0.16 1.1 0.26 1.81 0.44 3.06 1.85-0.44 2.77-0.66 4.61-1.07 -0.01-0.04-0.01-0.08-0.02-0.12 -0.1-0.71-0.18-1.31-0.25-1.86 -0.15-1.07-0.28-2.01-0.47-3.4 -0.06-0.49-0.39-0.83-0.98-1.02 -1.96-0.66-3.33-1.1-4.83-1.58 -0.98-0.31-2.02-0.63-3.32-1.02 -0.73-0.22-1.37-0.5-1.93-0.85 -0.56-0.35-0.91-0.95-1.04-1.8 -0.48-3.07-0.72-4.6-1.21-7.67 -0.03-0.15-0.02-0.29-0.02-0.44 -0.01-0.79 0.3-1.5 0.95-2.11 0.78-0.72 1.8-1.24 3.04-1.54 3.13-0.77 4.69-1.14 7.83-1.83 0.69-0.16 1.34-0.2 1.94-0.15 0.6 0.06 1.13 0.19 1.57 0.4 0.45 0.21 0.8 0.49 1.07 0.83 0.26 0.35 0.42 0.71 0.47 1.1 0.3 2.41 0.45 3.61 0.76 6.02 0.04 0.37-0.03 0.67-0.22 0.92 -0.19 0.25-0.41 0.4-0.66 0.46 -0.27 0.06-0.63 0.05-1.06-0.02 -0.44-0.06-0.88-0.16-1.34-0.29 -0.46-0.12-0.9-0.25-1.31-0.37 -0.41-0.12-0.72-0.21-0.92-0.28 -0.23-0.08-0.44-0.21-0.62-0.38 -0.19-0.17-0.31-0.51-0.38-1.03 -0.14-1.04-0.21-1.55-0.35-2.59 -1.73 0.39-2.6 0.59-4.33 1.01 0.28 1.9 0.41 2.85 0.69 4.75 0.04 0.28 0.13 0.5 0.26 0.66 0.13 0.15 0.4 0.3 0.8 0.44 3.33 1.05 4.98 1.59 8.27 2.72 0.82 0.28 1.45 0.62 1.91 1 0.46 0.38 0.73 0.99 0.84 1.82 0.32 2.55 0.51 4.09 0.78 6.23 0.07 0.55 0.14 1.12 0.22 1.77 0.05 0.39-0.02 0.8-0.21 1.24 -0.19 0.44-0.47 0.85-0.83 1.23 -0.36 0.38-0.79 0.72-1.27 1.01 -0.12 0.07-0.25 0.13-0.38 0.19 -0.37 0.18-0.75 0.33-1.14 0.42zm16.45-3.38c-0.15 0.16-0.39 0.26-0.71 0.32 -3.15 0.53-4.72 0.82-7.85 1.43 -0.33 0.06-0.58 0.05-0.76-0.05 -0.18-0.1-0.28-0.24-0.3-0.42 -0.03-0.21 0.05-0.44 0.21-0.7 0.17-0.26 0.36-0.54 0.59-0.85 0.22-0.31 0.41-0.64 0.57-0.99 0.16-0.35 0.22-0.71 0.17-1.1 0-0.04-0.01-0.08-0.01-0.11 -0.83-7.13-1.65-14.26-2.48-21.39 -0.04-0.39-0.19-0.72-0.43-0.99 -0.24-0.27-0.51-0.52-0.8-0.72 -0.3-0.21-0.56-0.4-0.79-0.58 -0.23-0.18-0.36-0.37-0.38-0.58 -0.02-0.18 0.05-0.35 0.21-0.52 0.16-0.16 0.41-0.28 0.76-0.35 5.33-1.04 8-1.5 13.34-2.33 3.43-0.53 5.25 0.46 5.46 2.88 0.34 3.99 0.5 5.98 0.84 9.97 0.08 0.94-0.49 1.89-1.71 2.86 -3.22 2.54-4.81 3.83-7.95 6.44 -0.28 0.24-0.41 0.49-0.39 0.75 0.15 1.43 0.23 2.14 0.38 3.58 0.04 0.39 0.17 0.71 0.39 0.98 0.01 0.01 0.01 0.02 0.01 0.02 0.23 0.28 0.48 0.53 0.76 0.74 0.28 0.22 0.53 0.42 0.75 0.61 0.22 0.19 0.34 0.39 0.36 0.59 0.02 0.18-0.05 0.35-0.2 0.51zm94.97-1.74c-0.17 0.11-0.42 0.14-0.75 0.1 -2.91-0.37-4.49-0.55-7.19-0.83 -0.23-0.02-0.46-0.05-0.71-0.07 -0.33-0.03-0.57-0.12-0.73-0.27 -0.16-0.15-0.23-0.31-0.21-0.49 0.01-0.21 0.12-0.42 0.33-0.62 0.21-0.2 0.45-0.42 0.72-0.65 0.27-0.23 0.52-0.5 0.73-0.79 0.22-0.3 0.34-0.64 0.36-1.03 0.46-7.22 0.92-14.45 1.39-21.68 0.02-0.39-0.06-0.75-0.24-1.09 -0.19-0.33-0.41-0.64-0.66-0.94 -0.25-0.29-0.47-0.56-0.66-0.8 -0.19-0.24-0.28-0.47-0.27-0.68 0.01-0.18 0.11-0.33 0.29-0.44 0.18-0.11 0.44-0.15 0.79-0.12 5.36 0.55 8.04 0.88 13.39 1.64 3.43 0.49 5.03 1.99 4.8 4.41 -0.38 3.98-0.57 5.97-0.95 9.95 -0.09 0.94-0.81 1.7-2.17 2.28 -3.58 1.53-5.36 2.32-8.88 3.95 -0.31 0.14-0.48 0.35-0.5 0.61 -0.11 1.44-0.16 2.16-0.27 3.6 -0.03 0.4 0.04 0.76 0.21 1.09 0.17 0.34 0.37 0.66 0.61 0.95 0.24 0.3 0.44 0.57 0.62 0.81 0.1 0.13 0.16 0.26 0.2 0.39 0.03 0.1 0.05 0.2 0.04 0.3 -0.01 0.18-0.11 0.33-0.29 0.44zm24.65 4.4c-4.31-0.87-8.63-1.71-12.96-2.46 -0.33-0.06-0.57-0.16-0.72-0.32 -0.15-0.16-0.21-0.32-0.2-0.51 0.02-0.21 0.14-0.41 0.35-0.6 0.21-0.19 0.47-0.39 0.74-0.6 0.24-0.19 0.45-0.41 0.65-0.63 0.04-0.04 0.08-0.07 0.12-0.11 0.23-0.28 0.36-0.61 0.4-1 0.74-7.19 1.48-14.38 2.22-21.56 0.04-0.39-0.02-0.76-0.19-1.1 -0.17-0.34-0.38-0.67-0.62-0.97 -0.24-0.3-0.45-0.58-0.63-0.84 -0.18-0.26-0.26-0.49-0.24-0.69 0.02-0.18 0.12-0.32 0.31-0.43 0.19-0.1 0.45-0.12 0.8-0.07 5.5 0.97 10.99 2.02 16.48 3.17 1.07 0.23 1.54 0.79 1.42 1.66 -0.24 1.77-0.35 2.65-0.59 4.42 -0.04 0.28-0.11 0.48-0.2 0.6 -0.1 0.11-0.25 0.21-0.45 0.3 -0.2 0.09-0.56 0.22-1.07 0.39 -0.52 0.16-1.06 0.33-1.64 0.5 -0.57 0.17-1.11 0.32-1.59 0.44 -0.49 0.12-0.8 0.17-0.92 0.15 -0.19-0.04-0.35-0.15-0.5-0.32 -0.15-0.18-0.21-0.37-0.19-0.58 0.21-1.71 0.31-2.56 0.53-4.27 -1.53-0.31-2.29-0.46-3.83-0.76 -0.16-0.03-0.3-0.01-0.44 0.06 -0.13 0.07-0.21 0.17-0.22 0.3 -0.44 3.81-0.65 5.72-1.09 9.53 1.73-0.56 2.6-0.84 4.35-1.38 0.49-0.16 0.91-0.21 1.25-0.14 0.28 0.06 0.48 0.19 0.61 0.38 0.14 0.2 0.19 0.4 0.16 0.61 -0.18 1.43-0.27 2.14-0.45 3.57 -0.04 0.34-0.14 0.58-0.28 0.74 -0.14 0.15-0.39 0.29-0.75 0.4 -2.24 0.71-3.35 1.07-5.57 1.81 -0.2 1.74-0.3 2.61-0.5 4.35 -0.03 0.32 0.14 0.51 0.53 0.58 0.54 0.1 0.99 0.19 1.4 0.27 0.72 0.14 1.35 0.27 2.28 0.45 0.02-0.17 0.04-0.31 0.06-0.45 0.09-0.69 0.15-1.18 0.25-1.99 0.04-0.28 0.1-0.48 0.19-0.6 0.09-0.11 0.24-0.23 0.43-0.31 0.19-0.07 0.54-0.19 1.05-0.38 0.5-0.19 1.03-0.36 1.6-0.54 0.56-0.17 1.08-0.32 1.55-0.44 0.47-0.12 0.77-0.17 0.93-0.13 0.18 0.04 0.35 0.15 0.5 0.33 0.15 0.18 0.21 0.37 0.17 0.58 -0.17 1.31-0.32 2.35-0.45 3.35 -0.01 0.05-0.01 0.1-0.02 0.15 -0.19 1.43-0.37 2.78-0.63 4.67 -0.12 0.88-0.68 1.21-1.68 0.99 -0.88-0.18-1.76-0.35-2.65-0.53zm28.27 6.48c-0.03 0.19-0.16 0.31-0.37 0.38 -0.21 0.07-0.44 0.07-0.67 0 -0.37-0.11-0.72-0.21-1.06-0.31 -2.39-0.71-3.9-1.13-6.58-1.87 -0.33-0.09-0.57-0.22-0.72-0.39 -0.15-0.17-0.22-0.35-0.19-0.53 0.02-0.16 0.1-0.26 0.22-0.32 0.12-0.07 0.25-0.13 0.4-0.2 0.15-0.07 0.29-0.16 0.42-0.27 0.13-0.11 0.21-0.27 0.24-0.48 0.01-0.05-0.02-0.2-0.07-0.46 -0.05-0.25-0.12-0.58-0.21-0.98 -0.09-0.4-0.19-0.85-0.32-1.33 -0.12-0.49-0.23-0.99-0.35-1.46 -0.25-0.99-0.56-2.14-0.88-3.39 -0.04-0.18-0.09-0.35-0.14-0.54 -0.72 0.18-1.08 0.27-1.8 0.46 -0.04 0.01-0.07 0.05-0.1 0.08 -0.07 0.06-0.12 0.15-0.15 0.3 -0.27 1.73-0.4 2.6-0.67 4.32 -0.06 0.39-0.01 0.76 0.13 1.12 0.14 0.36 0.33 0.7 0.54 1.02 0.21 0.32 0.39 0.62 0.55 0.89 0.16 0.27 0.22 0.5 0.19 0.71 -0.03 0.18-0.13 0.31-0.32 0.4 -0.18 0.08-0.44 0.08-0.76 0 -3.11-0.81-4.68-1.2-7.81-1.93 -0.32-0.07-0.56-0.2-0.7-0.36 -0.14-0.16-0.2-0.34-0.18-0.52 0.03-0.21 0.16-0.4 0.38-0.57 0.22-0.17 0.48-0.36 0.76-0.56 0.29-0.2 0.56-0.43 0.8-0.69 0.24-0.26 0.39-0.59 0.44-0.97 0.03-0.23 0.07-0.46 0.1-0.69 0.02-0.09 0.03-0.18 0.04-0.26 0.1-0.73 0.21-1.46 0.31-2.19 0.36-2.51 0.72-5.02 1.08-7.53 0.51-3.57 1.02-7.15 1.54-10.72 0.06-0.39 0-0.76-0.16-1.12 -0.16-0.35-0.35-0.69-0.58-1.01 -0.23-0.32-0.42-0.61-0.6-0.87 -0.17-0.27-0.25-0.51-0.22-0.72 0.03-0.18 0.14-0.31 0.32-0.4 0.19-0.09 0.46-0.09 0.81-0.02 2.27 0.53 4.55 1.08 6.81 1.65 1.62 0.41 3.23 0.84 4.84 1.27 0.05 0.01 0.09 0.03 0.14 0.04 0.8 0.21 1.59 0.41 2.39 0.63 1.59 0.44 2.78 1.09 3.58 1.94 0.8 0.85 1.08 1.91 0.85 3.19 -0.64 3.61-0.96 5.41-1.6 9.01 -0.07 0.41-0.26 0.75-0.56 1.02 -0.3 0.27-0.67 0.5-1.1 0.69 -0.43 0.18-0.91 0.33-1.46 0.46 -0.55 0.13-1.59 0.27-1.66 0.4 -0.09 0.19 0.15 1.12 0.4 2.08 0.14 0.56 0.3 1.13 0.4 1.57 0.27 1.18 0.52 2.23 0.75 3.16 0.23 0.93 0.42 1.7 0.58 2.31 0.16 0.61 0.27 1 0.33 1.15 0.24 0.59 0.46 1.08 0.68 1.43 0.08 0.14 0.16 0.25 0.23 0.37 0.12 0.19 0.23 0.36 0.33 0.51 0.16 0.24 0.28 0.43 0.36 0.59 0.07 0.16 0.1 0.34 0.06 0.54z" fill="#020202"/><path stroke="none" id="svg_30" d="m222.19 178.81c-0.72-0.19-1.3-0.36-1.86-0.5 -0.04-0.01-0.09-0.02-0.14-0.04 -0.95-0.25-1.81-0.48-3.06-0.79 -0.51 3.3-0.83 5.34-1.25 8.04 -0.02 0.11-0.04 0.23-0.05 0.33 -0.12 0.76-0.24 1.56-0.38 2.47 1.97-0.59 2.95-0.87 4.93-1.43 0.56-0.14 0.91-0.28 1.05-0.44 0.14-0.15 0.22-0.29 0.24-0.42 0.44-2.61 0.65-3.92 1.08-6.54 0.06-0.33-0.13-0.56-0.56-0.67z" fill="#020202"/><path stroke="none" id="svg_31" d="m80.19 179.13c0.06-0.15 0.09-0.3 0.08-0.43 -0.28-2.92-0.42-4.38-0.7-7.3 -0.02-0.26-0.07-0.42-0.14-0.45 -0.06-0.05-0.26-0.04-0.57 0.01 -1.67 0.27-2.5 0.4-4.16 0.69 0.46 4.46 0.7 6.69 1.16 11.15 1.5-1.23 2.25-1.84 3.76-3.04 0.32-0.26 0.51-0.47 0.57-0.63z" fill="#020202"/><path stroke="none" id="svg_32" d="m178.18 178.2c0.09-0.14 0.14-0.27 0.15-0.39 0.25-2.93 0.37-4.39 0.62-7.31 0.02-0.26 0.01-0.42-0.05-0.49 -0.06-0.06-0.24-0.11-0.56-0.16 -1.67-0.23-2.51-0.34-4.17-0.54 -0.34 4.48-0.51 6.72-0.85 11.19 1.68-0.75 2.51-1.12 4.2-1.86 0.36-0.16 0.58-0.31 0.67-0.44z" fill="#020202"/></g><g stroke="none" id="svg_33"><path stroke="none" id="svg_34" d="m130.98 90.48c1.22 0 2.38 0.26 3.43 0.72 2.71 1.19 4.67 3.74 5.05 6.79 0.04-0.34 0.07-0.69 0.07-1.04 0-3.99-2.74-7.34-6.44-8.28 -0.67-0.17-1.37-0.27-2.1-0.27s-1.43 0.1-2.1 0.27c-3.7 0.94-6.44 4.28-6.44 8.28 0 0.35 0.03 0.7 0.07 1.04 0.37-3.05 2.34-5.59 5.06-6.79 1.05-0.46 2.21-0.72 3.43-0.72z" fill="#FFFFFF"/><path stroke="none" id="svg_35" d="m47.12 202.13c-0.23-0.17-0.49-0.35-0.78-0.53 -0.29-0.19-0.56-0.41-0.8-0.66 -0.24-0.25-0.4-0.57-0.46-0.96 -0.34-2.05-0.68-4.09-1.02-6.14 -0.84-5.04-1.68-10.09-2.52-15.13 -0.03-0.2-0.03-0.4 0-0.6 0.01-0.07 0.03-0.13 0.05-0.2 0.03-0.1 0.04-0.21 0.08-0.31 0.15-0.36 0.34-0.71 0.56-1.04 0.22-0.33 0.41-0.62 0.58-0.9 0.17-0.27 0.23-0.51 0.2-0.72 -0.03-0.18-0.14-0.31-0.34-0.39 -0.19-0.08-0.46-0.07-0.8 0.02 -0.65 0.18-1.22 0.33-1.76 0.48 -0.05 0.01-0.09 0.03-0.14 0.04 -2.15 0.59-3.73 1.05-6.31 1.82 -0.34 0.1-0.59 0.24-0.73 0.42 -0.15 0.18-0.21 0.36-0.17 0.54 0.04 0.2 0.17 0.39 0.42 0.54 0.24 0.15 0.51 0.32 0.82 0.5 0.31 0.17 0.59 0.39 0.85 0.64 0.26 0.25 0.42 0.56 0.49 0.95 0.8 4.45 1.59 8.91 2.38 13.36 0.47 2.61 0.93 5.22 1.4 7.83 0.07 0.39 0.03 0.76-0.1 1.12 -0.14 0.37-0.31 0.71-0.51 1.04 -0.2 0.33-0.38 0.64-0.53 0.91 -0.15 0.28-0.21 0.51-0.17 0.71 0.03 0.19 0.14 0.31 0.33 0.39 0.19 0.08 0.44 0.07 0.77-0.03 3.1-0.92 4.66-1.36 7.77-2.21 0.32-0.09 0.56-0.22 0.7-0.39 0.14-0.17 0.2-0.35 0.17-0.53 -0.03-0.2-0.16-0.39-0.39-0.55z" fill="#FFFFFF"/><path stroke="none" id="svg_36" d="m65.35 187.61c-0.1-0.83-0.38-1.44-0.84-1.82 -0.46-0.38-1.09-0.71-1.91-1 -3.28-1.13-4.94-1.67-8.27-2.72 -0.4-0.14-0.67-0.29-0.8-0.44 -0.13-0.16-0.22-0.38-0.26-0.66 -0.28-1.9-0.42-2.85-0.69-4.75 1.73-0.42 2.59-0.62 4.33-1.01 0.14 1.04 0.21 1.55 0.36 2.59 0.07 0.52 0.19 0.86 0.38 1.03 0.18 0.17 0.39 0.3 0.62 0.38 0.2 0.06 0.5 0.15 0.91 0.28 0.41 0.12 0.85 0.24 1.31 0.37 0.46 0.12 0.9 0.22 1.34 0.29 0.44 0.07 0.79 0.07 1.07 0.02 0.25-0.06 0.46-0.21 0.65-0.46 0.19-0.25 0.26-0.56 0.22-0.92 -0.3-2.41-0.45-3.61-0.76-6.02 -0.05-0.38-0.21-0.75-0.47-1.09 -0.27-0.34-0.63-0.62-1.07-0.83 -0.44-0.21-0.96-0.35-1.57-0.4 -0.6-0.06-1.25-0.01-1.94 0.15 -3.13 0.69-4.7 1.06-7.83 1.83 -1.25 0.31-2.26 0.82-3.04 1.55 -0.66 0.61-0.96 1.31-0.95 2.11 0 0.15 0 0.29 0.02 0.44 0.48 3.07 0.72 4.6 1.21 7.67 0.13 0.85 0.48 1.45 1.04 1.8 0.56 0.35 1.21 0.63 1.93 0.85 1.3 0.39 2.33 0.71 3.31 1.02 1.5 0.48 2.87 0.92 4.83 1.58 0.59 0.19 0.92 0.53 0.98 1.02 0.19 1.39 0.32 2.33 0.46 3.4 0.08 0.56 0.16 1.15 0.25 1.86 0.01 0.05 0.01 0.08 0.02 0.13 -1.85 0.41-2.77 0.63-4.61 1.07 -0.18-1.25-0.28-1.96-0.44-3.06 -0.03-0.18-0.05-0.37-0.08-0.57 -0.07-0.52-0.2-0.86-0.38-1.03 -0.18-0.16-0.39-0.29-0.61-0.37 -0.19-0.06-0.49-0.15-0.89-0.28 -0.39-0.13-0.82-0.25-1.27-0.35 -0.45-0.1-0.89-0.18-1.3-0.23 -0.3-0.04-0.53-0.04-0.72-0.02 -0.06 0-0.12 0.01-0.16 0.02 -0.02 0-0.04 0-0.06 0 -0.33 0.08-0.6 0.25-0.79 0.51 -0.2 0.25-0.26 0.56-0.21 0.91 0.08 0.52 0.15 0.98 0.22 1.42 0.31 1.96 0.52 3.33 0.89 5.64 0.13 0.8 0.64 1.42 1.54 1.87 0.9 0.45 2.01 0.51 3.35 0.18 1.31-0.32 2.35-0.57 3.34-0.81 0.05-0.01 0.11-0.02 0.16-0.04 1.33-0.31 2.6-0.6 4.36-0.99 0.4-0.09 0.78-0.24 1.15-0.42 0.13-0.06 0.26-0.11 0.38-0.19 0.48-0.29 0.9-0.62 1.26-1.01 0.36-0.38 0.64-0.79 0.83-1.23 0.19-0.43 0.26-0.85 0.21-1.23 -0.08-0.66-0.15-1.23-0.22-1.77 -0.27-2.14-0.46-3.68-0.78-6.23z" fill="#FFFFFF"/><path stroke="none" id="svg_37" d="m78.07 194.6c-0.28-0.22-0.53-0.46-0.76-0.74 0-0.01-0.01-0.02-0.01-0.02 -0.22-0.28-0.35-0.6-0.39-0.98 -0.15-1.44-0.23-2.15-0.38-3.58 -0.02-0.26 0.1-0.51 0.39-0.75 3.15-2.61 4.74-3.9 7.95-6.44 1.22-0.97 1.79-1.92 1.71-2.85 -0.33-3.99-0.5-5.98-0.84-9.97 -0.2-2.42-2.03-3.41-5.46-2.88 -5.34 0.82-8.02 1.29-13.34 2.33 -0.35 0.07-0.59 0.19-0.75 0.35 -0.16 0.17-0.22 0.34-0.2 0.52 0.03 0.21 0.15 0.4 0.38 0.58 0.23 0.18 0.49 0.38 0.79 0.58 0.3 0.21 0.56 0.45 0.8 0.72 0.24 0.27 0.38 0.6 0.43 0.99 0.83 7.13 1.65 14.27 2.48 21.4 0 0.04 0.01 0.08 0.02 0.12 0.04 0.39-0.01 0.76-0.17 1.11 -0.16 0.35-0.35 0.68-0.57 0.99 -0.22 0.31-0.42 0.59-0.58 0.85 -0.16 0.26-0.24 0.49-0.21 0.7 0.02 0.18 0.12 0.32 0.3 0.42 0.18 0.1 0.43 0.11 0.76 0.05 3.14-0.61 4.71-0.9 7.86-1.43 0.33-0.06 0.56-0.16 0.72-0.32 0.15-0.16 0.22-0.32 0.2-0.51 -0.02-0.21-0.14-0.41-0.36-0.59 -0.22-0.19-0.46-0.39-0.74-0.61zm0.79-23.64c0.31-0.05 0.5-0.06 0.57-0.01 0.07 0.04 0.12 0.19 0.14 0.45 0.28 2.92 0.42 4.38 0.7 7.3 0.02 0.13-0.01 0.27-0.08 0.43 -0.06 0.16-0.25 0.37-0.57 0.63 -1.51 1.21-2.26 1.82-3.76 3.05 -0.46-4.46-0.7-6.69-1.16-11.15 1.67-0.29 2.5-0.43 4.16-0.69z" fill="#FFFFFF"/><path stroke="none" id="svg_38" d="m122.51 190.17c-0.26-0.25-0.49-0.53-0.69-0.85 -0.2-0.3-0.3-0.65-0.31-1.04 -0.15-7.25-0.29-14.5-0.44-21.74 -0.01-0.4 0.08-0.75 0.28-1.07 0.2-0.32 0.43-0.62 0.69-0.89 0.26-0.27 0.49-0.52 0.7-0.75 0.2-0.23 0.3-0.45 0.3-0.66 0-0.18-0.09-0.34-0.27-0.46 -0.18-0.12-0.44-0.19-0.79-0.17 -3.34 0.1-5.01 0.17-8.35 0.36 -0.35 0.02-0.61 0.1-0.77 0.24 -0.17 0.14-0.25 0.3-0.25 0.48 0.01 0.21 0.12 0.43 0.33 0.63 0.21 0.21 0.46 0.44 0.73 0.69 0.28 0.25 0.52 0.52 0.74 0.83 0.22 0.31 0.33 0.65 0.34 1.04 0.14 4.34 0.2 6.51 0.34 10.84 -2.88 1.31-4.31 1.99-7.16 3.37 -0.25-5.49-0.37-8.24-0.62-13.74 -0.02-0.39 0.07-0.76 0.26-1.08 0.19-0.33 0.42-0.63 0.67-0.92 0.26-0.28 0.48-0.53 0.68-0.77 0.19-0.23 0.29-0.46 0.28-0.67 -0.01-0.18-0.1-0.33-0.28-0.45 -0.18-0.12-0.44-0.17-0.79-0.15 -3.34 0.24-5.01 0.38-8.34 0.7 -0.35 0.03-0.6 0.12-0.77 0.27 -0.17 0.15-0.24 0.32-0.23 0.5 0.01 0.21 0.13 0.42 0.35 0.62 0.22 0.2 0.47 0.41 0.75 0.65 0.28 0.23 0.54 0.5 0.76 0.8 0.23 0.29 0.35 0.64 0.37 1.03 0.41 7.23 0.81 14.47 1.22 21.69 0.02 0.4-0.06 0.76-0.24 1.09 -0.18 0.33-0.38 0.64-0.62 0.93 -0.24 0.29-0.45 0.55-0.63 0.8 -0.18 0.24-0.27 0.47-0.26 0.67 0.01 0.18 0.1 0.33 0.28 0.45 0.17 0.11 0.42 0.15 0.75 0.12 3.16-0.3 4.74-0.44 7.9-0.66 0.33-0.02 0.57-0.1 0.73-0.25 0.16-0.14 0.24-0.3 0.23-0.49 -0.01-0.21-0.11-0.42-0.32-0.63 -0.2-0.21-0.44-0.44-0.71-0.68 -0.27-0.25-0.5-0.52-0.71-0.82 -0.21-0.3-0.32-0.64-0.34-1.04 -0.04-0.93-0.06-1.39-0.1-2.31 2.82-1.38 4.24-2.05 7.09-3.36 0.07 2.09 0.1 3.14 0.16 5.23 0.01 0.39-0.07 0.75-0.26 1.07 -0.19 0.33-0.4 0.63-0.65 0.9 -0.25 0.28-0.46 0.53-0.65 0.76 -0.19 0.23-0.28 0.45-0.27 0.67 0.01 0.18 0.1 0.33 0.27 0.46 0.17 0.12 0.42 0.17 0.75 0.16 3.17-0.18 4.75-0.24 7.91-0.34 0.33-0.01 0.58-0.08 0.74-0.22 0.16-0.14 0.24-0.3 0.24-0.48 0-0.21-0.1-0.42-0.3-0.64 -0.2-0.22-0.43-0.45-0.69-0.71z" fill="#FFFFFF"/><path stroke="none" id="svg_39" d="m142.58 162.53c-5.54-0.12-11.07-0.15-16.61-0.09 -0.35 0.01-0.61 0.08-0.78 0.21 -0.17 0.14-0.26 0.3-0.26 0.48 0 0.21 0.1 0.43 0.32 0.65 0.21 0.22 0.45 0.46 0.72 0.71 0.27 0.26 0.51 0.55 0.72 0.86 0.21 0.31 0.31 0.66 0.32 1.06 0.07 7.25 0.14 14.5 0.21 21.74 0.01 0.4-0.09 0.75-0.28 1.07 -0.2 0.31-0.41 0.61-0.67 0.88 -0.25 0.26-0.47 0.52-0.66 0.74 -0.19 0.23-0.29 0.45-0.29 0.66 0 0.19 0.09 0.34 0.26 0.47 0.16 0.12 0.41 0.19 0.74 0.18 5.25-0.06 10.49-0.03 15.74 0.09 1.02 0.03 1.54-0.4 1.56-1.28 0.07-3.32 0.1-4.98 0.17-8.3 0.01-0.21-0.07-0.39-0.24-0.54 -0.16-0.15-0.34-0.23-0.52-0.23 -0.15 0-0.45 0.1-0.9 0.31 -0.44 0.21-0.94 0.45-1.48 0.73 -0.54 0.27-1.04 0.55-1.52 0.83 -0.47 0.28-0.81 0.46-0.99 0.57 -0.18 0.11-0.31 0.26-0.39 0.39 -0.08 0.13-0.12 0.34-0.12 0.63 -0.01 0.99-0.02 1.48-0.03 2.47 -1.48-0.02-2.23-0.03-3.72-0.04 -0.39 0-0.58-0.17-0.58-0.48 0-1.76 0-2.64 0.01-4.4 2.1-1.14 3.16-1.71 5.3-2.82 0.34-0.18 0.57-0.35 0.7-0.54 0.13-0.18 0.19-0.44 0.2-0.78 0.02-1.45 0.03-2.17 0.05-3.62 0-0.2-0.07-0.4-0.23-0.57s-0.37-0.26-0.65-0.27c-0.34-0.01-0.75 0.12-1.21 0.37 -1.66 0.86-2.49 1.29-4.14 2.16 0.01-3.85 0.01-5.77 0.02-9.63 0-0.13 0.07-0.24 0.19-0.33 0.13-0.09 0.27-0.13 0.43-0.13 1.54 0.01 2.32 0.02 3.87 0.04 -0.02 1.73-0.03 2.6-0.04 4.32 0 0.21 0.09 0.4 0.25 0.54 0.17 0.15 0.35 0.22 0.54 0.23 0.12 0.01 0.42-0.1 0.89-0.31 0.47-0.21 0.98-0.46 1.53-0.73 0.55-0.28 1.07-0.54 1.56-0.8 0.49-0.26 0.83-0.45 1.02-0.58 0.19-0.12 0.33-0.25 0.41-0.38 0.08-0.12 0.12-0.34 0.13-0.63 0.04-1.78 0.06-2.68 0.1-4.48 0.02-0.89-0.51-1.36-1.59-1.39z" fill="#FFFFFF"/><path stroke="none" id="svg_40" d="m162.79 183.1c-0.16-0.01-0.46 0.07-0.91 0.25 -0.45 0.18-0.95 0.4-1.5 0.64 -0.55 0.24-1.07 0.49-1.55 0.74 -0.48 0.25-0.83 0.41-1.01 0.51 -0.19 0.1-0.33 0.24-0.41 0.36 -0.08 0.13-0.13 0.33-0.14 0.62 -0.05 0.99-0.07 1.48-0.12 2.47 -1.1-0.08-1.66-0.12-2.76-0.2 0.29-7.12 0.58-14.24 0.88-21.36 0.02-0.4 0.14-0.74 0.35-1.04 0.22-0.29 0.47-0.56 0.75-0.81 0.27-0.24 0.53-0.47 0.74-0.67 0.22-0.21 0.33-0.42 0.34-0.63 0.01-0.18-0.07-0.34-0.24-0.49 -0.17-0.14-0.42-0.22-0.77-0.25 -3.34-0.24-5.01-0.34-8.35-0.49 -0.34-0.02-0.61 0.04-0.78 0.16 -0.18 0.12-0.27 0.28-0.28 0.46 0 0.21 0.09 0.44 0.29 0.66 0.2 0.23 0.43 0.49 0.69 0.76 0.26 0.27 0.49 0.57 0.68 0.9 0.2 0.32 0.29 0.68 0.28 1.08 -0.22 7.24-0.43 14.48-0.65 21.73 -0.02 0.39-0.12 0.74-0.33 1.05 -0.2 0.3-0.44 0.58-0.7 0.83 -0.26 0.25-0.49 0.48-0.7 0.7 -0.2 0.21-0.3 0.42-0.31 0.63 -0.01 0.19 0.07 0.34 0.23 0.48s0.41 0.22 0.74 0.23c4.73 0.22 9.47 0.55 14.19 0.98 1.02 0.09 1.55-0.3 1.6-1.19 0.19-3.31 0.29-4.97 0.48-8.27 0.01-0.21-0.06-0.4-0.22-0.55 -0.16-0.16-0.33-0.25-0.52-0.27z" fill="#FFFFFF"/><path stroke="none" id="svg_41" d="m180.53 165.8c-5.35-0.76-8.02-1.09-13.39-1.64 -0.35-0.03-0.61 0-0.79 0.12 -0.18 0.11-0.28 0.26-0.29 0.44 -0.02 0.21 0.07 0.44 0.27 0.68 0.19 0.24 0.41 0.51 0.66 0.8 0.25 0.29 0.47 0.61 0.66 0.94 0.18 0.34 0.26 0.7 0.24 1.09 -0.46 7.23-0.93 14.45-1.39 21.68 -0.02 0.4-0.15 0.74-0.36 1.03 -0.21 0.29-0.46 0.56-0.73 0.79 -0.27 0.23-0.51 0.45-0.72 0.65 -0.21 0.21-0.32 0.41-0.33 0.62 -0.01 0.18 0.06 0.35 0.22 0.49 0.16 0.15 0.4 0.24 0.73 0.27 0.25 0.03 0.47 0.05 0.71 0.07 2.7 0.28 4.28 0.47 7.19 0.83 0.33 0.04 0.58 0.01 0.75-0.1 0.18-0.11 0.27-0.26 0.29-0.44 0.01-0.1-0.01-0.19-0.04-0.3 -0.04-0.12-0.1-0.25-0.2-0.38 -0.18-0.25-0.38-0.52-0.61-0.81 -0.24-0.29-0.44-0.6-0.61-0.95 -0.17-0.34-0.24-0.7-0.21-1.09 0.11-1.44 0.16-2.16 0.27-3.6 0.02-0.26 0.19-0.46 0.5-0.6 3.53-1.63 5.31-2.41 8.89-3.95 1.36-0.58 2.08-1.34 2.17-2.28 0.38-3.98 0.57-5.97 0.95-9.95 0.23-2.42-1.37-3.92-4.8-4.41zm-1.59 4.69c-0.25 2.92-0.37 4.39-0.61 7.31 -0.01 0.13-0.06 0.26-0.15 0.4 -0.09 0.13-0.31 0.28-0.67 0.44 -1.69 0.74-2.52 1.11-4.2 1.86 0.34-4.48 0.51-6.72 0.85-11.19 1.67 0.21 2.51 0.32 4.17 0.54 0.31 0.05 0.5 0.1 0.56 0.16 0.05 0.07 0.07 0.23 0.05 0.49z" fill="#FFFFFF"/><path stroke="none" id="svg_42" d="m205.91 176.31c0.24-1.77 0.36-2.65 0.59-4.42 0.12-0.88-0.36-1.44-1.42-1.66 -5.49-1.15-10.97-2.2-16.48-3.17 -0.35-0.05-0.61-0.03-0.8 0.07 -0.18 0.1-0.28 0.25-0.3 0.43 -0.02 0.21 0.06 0.44 0.24 0.7 0.18 0.26 0.39 0.54 0.63 0.84 0.24 0.31 0.45 0.63 0.62 0.97 0.17 0.35 0.23 0.72 0.19 1.1 -0.74 7.18-1.48 14.38-2.22 21.56 -0.04 0.39-0.17 0.72-0.4 1 -0.03 0.04-0.08 0.07-0.11 0.11 -0.2 0.23-0.41 0.45-0.65 0.64 -0.28 0.22-0.53 0.42-0.74 0.61 -0.22 0.2-0.33 0.4-0.35 0.6 -0.02 0.18 0.05 0.35 0.2 0.51 0.15 0.16 0.4 0.26 0.72 0.32 4.33 0.76 8.65 1.59 12.96 2.46 0.88 0.18 1.76 0.35 2.65 0.53 1.01 0.22 1.57-0.11 1.69-0.99 0.26-1.9 0.44-3.24 0.63-4.67 0.01-0.05 0.02-0.1 0.02-0.15 0.13-1 0.27-2.04 0.45-3.35 0.03-0.21-0.03-0.4-0.18-0.58 -0.14-0.18-0.31-0.29-0.49-0.33 -0.15-0.04-0.46 0.01-0.93 0.13 -0.47 0.13-0.98 0.27-1.55 0.45 -0.57 0.18-1.1 0.35-1.6 0.54 -0.51 0.19-0.86 0.31-1.05 0.38 -0.19 0.08-0.34 0.2-0.43 0.31 -0.09 0.11-0.15 0.31-0.19 0.6 -0.1 0.81-0.16 1.3-0.25 1.99 -0.02 0.14-0.04 0.28-0.06 0.45 -0.93-0.19-1.57-0.31-2.28-0.45 -0.42-0.08-0.86-0.17-1.4-0.27 -0.39-0.07-0.57-0.26-0.53-0.58 0.2-1.74 0.3-2.61 0.5-4.35 2.22-0.74 3.33-1.1 5.57-1.8 0.35-0.11 0.61-0.25 0.75-0.4 0.14-0.16 0.24-0.4 0.28-0.74 0.18-1.43 0.27-2.14 0.45-3.57 0.02-0.21-0.03-0.41-0.16-0.61 -0.13-0.19-0.33-0.32-0.61-0.38 -0.34-0.07-0.75-0.02-1.25 0.14 -1.74 0.54-2.61 0.81-4.35 1.38 0.44-3.81 0.66-5.72 1.09-9.53 0.02-0.13 0.09-0.23 0.23-0.3 0.14-0.07 0.28-0.09 0.44-0.06 1.53 0.29 2.3 0.45 3.83 0.75 -0.21 1.71-0.31 2.56-0.52 4.27 -0.02 0.21 0.04 0.4 0.19 0.58 0.15 0.18 0.32 0.28 0.51 0.32 0.12 0.02 0.43-0.03 0.92-0.15 0.49-0.12 1.02-0.27 1.6-0.44 0.58-0.17 1.13-0.34 1.64-0.5 0.51-0.17 0.87-0.3 1.08-0.39 0.2-0.09 0.35-0.19 0.45-0.3 0.09-0.11 0.16-0.32 0.2-0.6z" fill="#FFFFFF"/><path stroke="none" id="svg_43" d="m228.29 176.98c-0.8-0.85-1.99-1.5-3.58-1.94 -0.79-0.22-1.59-0.42-2.39-0.63 -0.05-0.01-0.09-0.02-0.14-0.04 -1.61-0.43-3.22-0.86-4.84-1.27 -2.27-0.57-4.54-1.12-6.81-1.65 -0.34-0.08-0.61-0.07-0.8 0.02 -0.19 0.09-0.3 0.22-0.32 0.4 -0.03 0.21 0.04 0.44 0.22 0.71 0.17 0.26 0.37 0.56 0.6 0.88 0.23 0.32 0.42 0.66 0.58 1.01 0.16 0.36 0.21 0.73 0.16 1.12 -0.51 3.57-1.02 7.14-1.54 10.72 -0.36 2.51-0.72 5.02-1.08 7.53 -0.1 0.73-0.21 1.46-0.31 2.19 -0.01 0.09-0.02 0.18-0.04 0.26 -0.03 0.23-0.07 0.46-0.1 0.68 -0.05 0.39-0.2 0.72-0.44 0.98 -0.24 0.26-0.5 0.49-0.8 0.69 -0.29 0.2-0.54 0.39-0.76 0.56 -0.22 0.17-0.35 0.36-0.38 0.57 -0.02 0.18 0.04 0.36 0.18 0.52 0.14 0.16 0.38 0.29 0.71 0.36 3.13 0.73 4.69 1.12 7.81 1.93 0.33 0.08 0.57 0.08 0.76 0 0.18-0.09 0.29-0.22 0.32-0.4 0.03-0.2-0.03-0.44-0.19-0.71 -0.16-0.27-0.35-0.57-0.55-0.88 -0.21-0.33-0.39-0.66-0.54-1.02 -0.15-0.35-0.19-0.72-0.13-1.11 0.27-1.73 0.41-2.59 0.67-4.32 0.02-0.15 0.08-0.24 0.15-0.3 0.03-0.03 0.06-0.06 0.1-0.08 0.72-0.19 1.08-0.28 1.8-0.46 0.04 0.18 0.09 0.36 0.14 0.53 0.32 1.25 0.63 2.4 0.88 3.39 0.12 0.47 0.23 0.97 0.35 1.46 0.12 0.49 0.23 0.93 0.32 1.33 0.09 0.4 0.16 0.73 0.21 0.98 0.05 0.25 0.07 0.41 0.06 0.46 -0.04 0.21-0.11 0.37-0.24 0.48 -0.12 0.11-0.26 0.2-0.42 0.27 -0.15 0.06-0.28 0.13-0.4 0.19 -0.12 0.06-0.19 0.17-0.22 0.32 -0.02 0.18 0.04 0.36 0.19 0.53 0.16 0.18 0.4 0.31 0.73 0.39 2.68 0.74 4.19 1.16 6.58 1.87 0.34 0.1 0.69 0.21 1.06 0.32 0.23 0.07 0.46 0.07 0.67 0 0.21-0.07 0.34-0.19 0.37-0.38 0.04-0.2 0.02-0.38-0.06-0.54 -0.08-0.16-0.2-0.36-0.36-0.59 -0.1-0.14-0.21-0.32-0.33-0.51 -0.07-0.11-0.15-0.23-0.23-0.36 -0.22-0.35-0.44-0.85-0.68-1.43 -0.06-0.15-0.18-0.53-0.33-1.15 -0.16-0.61-0.35-1.38-0.58-2.31 -0.23-0.92-0.48-1.98-0.75-3.15 -0.1-0.44-0.25-1-0.39-1.57 -0.26-0.96-0.49-1.89-0.4-2.08 0.06-0.12 1.11-0.27 1.66-0.39 0.55-0.13 1.04-0.28 1.46-0.46 0.43-0.19 0.8-0.41 1.1-0.69 0.3-0.27 0.49-0.62 0.56-1.02 0.64-3.6 0.97-5.41 1.6-9.01 0.23-1.28-0.05-2.35-0.85-3.19zm-6.62 9.04c-0.02 0.13-0.1 0.27-0.24 0.42 -0.13 0.15-0.48 0.3-1.05 0.44 -1.98 0.56-2.96 0.84-4.93 1.43 0.14-0.91 0.26-1.71 0.38-2.46 0.02-0.11 0.03-0.23 0.05-0.33 0.42-2.69 0.74-4.74 1.25-8.04 1.24 0.32 2.11 0.54 3.06 0.8 0.04 0.01 0.09 0.02 0.14 0.04 0.56 0.15 1.14 0.31 1.86 0.5 0.44 0.12 0.62 0.34 0.57 0.67 -0.44 2.62-0.65 3.92-1.09 6.54z" fill="#FFFFFF"/><path stroke="none" id="svg_44" d="m82.84 227c-0.06-0.03-0.11-0.04-0.15-0.02 -0.04 0.01-0.07 0.04-0.09 0.07 -0.02 0.04-0.02 0.1-0.01 0.16 0.01 0.06 0.03 0.13 0.05 0.21 0.02 0.07 0.03 0.16 0.04 0.24 0 0.08-0.01 0.16-0.05 0.24l-2.14 4.48c-0.04 0.08-0.09 0.14-0.16 0.19 -0.07 0.05-0.14 0.09-0.21 0.12 -0.07 0.03-0.13 0.06-0.19 0.09 -0.06 0.03-0.1 0.06-0.12 0.11 -0.02 0.04-0.02 0.08 0 0.12 0.02 0.05 0.05 0.08 0.12 0.11l2.83 1.35c0.18 0.09 0.32 0.04 0.41-0.14l0.82-1.71c0.02-0.04 0.02-0.09 0.01-0.13 -0.02-0.04-0.04-0.07-0.07-0.09 -0.03-0.01-0.09-0.01-0.19-0.01 -0.1 0.01-0.21 0.02-0.34 0.04 -0.12 0.01-0.24 0.03-0.35 0.05 -0.11 0.02-0.19 0.03-0.23 0.04 -0.05 0.01-0.08 0.03-0.11 0.05 -0.03 0.02-0.05 0.06-0.08 0.12l-0.24 0.51 -0.67-0.32c-0.07-0.04-0.09-0.08-0.06-0.15l0.43-0.9 1.21-0.15c0.08-0.01 0.14-0.03 0.17-0.05 0.04-0.03 0.08-0.08 0.11-0.15l0.36-0.75c0.02-0.04 0.03-0.09 0.02-0.14 -0.01-0.04-0.04-0.08-0.09-0.1 -0.06-0.03-0.14-0.04-0.25-0.02l-0.94 0.11 0.95-1.99c0.01-0.03 0.04-0.04 0.07-0.05 0.03-0.01 0.06-0.01 0.09 0.01l0.66 0.32 -0.42 0.89c-0.02 0.05-0.02 0.09-0.01 0.13 0.02 0.04 0.04 0.07 0.07 0.09 0.02 0.01 0.08 0.01 0.19 0 0.1-0.01 0.22-0.02 0.34-0.03 0.12-0.01 0.24-0.03 0.35-0.05 0.11-0.02 0.19-0.03 0.23-0.04 0.05-0.01 0.08-0.03 0.11-0.05 0.03-0.02 0.06-0.06 0.08-0.12l0.44-0.93c0.09-0.18 0.04-0.31-0.15-0.4l-2.84-1.35z" fill="#FFFFFF"/><path stroke="none" id="svg_45" d="m91.31 230.82c-0.09-0.08-0.19-0.14-0.31-0.19l-1.39-0.56c-0.22-0.09-0.43-0.11-0.63-0.07 -0.19 0.05-0.33 0.18-0.42 0.39l-0.67 1.65c-0.07 0.18-0.09 0.34-0.04 0.48 0.05 0.14 0.12 0.27 0.2 0.41l0.99 1.5c0.08 0.11 0.09 0.21 0.05 0.32l-0.47 1.16 -0.86-0.35 0.32-0.78c0.05-0.11 0.06-0.19 0.05-0.25 -0.01-0.06-0.03-0.11-0.05-0.15 -0.03-0.04-0.06-0.09-0.11-0.16 -0.05-0.08-0.1-0.15-0.16-0.22 -0.06-0.08-0.12-0.15-0.17-0.21 -0.06-0.06-0.11-0.1-0.15-0.12 -0.06-0.02-0.12-0.02-0.18 0 -0.06 0.03-0.1 0.08-0.14 0.16l-0.61 1.53c-0.07 0.17-0.06 0.35 0.04 0.56 0.09 0.2 0.26 0.35 0.51 0.46l1.47 0.59c0.1 0.04 0.2 0.06 0.31 0.06 0.11 0 0.22-0.02 0.32-0.05 0.1-0.03 0.19-0.08 0.27-0.15 0.08-0.06 0.13-0.14 0.17-0.22l0.69-1.72c0.07-0.17 0.09-0.33 0.06-0.46 -0.03-0.13-0.1-0.27-0.2-0.42l-1-1.52c-0.05-0.07-0.07-0.14-0.07-0.18 0-0.05 0.01-0.1 0.03-0.16l0.41-1.02 0.77 0.31 -0.22 0.56c-0.04 0.12-0.06 0.2-0.05 0.25 0.01 0.06 0.02 0.11 0.06 0.15 0.02 0.03 0.06 0.09 0.11 0.16 0.05 0.07 0.1 0.15 0.16 0.23 0.06 0.07 0.12 0.15 0.18 0.21 0.06 0.07 0.12 0.11 0.16 0.13 0.05 0.02 0.1 0.01 0.15-0.02 0.06-0.03 0.1-0.08 0.13-0.16l0.52-1.29c0.03-0.08 0.05-0.17 0.04-0.27s-0.03-0.19-0.08-0.29c-0.04-0.09-0.11-0.18-0.2-0.26z" fill="#FFFFFF"/><path stroke="none" id="svg_46" d="m97.96 233.04c-0.04-0.01-0.14-0.04-0.29-0.07 -0.08-0.02-0.18-0.04-0.28-0.06 -0.1-0.02-0.19-0.05-0.26-0.07l-1.56-0.52c-0.15-0.05-0.27-0.1-0.36-0.14s-0.17-0.07-0.22-0.1c-0.06-0.03-0.1-0.05-0.13-0.08 -0.04-0.02-0.07-0.04-0.1-0.05 -0.12-0.04-0.21 0-0.25 0.13l-0.37 1.12c-0.02 0.05-0.02 0.1 0 0.14 0.02 0.04 0.05 0.07 0.09 0.08 0.06 0.02 0.12 0.02 0.19-0.01 0.06-0.02 0.15-0.06 0.28-0.11 0.06-0.02 0.11-0.05 0.16-0.06 0.04-0.02 0.09-0.02 0.15-0.03 0.06 0 0.12 0.01 0.19 0.02 0.07 0.01 0.17 0.05 0.29 0.08l-1.56 4.63c-0.03 0.08-0.07 0.16-0.13 0.21 -0.06 0.06-0.12 0.1-0.19 0.14 -0.07 0.04-0.13 0.08-0.18 0.12 -0.05 0.04-0.09 0.07-0.1 0.12 -0.01 0.04-0.01 0.08 0.01 0.12 0.02 0.04 0.07 0.07 0.13 0.09l1.5 0.5c0.06 0.02 0.11 0.02 0.15 0.01 0.04-0.02 0.07-0.05 0.08-0.09 0.02-0.04 0.01-0.1-0.01-0.16 -0.02-0.06-0.04-0.13-0.07-0.2 -0.03-0.07-0.05-0.15-0.06-0.23s0-0.16 0.02-0.25l1.56-4.62c0.13 0.04 0.23 0.08 0.3 0.12 0.07 0.03 0.13 0.07 0.17 0.1 0.03 0.03 0.06 0.07 0.08 0.11 0.02 0.04 0.04 0.09 0.07 0.15 0.04 0.12 0.08 0.19 0.11 0.24 0.03 0.05 0.07 0.09 0.13 0.11 0.07 0.02 0.13 0.02 0.19-0.01 0.06-0.03 0.1-0.07 0.12-0.15l0.35-1.03c0.02-0.07 0.02-0.13-0.01-0.19 -0.03-0.05-0.08-0.09-0.15-0.11z" fill="#FFFFFF"/><path stroke="none" id="svg_47" d="m103.64 234.75l-1.79-0.48c-0.13-0.04-0.2 0-0.23 0.1 -0.01 0.03 0 0.07 0.01 0.11 0.01 0.04 0.03 0.08 0.05 0.13 0.02 0.05 0.04 0.09 0.05 0.14 0.01 0.05 0.01 0.09 0 0.14 -0.01 0.03-0.05 0.12-0.13 0.28 -0.08 0.15-0.18 0.33-0.29 0.56 -0.12 0.22-0.25 0.47-0.4 0.75 -0.15 0.28-0.3 0.56-0.46 0.84 -0.16 0.29-0.31 0.57-0.47 0.85 -0.15 0.28-0.29 0.52-0.42 0.74 -0.12 0.22-0.23 0.4-0.31 0.55 -0.08 0.15-0.13 0.24-0.15 0.27 -0.04 0.07-0.09 0.13-0.15 0.18 -0.07 0.05-0.12 0.09-0.19 0.13 -0.06 0.03-0.12 0.07-0.16 0.1 -0.04 0.03-0.07 0.07-0.08 0.1 -0.03 0.1 0.02 0.17 0.15 0.21l1.54 0.41c0.07 0.02 0.12 0.02 0.16 0 0.04-0.02 0.06-0.05 0.08-0.1 0.01-0.04 0-0.07-0.02-0.12 -0.02-0.04-0.05-0.09-0.08-0.15s-0.05-0.11-0.07-0.18c-0.02-0.07-0.01-0.15 0.01-0.23l0.06-0.23 1.8-0.43c-0.01 0.23-0.01 0.44-0.02 0.62 0 0.16-0.01 0.31-0.01 0.45 0 0.14-0.01 0.22-0.01 0.23 -0.01 0.05-0.04 0.1-0.07 0.13 -0.04 0.03-0.07 0.06-0.11 0.09 -0.04 0.02-0.07 0.05-0.1 0.07 -0.03 0.03-0.05 0.06-0.06 0.09 -0.01 0.05-0.01 0.09 0.02 0.12 0.02 0.04 0.07 0.07 0.14 0.09l1.42 0.38c0.13 0.03 0.2 0 0.23-0.1 0.01-0.04 0-0.08-0.03-0.14 -0.03-0.06-0.06-0.13-0.1-0.22 -0.04-0.09-0.07-0.18-0.1-0.3 -0.03-0.11-0.04-0.24-0.04-0.38 0-0.04 0-0.15 0.01-0.31 0-0.17 0-0.37 0.01-0.61 0.01-0.24 0.01-0.51 0.01-0.8 0.01-0.3 0.01-0.6 0.02-0.9 0.01-0.3 0.01-0.6 0.02-0.89 0-0.29 0.01-0.56 0.02-0.79 0.01-0.23 0.02-0.43 0.03-0.59 0.01-0.16 0.02-0.26 0.02-0.29 0.01-0.04 0.03-0.08 0.07-0.11 0.03-0.04 0.07-0.07 0.11-0.1 0.04-0.03 0.08-0.06 0.11-0.09 0.03-0.03 0.05-0.06 0.06-0.08 0.03-0.11-0.02-0.18-0.15-0.21zm-1.49 3.55l-1.13 0.26 1.23-2.28 -0.1 2.02z" fill="#FFFFFF"/><path stroke="none" id="svg_48" d="m110.84 236.35l-2.67-0.52c-0.06-0.01-0.11-0.01-0.15 0.02s-0.06 0.06-0.07 0.1c-0.01 0.05 0 0.1 0.03 0.16 0.03 0.06 0.06 0.12 0.1 0.19 0.04 0.06 0.07 0.14 0.1 0.22 0.02 0.08 0.03 0.16 0.01 0.25l-0.94 4.87c-0.02 0.09-0.05 0.17-0.1 0.23 -0.05 0.06-0.11 0.12-0.17 0.17 -0.06 0.05-0.12 0.1-0.16 0.14 -0.05 0.05-0.08 0.09-0.09 0.14 -0.01 0.04 0 0.08 0.03 0.12 0.03 0.03 0.07 0.06 0.13 0.07l3.02 0.58c0.23 0.05 0.43 0.02 0.62-0.06 0.19-0.08 0.31-0.23 0.35-0.46l0.45-2.32c0.02-0.09 0.01-0.18-0.02-0.26 -0.03-0.08-0.08-0.17-0.14-0.25 -0.06-0.08-0.12-0.15-0.19-0.22 -0.07-0.07-0.13-0.13-0.18-0.18 0.05-0.03 0.1-0.06 0.17-0.09 0.07-0.04 0.13-0.08 0.19-0.13 0.06-0.04 0.11-0.1 0.15-0.16 0.05-0.06 0.08-0.13 0.09-0.21l0.26-1.35c0.06-0.27 0.02-0.49-0.11-0.67 -0.13-0.18-0.36-0.3-0.69-0.36zm-1.07 5.56c-0.01 0.08-0.07 0.12-0.14 0.1l-1.19-0.23 0.3-1.54c0.01-0.05 0.05-0.1 0.13-0.13l0.76-0.32c0.08 0.1 0.16 0.19 0.23 0.26 0.05 0.07 0.1 0.14 0.15 0.21 0.05 0.07 0.07 0.13 0.06 0.15l-0.29 1.5zm0.46-3.57c-0.02 0.08-0.08 0.15-0.2 0.2l-1.04 0.4 0.37-1.88 0.96 0.19c0.05 0.01 0.08 0.03 0.1 0.04 0.01 0.02 0.01 0.05 0 0.1l-0.19 0.95z" fill="#FFFFFF"/><path stroke="none" id="svg_49" d="m117.46 241.82c-0.03 0-0.09 0.01-0.18 0.05 -0.09 0.04-0.19 0.08-0.31 0.14 -0.11 0.05-0.22 0.1-0.32 0.16 -0.1 0.05-0.17 0.09-0.21 0.11 -0.04 0.03-0.07 0.05-0.09 0.08 -0.02 0.03-0.04 0.07-0.04 0.14l-0.07 0.56 -0.55-0.07 0.64-4.84c0.02-0.09 0.05-0.16 0.09-0.23 0.05-0.06 0.1-0.12 0.16-0.18 0.06-0.05 0.11-0.1 0.15-0.15 0.04-0.04 0.07-0.09 0.08-0.14 0.01-0.04-0.01-0.08-0.04-0.11 -0.03-0.04-0.07-0.05-0.14-0.06l-1.57-0.21c-0.07-0.01-0.12 0-0.15 0.02 -0.04 0.03-0.06 0.06-0.06 0.1 -0.01 0.05 0.01 0.1 0.04 0.15 0.03 0.06 0.07 0.11 0.11 0.18 0.04 0.06 0.08 0.14 0.11 0.22 0.03 0.07 0.04 0.15 0.03 0.24l-0.65 4.92c-0.01 0.09-0.04 0.16-0.09 0.23 -0.05 0.07-0.1 0.13-0.16 0.18 -0.06 0.05-0.11 0.1-0.16 0.14 -0.04 0.05-0.07 0.09-0.07 0.14 0 0.04 0.01 0.08 0.04 0.12 0.03 0.03 0.07 0.06 0.14 0.06l2.81 0.38c0.2 0.02 0.31-0.06 0.34-0.27l0.25-1.88c0.01-0.04 0-0.09-0.03-0.12 -0.03-0.04-0.06-0.06-0.1-0.07z" fill="#FFFFFF"/><path stroke="none" id="svg_50" d="m122.75 237.9l-1.57-0.13c-0.06 0-0.12 0-0.15 0.03 -0.04 0.03-0.05 0.06-0.06 0.1 0 0.05 0.01 0.1 0.05 0.15 0.04 0.06 0.07 0.12 0.12 0.18 0.05 0.07 0.09 0.13 0.12 0.21 0.03 0.07 0.04 0.15 0.04 0.25l-0.4 4.95c-0.01 0.09-0.03 0.17-0.08 0.24 -0.04 0.07-0.09 0.13-0.15 0.18 -0.05 0.06-0.1 0.11-0.14 0.15 -0.04 0.05-0.07 0.09-0.07 0.14 0 0.04 0.01 0.08 0.04 0.11s0.08 0.05 0.14 0.06l1.58 0.12c0.07 0.01 0.11 0 0.15-0.03 0.04-0.03 0.06-0.06 0.06-0.1 0.01-0.05-0.01-0.1-0.04-0.15 -0.04-0.06-0.07-0.11-0.12-0.17 -0.05-0.07-0.08-0.14-0.12-0.21 -0.03-0.08-0.05-0.16-0.04-0.25l0.4-4.95c0.01-0.09 0.03-0.17 0.08-0.24 0.04-0.07 0.09-0.13 0.15-0.19 0.05-0.05 0.1-0.1 0.14-0.15 0.04-0.05 0.07-0.1 0.07-0.14 0-0.04-0.01-0.08-0.04-0.11 -0.03-0.04-0.08-0.05-0.14-0.06z" fill="#FFFFFF"/><path stroke="none" id="svg_51" d="m128.06 239.99c0.03 0.05 0.06 0.09 0.11 0.12 0.03 0.03 0.09 0.06 0.16 0.12 0.07 0.05 0.15 0.1 0.23 0.15 0.08 0.06 0.17 0.1 0.25 0.14 0.08 0.04 0.15 0.06 0.2 0.06 0.05 0 0.09-0.02 0.14-0.07 0.04-0.04 0.07-0.11 0.07-0.2l0.04-1.39c0-0.09-0.02-0.18-0.05-0.27 -0.04-0.09-0.1-0.17-0.17-0.24 -0.07-0.07-0.17-0.13-0.27-0.17 -0.11-0.04-0.23-0.07-0.36-0.07l-1.5-0.04c-0.24-0.01-0.45 0.05-0.61 0.16 -0.17 0.11-0.26 0.28-0.26 0.51l-0.05 1.79c-0.01 0.2 0.04 0.35 0.13 0.47 0.09 0.11 0.2 0.22 0.33 0.31l1.45 1.07c0.11 0.07 0.16 0.17 0.16 0.28l-0.03 1.25 -0.93-0.02 0.02-0.85c0-0.11-0.01-0.2-0.04-0.25s-0.06-0.09-0.1-0.12c-0.03-0.02-0.09-0.06-0.16-0.11 -0.07-0.05-0.15-0.11-0.23-0.16 -0.08-0.05-0.16-0.1-0.24-0.13 -0.08-0.04-0.13-0.06-0.18-0.06 -0.07 0-0.12 0.02-0.17 0.07 -0.04 0.04-0.07 0.11-0.07 0.19l-0.04 1.64c0 0.18 0.07 0.36 0.23 0.52 0.16 0.16 0.37 0.24 0.64 0.24l1.59 0.04c0.11 0 0.21-0.01 0.31-0.05 0.1-0.04 0.19-0.09 0.28-0.16 0.09-0.07 0.15-0.14 0.2-0.23 0.05-0.09 0.08-0.18 0.08-0.27l0.05-1.85c0.01-0.19-0.03-0.34-0.1-0.45s-0.19-0.21-0.34-0.32l-1.47-1.07c-0.07-0.05-0.11-0.1-0.14-0.15 -0.02-0.04-0.03-0.09-0.03-0.16l0.03-1.1 0.83 0.02 -0.02 0.6c0 0.12 0.01 0.2 0.04 0.25z" fill="#FFFFFF"/><path stroke="none" id="svg_52" d="m137.04 244.34c-0.05-0.06-0.1-0.12-0.14-0.19 -0.04-0.07-0.06-0.15-0.07-0.24l-0.18-4.96c0-0.09 0.01-0.17 0.05-0.24 0.03-0.07 0.08-0.14 0.13-0.2 0.05-0.06 0.09-0.12 0.13-0.17 0.04-0.05 0.06-0.1 0.05-0.15 0-0.04-0.02-0.08-0.05-0.1 -0.03-0.03-0.08-0.04-0.15-0.04l-1.58 0.06c-0.07 0-0.12 0.02-0.15 0.05 -0.03 0.04-0.04 0.07-0.04 0.11 0 0.05 0.02 0.1 0.06 0.15 0.04 0.05 0.09 0.1 0.14 0.16 0.05 0.06 0.1 0.12 0.14 0.19 0.04 0.07 0.07 0.15 0.07 0.24l0.09 2.47 -1.39 0.72 -0.11-3.14c0-0.09 0.01-0.17 0.05-0.25 0.04-0.07 0.08-0.14 0.13-0.2 0.05-0.06 0.09-0.12 0.13-0.17 0.04-0.05 0.06-0.1 0.05-0.15 0-0.04-0.02-0.08-0.05-0.1 -0.03-0.03-0.08-0.04-0.15-0.04l-1.58 0.06c-0.06 0-0.11 0.02-0.14 0.05 -0.03 0.03-0.05 0.07-0.05 0.11 0 0.05 0.02 0.1 0.07 0.15 0.04 0.05 0.09 0.1 0.14 0.16 0.05 0.06 0.1 0.13 0.14 0.2 0.04 0.07 0.06 0.15 0.07 0.24l0.19 4.96c0 0.09-0.02 0.17-0.05 0.24 -0.04 0.07-0.08 0.14-0.13 0.21 -0.05 0.06-0.09 0.12-0.13 0.17s-0.05 0.1-0.05 0.15c0 0.04 0.02 0.08 0.05 0.11 0.04 0.03 0.08 0.04 0.15 0.04l1.58-0.06c0.07 0 0.12-0.02 0.15-0.05 0.03-0.03 0.05-0.07 0.05-0.11 0-0.05-0.02-0.1-0.07-0.15 -0.04-0.05-0.09-0.1-0.14-0.16 -0.05-0.06-0.1-0.12-0.14-0.19 -0.04-0.07-0.06-0.15-0.07-0.24l-0.02-0.52 1.39-0.72 0.05 1.19c0 0.09-0.02 0.17-0.05 0.25 -0.04 0.07-0.08 0.14-0.13 0.2 -0.05 0.06-0.09 0.12-0.13 0.17s-0.06 0.1-0.05 0.15c0 0.04 0.02 0.08 0.06 0.11 0.03 0.03 0.08 0.04 0.15 0.04l1.59-0.06c0.06 0 0.11-0.02 0.15-0.05 0.03-0.03 0.05-0.07 0.04-0.11 0-0.05-0.02-0.1-0.07-0.14 -0.04-0.05-0.09-0.1-0.14-0.16z" fill="#FFFFFF"/><path stroke="none" id="svg_53" d="m143.87 241.87c-0.04-0.02-0.07-0.04-0.11-0.04 -0.03 0-0.08 0.04-0.17 0.1 -0.08 0.06-0.17 0.13-0.27 0.21 -0.1 0.07-0.19 0.15-0.28 0.23 -0.08 0.08-0.14 0.13-0.18 0.15 -0.04 0.03-0.06 0.07-0.07 0.1 -0.02 0.03-0.02 0.08-0.01 0.15l0.06 0.56 -0.74 0.08c-0.08 0.01-0.12-0.02-0.12-0.1l-0.1-1 0.96-0.76c0.06-0.05 0.1-0.1 0.12-0.14 0.02-0.04 0.03-0.1 0.02-0.18l-0.08-0.82c-0.01-0.05-0.03-0.09-0.06-0.12 -0.03-0.03-0.08-0.05-0.13-0.05 -0.06 0.01-0.14 0.05-0.22 0.12l-0.74 0.58 -0.22-2.19c0-0.03 0-0.05 0.03-0.08 0.02-0.02 0.05-0.04 0.08-0.04l0.73-0.07 0.1 0.98c0 0.05 0.03 0.09 0.06 0.11 0.04 0.03 0.07 0.04 0.11 0.04 0.02 0 0.08-0.04 0.16-0.1 0.08-0.06 0.18-0.13 0.28-0.2 0.1-0.07 0.19-0.15 0.27-0.22 0.09-0.07 0.15-0.12 0.18-0.16 0.03-0.03 0.06-0.07 0.07-0.1 0.01-0.03 0.02-0.08 0.01-0.14l-0.1-1.02c-0.02-0.2-0.13-0.3-0.34-0.28l-3.12 0.32c-0.07 0.01-0.11 0.03-0.15 0.06 -0.03 0.03-0.04 0.07-0.04 0.11 0 0.05 0.03 0.09 0.07 0.14 0.05 0.05 0.1 0.1 0.15 0.15 0.06 0.06 0.11 0.11 0.16 0.18 0.05 0.06 0.07 0.14 0.08 0.23l0.51 4.94c0.01 0.09 0 0.17-0.03 0.25 -0.03 0.08-0.07 0.15-0.11 0.21 -0.05 0.06-0.08 0.12-0.12 0.18 -0.03 0.06-0.05 0.11-0.04 0.16 0 0.04 0.02 0.07 0.06 0.1 0.03 0.03 0.09 0.04 0.15 0.03l3.12-0.33c0.2-0.02 0.29-0.13 0.27-0.33l-0.19-1.88c-0.01-0.05-0.03-0.09-0.06-0.12z" fill="#FFFFFF"/><path stroke="none" id="svg_54" d="m150.01 236.68c-0.18-0.11-0.44-0.15-0.77-0.09l-2.56 0.43c-0.07 0.01-0.11 0.03-0.14 0.07 -0.03 0.04-0.04 0.07-0.03 0.12 0.01 0.05 0.04 0.09 0.08 0.14 0.05 0.05 0.1 0.09 0.16 0.14 0.06 0.05 0.12 0.11 0.17 0.17 0.05 0.06 0.08 0.14 0.1 0.23l0.81 4.9c0.01 0.09 0.01 0.17-0.02 0.25 -0.02 0.08-0.06 0.15-0.1 0.22 -0.04 0.06-0.07 0.13-0.1 0.18 -0.03 0.06-0.04 0.11-0.03 0.16 0.01 0.04 0.03 0.07 0.07 0.1 0.04 0.03 0.09 0.03 0.15 0.02l2.68-0.45c0.24-0.04 0.44-0.13 0.57-0.28 0.14-0.14 0.19-0.33 0.15-0.55l-0.86-5.16c-0.04-0.28-0.16-0.47-0.34-0.59zm-0.07 5.64c-0.01 0.02-0.04 0.03-0.09 0.04l-0.84 0.14 -0.79-4.74 0.84-0.14c0.08-0.01 0.13 0.02 0.14 0.1l0.75 4.49c0.01 0.05 0.01 0.09-0.01 0.11z" fill="#FFFFFF"/><path stroke="none" id="svg_55" d="m162.43 239.01c-0.03 0.01-0.07 0.04-0.12 0.11 -0.04 0.06-0.1 0.13-0.15 0.21 -0.05 0.07-0.11 0.14-0.17 0.21 -0.05 0.07-0.11 0.1-0.15 0.12l-1.14 0.32c-0.06 0.02-0.09 0-0.11-0.05l-0.07-0.27c-0.01-0.04 0.02-0.14 0.08-0.3 0.06-0.16 0.14-0.36 0.25-0.59 0.1-0.22 0.21-0.47 0.33-0.73 0.12-0.26 0.23-0.5 0.33-0.73 0.1-0.23 0.18-0.43 0.24-0.6 0.06-0.17 0.09-0.28 0.07-0.32l-0.52-1.89c-0.06-0.2-0.17-0.34-0.35-0.41 -0.18-0.08-0.4-0.08-0.66-0.01l-1.53 0.42c-0.13 0.04-0.25 0.09-0.34 0.16 -0.1 0.07-0.17 0.15-0.23 0.23 -0.05 0.09-0.09 0.18-0.11 0.27 -0.01 0.09-0.01 0.18 0.01 0.27l0.51 1.83c0.01 0.06 0.04 0.09 0.08 0.12 0.04 0.02 0.08 0.03 0.11 0.02 0.04-0.01 0.09-0.05 0.16-0.12 0.07-0.07 0.15-0.15 0.23-0.24 0.08-0.09 0.15-0.17 0.22-0.26 0.07-0.08 0.11-0.14 0.14-0.17 0.07-0.07 0.09-0.15 0.07-0.22l-0.25-0.93c-0.02-0.06 0-0.1 0.06-0.12l0.72-0.19c0.06-0.02 0.09 0 0.11 0.05l0.36 1.32c0.01 0.04-0.01 0.14-0.08 0.31 -0.06 0.16-0.15 0.36-0.25 0.58 -0.1 0.23-0.21 0.46-0.34 0.72 -0.12 0.25-0.23 0.49-0.33 0.72 -0.11 0.23-0.18 0.42-0.25 0.58 -0.06 0.17-0.09 0.27-0.08 0.31l0.31 1.13c0.05 0.17 0.12 0.26 0.21 0.29 0.09 0.03 0.22 0.03 0.39-0.02l2.52-0.69c0.07-0.02 0.12-0.06 0.15-0.11 0.03-0.06 0.04-0.11 0.02-0.18l-0.28-1.03c-0.03-0.09-0.09-0.13-0.17-0.1z" fill="#FFFFFF"/><path stroke="none" id="svg_56" d="m167.6 232.5c-0.03-0.09-0.08-0.17-0.15-0.24 -0.07-0.07-0.15-0.12-0.25-0.16 -0.09-0.04-0.2-0.06-0.32-0.07 -0.12 0-0.24 0.02-0.36 0.06l-1.68 0.57c-0.23 0.07-0.4 0.2-0.52 0.36 -0.12 0.16-0.14 0.35-0.07 0.57l1.74 5.1c0.08 0.22 0.21 0.35 0.4 0.41 0.19 0.06 0.4 0.05 0.63-0.03l1.67-0.57c0.13-0.04 0.24-0.1 0.34-0.18 0.09-0.07 0.16-0.16 0.21-0.25 0.05-0.1 0.08-0.19 0.09-0.28 0.01-0.1 0-0.19-0.03-0.27l-1.71-5.01zm0.41 5.2l-0.87 0.3c-0.06 0.02-0.09 0-0.11-0.06l-1.5-4.37c-0.02-0.05 0-0.09 0.05-0.11l0.88-0.3c0.06-0.02 0.09 0 0.12 0.06l1.49 4.38c0.02 0.06 0 0.1-0.06 0.12z" fill="#FFFFFF"/><path stroke="none" id="svg_57" d="m173.81 230.05c-0.03-0.08-0.09-0.16-0.16-0.22 -0.07-0.07-0.16-0.12-0.25-0.15 -0.1-0.03-0.21-0.05-0.32-0.05s-0.24 0.03-0.36 0.08l-1.63 0.68c-0.22 0.09-0.39 0.22-0.49 0.39 -0.11 0.17-0.12 0.36-0.03 0.57l2.05 4.99c0.08 0.21 0.23 0.34 0.42 0.39 0.2 0.04 0.41 0.02 0.63-0.07l1.63-0.67c0.13-0.05 0.24-0.12 0.32-0.2 0.09-0.08 0.15-0.17 0.19-0.26 0.04-0.09 0.07-0.19 0.07-0.28 0.01-0.1-0.01-0.19-0.04-0.27l-2.02-4.9zm0.73 5.17l-0.85 0.35c-0.05 0.02-0.09 0.01-0.11-0.05l-1.76-4.27c-0.02-0.05-0.01-0.09 0.05-0.11l0.85-0.35c0.05-0.02 0.09-0.01 0.11 0.05l1.76 4.27c0.02 0.05 0.01 0.09-0.05 0.12z" fill="#FFFFFF"/><path stroke="none" id="svg_58" d="m179.75 227.27c-0.04-0.08-0.1-0.15-0.17-0.21 -0.08-0.06-0.17-0.11-0.27-0.14 -0.1-0.03-0.21-0.04-0.33-0.03 -0.11 0.01-0.24 0.05-0.35 0.1l-1.51 0.73c-0.21 0.1-0.37 0.24-0.47 0.42 -0.1 0.18-0.1 0.37 0 0.58l1.17 2.42c0.11 0.22 0.26 0.35 0.46 0.39 0.2 0.04 0.4 0 0.63-0.1l1.17-0.57c0.04-0.02 0.07-0.01 0.08 0.03l0.65 1.34c0.02 0.03 0.01 0.06-0.03 0.07l-0.8 0.39c-0.03 0.02-0.05 0.01-0.07-0.02l-0.17-0.35c-0.05-0.1-0.1-0.16-0.14-0.18 -0.04-0.02-0.09-0.03-0.13-0.04 -0.04 0-0.11-0.01-0.21-0.02 -0.1-0.02-0.19-0.02-0.29-0.03 -0.1-0.01-0.19-0.01-0.28-0.01 -0.09 0-0.16 0.01-0.19 0.03 -0.11 0.06-0.14 0.15-0.07 0.29l0.57 1.17c0.04 0.08 0.1 0.15 0.17 0.21 0.08 0.06 0.16 0.11 0.27 0.14 0.1 0.03 0.21 0.04 0.32 0.03s0.24-0.04 0.36-0.1l1.5-0.73c0.21-0.1 0.36-0.24 0.47-0.41 0.1-0.18 0.1-0.37 0-0.58l-2.33-4.82zm-0.15 2.6l-0.81 0.39c-0.03 0.01-0.05 0.01-0.07-0.02l-0.83-1.72c-0.02-0.04-0.01-0.06 0.02-0.08l0.81-0.39c0.04-0.02 0.06-0.01 0.09 0.03l0.83 1.71c0.02 0.03 0.01 0.06-0.03 0.08z" fill="#FFFFFF"/><path stroke="none" id="svg_59" d="m75.09 226.25c0.83 0 1.5 0.67 1.5 1.49 0 0.83-0.67 1.5-1.5 1.5 -0.82 0-1.49-0.67-1.49-1.5 0-0.82 0.67-1.49 1.49-1.49z" fill="#FFFFFF"/><path stroke="none" id="svg_60" d="m186.87 226.25c0.83 0 1.5 0.67 1.5 1.49 0 0.83-0.67 1.5-1.49 1.5 -0.83 0-1.5-0.67-1.5-1.5 0-0.82 0.67-1.49 1.5-1.49z" fill="#FFFFFF"/></g></g></g></svg>