<svg width="27" height="50" viewBox="0 0 27 50" fill="none" xmlns="http://www.w3.org/2000/svg">
<path d="M4.88 47V39.88H7.74C8.46 39.88 9.02333 40.0433 9.43 40.37C9.83667 40.69 10.04 41.1467 10.04 41.74C10.04 42.1533 9.92667 42.5033 9.7 42.79C9.48 43.07 9.17333 43.27 8.78 43.39V43.31C9.22667 43.3967 9.57667 43.5933 9.83 43.9C10.0833 44.2067 10.21 44.5933 10.21 45.06C10.21 45.6867 10.0033 46.1667 9.59 46.5C9.17667 46.8333 8.59333 47 7.84 47H4.88ZM5.69 46.32H7.77C8.33 46.32 8.74 46.2167 9 46.01C9.26667 45.8033 9.4 45.48 9.4 45.04C9.4 44.6067 9.26667 44.28 9 44.06C8.73333 43.84 8.32333 43.73 7.77 43.73H5.69V46.32ZM5.69 43.04H7.61C8.15 43.04 8.55333 42.9333 8.82 42.72C9.09333 42.5067 9.23 42.1933 9.23 41.78C9.23 41.3733 9.09667 41.07 8.83 40.87C8.56333 40.6633 8.15667 40.56 7.61 40.56H5.69V43.04ZM11.5866 47V41.97H12.3966V47H11.5866ZM11.5066 39.84H12.4966V40.76H11.5066V39.84ZM13.9695 47V39.64H14.7795V47H13.9695ZM16.3523 47V39.64H17.1623V47H16.3523ZM20.4351 47.07C19.5884 47.07 18.9184 46.8533 18.4251 46.42L18.6951 45.82C18.9617 46.0267 19.2351 46.18 19.5151 46.28C19.8017 46.3733 20.1184 46.42 20.4651 46.42C20.8451 46.42 21.1317 46.3567 21.3251 46.23C21.5251 46.0967 21.6251 45.9067 21.6251 45.66C21.6251 45.46 21.5584 45.3033 21.4251 45.19C21.2917 45.07 21.0717 44.9733 20.7651 44.9L19.9151 44.7C19.4951 44.6067 19.1684 44.44 18.9351 44.2C18.7084 43.96 18.5951 43.6733 18.5951 43.34C18.5951 43.0467 18.6751 42.79 18.8351 42.57C18.9951 42.3433 19.2184 42.1667 19.5051 42.04C19.7917 41.9133 20.1317 41.85 20.5251 41.85C20.8784 41.85 21.2117 41.9067 21.5251 42.02C21.8384 42.1333 22.1017 42.2967 22.3151 42.51L22.0451 43.1C21.8051 42.9 21.5584 42.7533 21.3051 42.66C21.0584 42.56 20.7984 42.51 20.5251 42.51C20.1651 42.51 19.8851 42.58 19.6851 42.72C19.4917 42.86 19.3951 43.05 19.3951 43.29C19.3951 43.4967 19.4551 43.66 19.5751 43.78C19.7017 43.9 19.9017 43.9933 20.1751 44.06L21.0251 44.27C21.4984 44.37 21.8451 44.5367 22.0651 44.77C22.2917 44.9967 22.4051 45.2867 22.4051 45.64C22.4051 46.0733 22.2284 46.42 21.8751 46.68C21.5217 46.94 21.0417 47.07 20.4351 47.07Z" fill="#898989"/>
<rect x="0.5" y="0.5" width="25.3077" height="33.2001" rx="1.5" stroke="#898989"/>
<rect x="2.63086" y="2.63083" width="21.0462" height="5.26155" rx="1" fill="#898989"/>
<rect x="2.63086" y="10.523" width="21.0462" height="1.31539" rx="0.657693" fill="#898989"/>
<rect x="2.63086" y="14.4693" width="21.0462" height="1.31539" rx="0.657693" fill="#898989"/>
<rect x="2.63086" y="21.0462" width="10.5231" height="1.31539" rx="0.657693" fill="#898989"/>
<rect x="2.63086" y="24.9923" width="10.5231" height="1.31539" rx="0.657693" fill="#898989"/>
<path d="M21.5727 25.13C21.5727 25.67 21.3827 26.1233 21.0027 26.49C20.6227 26.85 20.1193 27.07 19.4927 27.15V28.26H18.6527V27.17C17.7193 27.11 16.9593 26.82 16.3727 26.3L16.7427 25.53C17.056 25.7833 17.3693 25.9733 17.6827 26.1C17.996 26.2266 18.336 26.3033 18.7027 26.33V24C18.2427 23.88 17.8593 23.7533 17.5527 23.62C17.2527 23.4866 16.9993 23.29 16.7927 23.03C16.5927 22.7633 16.4927 22.4166 16.4927 21.99C16.4927 21.63 16.5827 21.3033 16.7627 21.01C16.9493 20.71 17.206 20.4666 17.5327 20.28C17.8593 20.0866 18.2327 19.9666 18.6527 19.92V18.82H19.4927V19.92C19.886 19.9666 20.2527 20.0633 20.5927 20.21C20.9393 20.3566 21.2327 20.5433 21.4727 20.77L21.1027 21.54C20.6093 21.1 20.0593 20.8433 19.4527 20.77V23.23C19.8927 23.3366 20.256 23.4566 20.5427 23.59C20.836 23.7166 21.0793 23.9033 21.2727 24.15C21.4727 24.3966 21.5727 24.7233 21.5727 25.13ZM17.5327 21.94C17.5327 22.2333 17.6327 22.4633 17.8327 22.63C18.0393 22.79 18.3293 22.9233 18.7027 23.03V20.76C18.336 20.8133 18.0493 20.9433 17.8427 21.15C17.636 21.3566 17.5327 21.62 17.5327 21.94ZM19.4527 26.3C19.7993 26.24 20.066 26.1133 20.2527 25.92C20.4393 25.72 20.5327 25.4666 20.5327 25.16C20.5327 24.9133 20.4393 24.7166 20.2527 24.57C20.0727 24.4233 19.806 24.2966 19.4527 24.19V26.3Z" fill="#898989"/>
</svg>
