<svg width="37" height="50" viewBox="0 0 37 50" fill="none" xmlns="http://www.w3.org/2000/svg">
<path d="M0.77 39.88H3.39C4.55667 39.88 5.46 40.19 6.1 40.81C6.74667 41.43 7.07 42.3033 7.07 43.43C7.07 44.5633 6.74667 45.4433 6.1 46.07C5.46 46.69 4.55667 47 3.39 47H0.77V39.88ZM3.31 45.95C4.95 45.95 5.77 45.11 5.77 43.43C5.77 41.7633 4.95 40.93 3.31 40.93H2.06V45.95H3.31ZM12.7172 44.54H9.23719C9.26385 45.08 9.39719 45.48 9.63719 45.74C9.88385 45.9933 10.2472 46.12 10.7272 46.12C11.2805 46.12 11.7939 45.94 12.2672 45.58L12.6272 46.44C12.3872 46.6333 12.0905 46.79 11.7372 46.91C11.3905 47.0233 11.0372 47.08 10.6772 47.08C9.85052 47.08 9.20052 46.8467 8.72719 46.38C8.25385 45.9133 8.01719 45.2733 8.01719 44.46C8.01719 43.9467 8.12052 43.49 8.32719 43.09C8.53385 42.69 8.82385 42.38 9.19719 42.16C9.57052 41.9333 9.99385 41.82 10.4672 41.82C11.1605 41.82 11.7072 42.0467 12.1072 42.5C12.5139 42.9467 12.7172 43.5633 12.7172 44.35V44.54ZM10.4972 42.72C10.1639 42.72 9.89052 42.82 9.67719 43.02C9.47052 43.2133 9.33719 43.4967 9.27719 43.87H11.6272C11.5872 43.49 11.4705 43.2033 11.2772 43.01C11.0905 42.8167 10.8305 42.72 10.4972 42.72ZM18.4678 41.96L16.2578 47H15.1678L12.9878 41.96H14.2978L15.7478 45.58L17.2278 41.96H18.4678ZM19.1175 41.95H20.3575V47H19.1175V41.95ZM20.4275 39.66V40.89H19.0375V39.66H20.4275ZM24.0149 47.08C23.4883 47.08 23.0316 46.9733 22.6449 46.76C22.2583 46.5467 21.9616 46.2467 21.7549 45.86C21.5483 45.4667 21.4449 45.0067 21.4449 44.48C21.4449 43.9533 21.5516 43.49 21.7649 43.09C21.9849 42.69 22.2916 42.38 22.6849 42.16C23.0849 41.9333 23.5449 41.82 24.0649 41.82C24.4249 41.82 24.7716 41.8767 25.1049 41.99C25.4449 42.1033 25.7149 42.26 25.9149 42.46L25.5649 43.34C25.3516 43.1667 25.1249 43.0367 24.8849 42.95C24.6449 42.8567 24.4083 42.81 24.1749 42.81C23.7216 42.81 23.3683 42.9533 23.1149 43.24C22.8616 43.52 22.7349 43.9267 22.7349 44.46C22.7349 44.9933 22.8583 45.4 23.1049 45.68C23.3583 45.96 23.7149 46.1 24.1749 46.1C24.4083 46.1 24.6449 46.0533 24.8849 45.96C25.1249 45.8667 25.3516 45.7333 25.5649 45.56L25.9149 46.44C25.7016 46.64 25.4249 46.7967 25.0849 46.91C24.7449 47.0233 24.3883 47.08 24.0149 47.08ZM31.1742 44.54H27.6942C27.7209 45.08 27.8542 45.48 28.0942 45.74C28.3409 45.9933 28.7042 46.12 29.1842 46.12C29.7376 46.12 30.2509 45.94 30.7242 45.58L31.0842 46.44C30.8442 46.6333 30.5476 46.79 30.1942 46.91C29.8476 47.0233 29.4942 47.08 29.1342 47.08C28.3076 47.08 27.6576 46.8467 27.1842 46.38C26.7109 45.9133 26.4742 45.2733 26.4742 44.46C26.4742 43.9467 26.5776 43.49 26.7842 43.09C26.9909 42.69 27.2809 42.38 27.6542 42.16C28.0276 41.9333 28.4509 41.82 28.9242 41.82C29.6176 41.82 30.1642 42.0467 30.5642 42.5C30.9709 42.9467 31.1742 43.5633 31.1742 44.35V44.54ZM28.9542 42.72C28.6209 42.72 28.3476 42.82 28.1342 43.02C27.9276 43.2133 27.7942 43.4967 27.7342 43.87H30.0842C30.0442 43.49 29.9276 43.2033 29.7342 43.01C29.5476 42.8167 29.2876 42.72 28.9542 42.72ZM34.0827 47.08C33.1694 47.08 32.4427 46.8667 31.9027 46.44L32.2527 45.56C32.7927 45.96 33.4094 46.16 34.1027 46.16C34.4027 46.16 34.6327 46.11 34.7927 46.01C34.9594 45.91 35.0427 45.77 35.0427 45.59C35.0427 45.4367 34.9861 45.3167 34.8727 45.23C34.7594 45.1367 34.5661 45.0567 34.2927 44.99L33.4527 44.8C32.5327 44.6 32.0727 44.13 32.0727 43.39C32.0727 43.0833 32.1594 42.8133 32.3327 42.58C32.5061 42.34 32.7494 42.1533 33.0627 42.02C33.3761 41.8867 33.7394 41.82 34.1527 41.82C34.5127 41.82 34.8594 41.8767 35.1927 41.99C35.5261 42.0967 35.8194 42.2533 36.0727 42.46L35.7027 43.31C35.1961 42.9367 34.6761 42.75 34.1427 42.75C33.8561 42.75 33.6327 42.8033 33.4727 42.91C33.3127 43.0167 33.2327 43.1633 33.2327 43.35C33.2327 43.4967 33.2794 43.6133 33.3727 43.7C33.4727 43.7867 33.6394 43.86 33.8727 43.92L34.7327 44.11C35.2327 44.2233 35.5961 44.4 35.8227 44.64C36.0561 44.8733 36.1727 45.18 36.1727 45.56C36.1727 46.0267 35.9861 46.3967 35.6127 46.67C35.2394 46.9433 34.7294 47.08 34.0827 47.08Z" fill="#0D82C4"/>
<rect x="8.5" y="0.5" width="19" height="33" rx="3.5" stroke="#0D82C4"/>
<rect x="8.5" y="4.5" width="19" height="25" stroke="#0D82C4"/>
</svg>
