<svg width="36" height="50" viewBox="0 0 36 50" fill="none" xmlns="http://www.w3.org/2000/svg">
<path d="M0.88 47V39.88H3.27C4.03 39.88 4.67667 40.02 5.21 40.3C5.74333 40.5733 6.15 40.9767 6.43 41.51C6.71 42.0367 6.85 42.6767 6.85 43.43C6.85 44.19 6.70667 44.8367 6.42 45.37C6.14 45.8967 5.73333 46.3 5.2 46.58C4.66667 46.86 4.02333 47 3.27 47H0.88ZM1.7 46.3H3.22C4.14 46.3 4.83 46.06 5.29 45.58C5.75667 45.1 5.99 44.3833 5.99 43.43C5.99 41.53 5.06667 40.58 3.22 40.58H1.7V46.3ZM12.3609 46.4C12.1409 46.6067 11.8576 46.77 11.5109 46.89C11.1709 47.01 10.8209 47.07 10.4609 47.07C9.94094 47.07 9.49094 46.9667 9.11094 46.76C8.7376 46.5533 8.4476 46.2567 8.24094 45.87C8.04094 45.4767 7.94094 45.01 7.94094 44.47C7.94094 43.95 8.04094 43.4933 8.24094 43.1C8.44094 42.7067 8.7176 42.4 9.07094 42.18C9.43094 41.96 9.84427 41.85 10.3109 41.85C10.7576 41.85 11.1409 41.95 11.4609 42.15C11.7809 42.3433 12.0243 42.6233 12.1909 42.99C12.3643 43.3567 12.4509 43.7967 12.4509 44.31V44.46H8.65094V43.93H11.9909L11.7309 44.3C11.7443 43.7133 11.6276 43.2633 11.3809 42.95C11.1409 42.6367 10.7876 42.48 10.3209 42.48C9.83427 42.48 9.45094 42.6533 9.17094 43C8.8976 43.34 8.76094 43.8133 8.76094 44.42C8.76094 45.0733 8.90427 45.5667 9.19094 45.9C9.48427 46.2333 9.91094 46.4 10.4709 46.4C10.7643 46.4 11.0443 46.3533 11.3109 46.26C11.5843 46.16 11.8443 46.01 12.0909 45.81L12.3609 46.4ZM15.1018 47L12.9618 41.98H13.8118L15.6318 46.41H15.3918L17.2318 41.98H18.0418L15.8718 47H15.1018ZM18.9343 47V41.97H19.7443V47H18.9343ZM18.8543 39.84H19.8443V40.76H18.8543V39.84ZM23.4271 47.07C22.9338 47.07 22.5071 46.9633 22.1471 46.75C21.7871 46.5367 21.5071 46.2367 21.3071 45.85C21.1138 45.4633 21.0171 45.0067 21.0171 44.48C21.0171 43.96 21.1171 43.5033 21.3171 43.11C21.5171 42.71 21.8004 42.4 22.1671 42.18C22.5338 41.96 22.9671 41.85 23.4671 41.85C23.8071 41.85 24.1338 41.91 24.4471 42.03C24.7671 42.1433 25.0304 42.3033 25.2371 42.51L24.9671 43.11C24.7204 42.9167 24.4771 42.7733 24.2371 42.68C24.0038 42.58 23.7604 42.53 23.5071 42.53C23.0004 42.53 22.5971 42.7 22.2971 43.04C22.0038 43.38 21.8571 43.86 21.8571 44.48C21.8571 45.0933 22.0038 45.5667 22.2971 45.9C22.5904 46.2333 22.9938 46.4 23.5071 46.4C23.7538 46.4 23.9971 46.3533 24.2371 46.26C24.4771 46.16 24.7204 46.0133 24.9671 45.82L25.2371 46.42C25.0238 46.62 24.7538 46.78 24.4271 46.9C24.1071 47.0133 23.7738 47.07 23.4271 47.07ZM30.3883 46.4C30.1683 46.6067 29.8849 46.77 29.5383 46.89C29.1983 47.01 28.8483 47.07 28.4883 47.07C27.9683 47.07 27.5183 46.9667 27.1383 46.76C26.7649 46.5533 26.4749 46.2567 26.2683 45.87C26.0683 45.4767 25.9683 45.01 25.9683 44.47C25.9683 43.95 26.0683 43.4933 26.2683 43.1C26.4683 42.7067 26.7449 42.4 27.0983 42.18C27.4583 41.96 27.8716 41.85 28.3383 41.85C28.7849 41.85 29.1683 41.95 29.4883 42.15C29.8083 42.3433 30.0516 42.6233 30.2183 42.99C30.3916 43.3567 30.4783 43.7967 30.4783 44.31V44.46H26.6783V43.93H30.0183L29.7583 44.3C29.7716 43.7133 29.6549 43.2633 29.4083 42.95C29.1683 42.6367 28.8149 42.48 28.3483 42.48C27.8616 42.48 27.4783 42.6533 27.1983 43C26.9249 43.34 26.7883 43.8133 26.7883 44.42C26.7883 45.0733 26.9316 45.5667 27.2183 45.9C27.5116 46.2333 27.9383 46.4 28.4983 46.4C28.7916 46.4 29.0716 46.3533 29.3383 46.26C29.6116 46.16 29.8716 46.01 30.1183 45.81L30.3883 46.4ZM33.4077 47.07C32.5611 47.07 31.8911 46.8533 31.3977 46.42L31.6677 45.82C31.9344 46.0267 32.2077 46.18 32.4877 46.28C32.7744 46.3733 33.0911 46.42 33.4377 46.42C33.8177 46.42 34.1044 46.3567 34.2977 46.23C34.4977 46.0967 34.5977 45.9067 34.5977 45.66C34.5977 45.46 34.5311 45.3033 34.3977 45.19C34.2644 45.07 34.0444 44.9733 33.7377 44.9L32.8877 44.7C32.4677 44.6067 32.1411 44.44 31.9077 44.2C31.6811 43.96 31.5677 43.6733 31.5677 43.34C31.5677 43.0467 31.6477 42.79 31.8077 42.57C31.9677 42.3433 32.1911 42.1667 32.4777 42.04C32.7644 41.9133 33.1044 41.85 33.4977 41.85C33.8511 41.85 34.1844 41.9067 34.4977 42.02C34.8111 42.1333 35.0744 42.2967 35.2877 42.51L35.0177 43.1C34.7777 42.9 34.5311 42.7533 34.2777 42.66C34.0311 42.56 33.7711 42.51 33.4977 42.51C33.1377 42.51 32.8577 42.58 32.6577 42.72C32.4644 42.86 32.3677 43.05 32.3677 43.29C32.3677 43.4967 32.4277 43.66 32.5477 43.78C32.6744 43.9 32.8744 43.9933 33.1477 44.06L33.9977 44.27C34.4711 44.37 34.8177 44.5367 35.0377 44.77C35.2644 44.9967 35.3777 45.2867 35.3777 45.64C35.3777 46.0733 35.2011 46.42 34.8477 46.68C34.4944 46.94 34.0144 47.07 33.4077 47.07Z" fill="#898989"/>
<rect x="8.5" y="0.5" width="19" height="33" rx="3.5" stroke="#898989"/>
<rect x="8.5" y="4.5" width="19" height="25" stroke="#898989"/>
</svg>
