<svg width="34" height="50" viewBox="0 0 34 50" fill="none" xmlns="http://www.w3.org/2000/svg">
<path d="M11.96 47V39.88H12.78V47H11.96ZM6.88 47V39.88H7.69V47H6.88ZM7.26 43.73V43.04H12.42V43.73H7.26ZM18.5563 46.4C18.3363 46.6067 18.0529 46.77 17.7063 46.89C17.3663 47.01 17.0163 47.07 16.6563 47.07C16.1363 47.07 15.6863 46.9667 15.3063 46.76C14.9329 46.5533 14.6429 46.2567 14.4363 45.87C14.2363 45.4767 14.1363 45.01 14.1363 44.47C14.1363 43.95 14.2363 43.4933 14.4363 43.1C14.6363 42.7067 14.9129 42.4 15.2663 42.18C15.6263 41.96 16.0396 41.85 16.5063 41.85C16.9529 41.85 17.3363 41.95 17.6563 42.15C17.9763 42.3433 18.2196 42.6233 18.3863 42.99C18.5596 43.3567 18.6463 43.7967 18.6463 44.31V44.46H14.8463V43.93H18.1863L17.9263 44.3C17.9396 43.7133 17.8229 43.2633 17.5763 42.95C17.3363 42.6367 16.9829 42.48 16.5163 42.48C16.0296 42.48 15.6463 42.6533 15.3663 43C15.0929 43.34 14.9563 43.8133 14.9563 44.42C14.9563 45.0733 15.0996 45.5667 15.3863 45.9C15.6796 46.2333 16.1063 46.4 16.6663 46.4C16.9596 46.4 17.2396 46.3533 17.5063 46.26C17.7796 46.16 18.0396 46.01 18.2863 45.81L18.5563 46.4ZM19.8757 47V39.64H20.6857V47H19.8757ZM22.2585 49.16V43.38C22.2585 43.1467 22.2518 42.9133 22.2385 42.68C22.2318 42.44 22.2118 42.2033 22.1785 41.97H22.9485L23.0385 43.01L22.9585 43.16C23.0718 42.74 23.2885 42.4167 23.6085 42.19C23.9285 41.9633 24.3152 41.85 24.7685 41.85C25.2085 41.85 25.5952 41.96 25.9285 42.18C26.2685 42.4 26.5318 42.7067 26.7185 43.1C26.9118 43.4933 27.0085 43.9533 27.0085 44.48C27.0085 45.0067 26.9118 45.4667 26.7185 45.86C26.5318 46.2467 26.2718 46.5467 25.9385 46.76C25.6052 46.9667 25.2152 47.07 24.7685 47.07C24.3152 47.07 23.9285 46.9567 23.6085 46.73C23.2885 46.5033 23.0718 46.18 22.9585 45.76L23.0685 45.66V49.16H22.2585ZM24.6185 46.4C25.1052 46.4 25.4852 46.2333 25.7585 45.9C26.0318 45.5667 26.1685 45.0933 26.1685 44.48C26.1685 43.8667 26.0318 43.39 25.7585 43.05C25.4852 42.7033 25.1052 42.53 24.6185 42.53C24.1185 42.53 23.7352 42.6967 23.4685 43.03C23.2018 43.3633 23.0685 43.84 23.0685 44.46C23.0685 45.08 23.2018 45.56 23.4685 45.9C23.7352 46.2333 24.1185 46.4 24.6185 46.4Z" fill="#898989"/>
<circle cx="17" cy="17" r="16.5" stroke="#898989"/>
<path d="M13.501 14.7598H15.4214C15.4307 13.6187 16.0894 12.7373 17.416 12.7373C18.4087 12.7373 19.3364 13.2383 19.3364 14.4443C19.3364 15.3721 18.7891 15.7988 17.917 16.4482C16.9429 17.1626 16.1543 17.9976 16.21 19.3521L16.2192 20.0293H18.1396V19.5098C18.1396 18.4614 18.5386 18.1553 19.6147 17.3389C20.4961 16.6616 21.4331 15.9102 21.4331 14.333C21.4331 12.125 19.5591 11.0581 17.5181 11.0581C15.5884 11.0581 13.4546 12.0044 13.501 14.7598ZM15.9688 22.9888C15.9688 23.6753 16.5254 24.1855 17.2212 24.1855C17.9077 24.1855 18.4644 23.6753 18.4644 22.9888C18.4644 22.3022 17.9077 21.8013 17.2212 21.8013C16.5254 21.8013 15.9688 22.3022 15.9688 22.9888Z" fill="#898989"/>
</svg>
