<svg width="87" height="34" viewBox="0 0 87 34" fill="none" xmlns="http://www.w3.org/2000/svg">
<path d="M62.992 11.608V23H61.344V17.896H54.96V23H53.328V11.608H54.96V16.536H61.344V11.608H62.992ZM72.3765 19H66.6165C66.6698 20.888 67.5285 21.832 69.1925 21.832C70.1205 21.832 70.9685 21.528 71.7365 20.92L72.2325 22.072C71.8698 22.392 71.4058 22.648 70.8405 22.84C70.2858 23.0213 69.7258 23.112 69.1605 23.112C67.8698 23.112 66.8565 22.744 66.1205 22.008C65.3845 21.2613 65.0165 20.2427 65.0165 18.952C65.0165 18.1307 65.1765 17.4 65.4965 16.76C65.8272 16.12 66.2858 15.624 66.8725 15.272C67.4592 14.92 68.1258 14.744 68.8725 14.744C69.9605 14.744 70.8138 15.096 71.4325 15.8C72.0618 16.504 72.3765 17.48 72.3765 18.728V19ZM68.9045 15.944C68.2965 15.944 67.8005 16.1253 67.4165 16.488C67.0325 16.8507 66.7872 17.368 66.6805 18.04H70.9525C70.8885 17.3573 70.6805 16.84 70.3285 16.488C69.9765 16.1253 69.5018 15.944 68.9045 15.944ZM74.2309 11.224H75.8309V23H74.2309V11.224ZM82.4716 14.744C83.165 14.744 83.7836 14.92 84.3276 15.272C84.8716 15.624 85.293 16.12 85.5916 16.76C85.901 17.4 86.0556 18.136 86.0556 18.968C86.0556 19.8 85.9063 20.5307 85.6076 21.16C85.309 21.7787 84.8876 22.2587 84.3436 22.6C83.7996 22.9413 83.1756 23.112 82.4716 23.112C81.853 23.112 81.309 22.984 80.8396 22.728C80.381 22.4613 80.0343 22.0827 79.7996 21.592V26.456H78.1996V17.208C78.1996 16.3653 78.157 15.608 78.0716 14.936H79.5756L79.7356 16.424C79.949 15.8907 80.2956 15.48 80.7756 15.192C81.2556 14.8933 81.821 14.744 82.4716 14.744ZM82.1036 21.832C82.829 21.832 83.3943 21.5813 83.7996 21.08C84.205 20.5787 84.4076 19.8747 84.4076 18.968C84.4076 18.0507 84.205 17.336 83.7996 16.824C83.3943 16.3013 82.829 16.04 82.1036 16.04C81.357 16.04 80.7863 16.2907 80.3916 16.792C79.997 17.2933 79.7996 18.008 79.7996 18.936C79.7996 19.864 79.997 20.5787 80.3916 21.08C80.797 21.5813 81.3676 21.832 82.1036 21.832Z" fill="white"/>
<circle cx="17" cy="17" r="16.5" stroke="white"/>
<path d="M13.501 14.7598H15.4214C15.4307 13.6187 16.0894 12.7373 17.416 12.7373C18.4087 12.7373 19.3364 13.2383 19.3364 14.4443C19.3364 15.3721 18.7891 15.7988 17.917 16.4482C16.9429 17.1626 16.1543 17.9976 16.21 19.3521L16.2192 20.0293H18.1396V19.5098C18.1396 18.4614 18.5386 18.1553 19.6147 17.3389C20.4961 16.6616 21.4331 15.9102 21.4331 14.333C21.4331 12.125 19.5591 11.0581 17.5181 11.0581C15.5884 11.0581 13.4546 12.0044 13.501 14.7598ZM15.9688 22.9888C15.9688 23.6753 16.5254 24.1855 17.2212 24.1855C17.9077 24.1855 18.4644 23.6753 18.4644 22.9888C18.4644 22.3022 17.9077 21.8013 17.2212 21.8013C16.5254 21.8013 15.9688 22.3022 15.9688 22.9888Z" fill="white"/>
</svg>
