<svg width="34" height="50" viewBox="0 0 34 50" fill="none" xmlns="http://www.w3.org/2000/svg">
<path d="M12.97 39.88V47H11.69V43.91H8.04V47H6.77V39.88H8.04V42.86H11.69V39.88H12.97ZM18.8441 44.54H15.3641C15.3908 45.08 15.5241 45.48 15.7641 45.74C16.0108 45.9933 16.3741 46.12 16.8541 46.12C17.4075 46.12 17.9208 45.94 18.3941 45.58L18.7541 46.44C18.5141 46.6333 18.2175 46.79 17.8641 46.91C17.5175 47.0233 17.1641 47.08 16.8041 47.08C15.9775 47.08 15.3275 46.8467 14.8541 46.38C14.3808 45.9133 14.1441 45.2733 14.1441 44.46C14.1441 43.9467 14.2475 43.49 14.4541 43.09C14.6608 42.69 14.9508 42.38 15.3241 42.16C15.6975 41.9333 16.1208 41.82 16.5941 41.82C17.2875 41.82 17.8341 42.0467 18.2341 42.5C18.6408 42.9467 18.8441 43.5633 18.8441 44.35V44.54ZM16.6241 42.72C16.2908 42.72 16.0175 42.82 15.8041 43.02C15.5975 43.2133 15.4641 43.4967 15.4041 43.87H17.7541C17.7141 43.49 17.5975 43.2033 17.4041 43.01C17.2175 42.8167 16.9575 42.72 16.6241 42.72ZM19.9027 39.64H21.1427V47H19.9027V39.64ZM25.3901 41.82C25.8234 41.82 26.2067 41.9333 26.5401 42.16C26.8801 42.38 27.1434 42.6933 27.3301 43.1C27.5234 43.5 27.6201 43.96 27.6201 44.48C27.6201 45 27.5267 45.4567 27.3401 45.85C27.1534 46.2433 26.8901 46.5467 26.5501 46.76C26.2167 46.9733 25.8301 47.08 25.3901 47.08C25.0234 47.08 24.6967 47.0033 24.4101 46.85C24.1234 46.69 23.9034 46.47 23.7501 46.19V49.16H22.5101V43.38C22.5101 42.8467 22.4834 42.37 22.4301 41.95H23.6001L23.7001 42.82C23.8334 42.5067 24.0501 42.2633 24.3501 42.09C24.6501 41.91 24.9967 41.82 25.3901 41.82ZM25.0501 46.1C25.4701 46.1 25.7934 45.96 26.0201 45.68C26.2467 45.4 26.3601 45 26.3601 44.48C26.3601 43.9533 26.2467 43.5433 26.0201 43.25C25.7934 42.95 25.4734 42.8 25.0601 42.8C24.6334 42.8 24.3067 42.9433 24.0801 43.23C23.8534 43.5167 23.7401 43.9267 23.7401 44.46C23.7401 44.9867 23.8534 45.3933 24.0801 45.68C24.3067 45.96 24.6301 46.1 25.0501 46.1Z" fill="#0D82C4"/>
<circle cx="17" cy="17" r="16.5" stroke="#0D82C4"/>
<path d="M13.501 14.7598H15.4214C15.4307 13.6187 16.0894 12.7373 17.416 12.7373C18.4087 12.7373 19.3364 13.2383 19.3364 14.4443C19.3364 15.3721 18.7891 15.7988 17.917 16.4482C16.9429 17.1626 16.1543 17.9976 16.21 19.3521L16.2192 20.0293H18.1396V19.5098C18.1396 18.4614 18.5386 18.1553 19.6147 17.3389C20.4961 16.6616 21.4331 15.9102 21.4331 14.333C21.4331 12.125 19.5591 11.0581 17.5181 11.0581C15.5884 11.0581 13.4546 12.0044 13.501 14.7598ZM15.9688 22.9888C15.9688 23.6753 16.5254 24.1855 17.2212 24.1855C17.9077 24.1855 18.4644 23.6753 18.4644 22.9888C18.4644 22.3022 17.9077 21.8013 17.2212 21.8013C16.5254 21.8013 15.9688 22.3022 15.9688 22.9888Z" fill="#0D82C4"/>
</svg>
