<svg width="37" height="53" viewBox="0 0 37 53" fill="none" xmlns="http://www.w3.org/2000/svg">
<mask id="path-1-inside-1_54_75" fill="white">
<path fill-rule="evenodd" clip-rule="evenodd" d="M19.2166 0.852532C18.824 0.44914 18.176 0.44914 17.7834 0.852532L1.1879 17.9042C0.571078 18.538 1.02014 19.6017 1.90452 19.6017H4.50972C5.062 19.6017 5.50972 20.0494 5.50972 20.6017V34.0044C5.50972 34.5567 5.95743 35.0044 6.50972 35.0044H14.1596C14.7119 35.0044 15.1596 34.5567 15.1596 34.0044V24.8699C15.1596 24.3176 15.6074 23.8699 16.1596 23.8699H20.8404C21.3926 23.8699 21.8404 24.3176 21.8404 24.8699V34.0044C21.8404 34.5567 22.2881 35.0044 22.8404 35.0044H29.748C30.3003 35.0044 30.748 34.5567 30.748 34.0044V20.6017C30.748 20.0494 31.1957 19.6017 31.748 19.6017H35.0955C35.9799 19.6017 36.429 18.538 35.8121 17.9042L30.748 12.7009V3.34312C30.748 2.79083 30.3003 2.34312 29.748 2.34312H25.0673C24.515 2.34312 24.0673 2.79083 24.0673 3.34312V5.83649L19.2166 0.852532Z"/>
</mask>
<path d="M17.7834 0.852532L18.5 1.54999L18.5 1.54999L17.7834 0.852532ZM19.2166 0.852532L18.5 1.54999L18.5 1.54999L19.2166 0.852532ZM1.1879 17.9042L0.471269 17.2067H0.471269L1.1879 17.9042ZM35.8121 17.9042L35.0955 18.6017L35.0955 18.6017L35.8121 17.9042ZM30.748 12.7009H29.748V13.1071L30.0314 13.3983L30.748 12.7009ZM24.0673 5.83649L23.3506 6.53395L25.0673 8.29776V5.83649H24.0673ZM18.5 1.54999L18.5 1.54999L19.9333 0.155077C19.1481 -0.651709 17.852 -0.651708 17.0668 0.155077L18.5 1.54999ZM1.90452 18.6017L18.5 1.54999L17.0668 0.155076L0.471269 17.2067L1.90452 18.6017ZM1.90452 18.6017L0.471269 17.2067C-0.762368 18.4743 0.135758 20.6017 1.90452 20.6017V18.6017ZM4.50972 18.6017H1.90452V20.6017H4.50972V18.6017ZM6.50972 20.6017C6.50972 19.4971 5.61429 18.6017 4.50972 18.6017V20.6017H4.50972H6.50972ZM6.50972 34.0044V20.6017H4.50972V34.0044H6.50972ZM6.50972 34.0044H4.50972C4.50972 35.109 5.40515 36.0044 6.50972 36.0044V34.0044ZM14.1596 34.0044H6.50972V36.0044H14.1596V34.0044ZM14.1596 34.0044H14.1596V36.0044C15.2642 36.0044 16.1596 35.109 16.1596 34.0044H14.1596ZM14.1596 24.8699V34.0044H16.1596V24.8699H14.1596ZM16.1596 22.8699C15.0551 22.8699 14.1596 23.7653 14.1596 24.8699H16.1596V24.8699V22.8699ZM20.8404 22.8699H16.1596V24.8699H20.8404V22.8699ZM22.8404 24.8699C22.8404 23.7653 21.9449 22.8699 20.8404 22.8699V24.8699H22.8404ZM22.8404 34.0044V24.8699H20.8404V34.0044H22.8404ZM22.8404 34.0044H20.8404C20.8404 35.109 21.7358 36.0044 22.8404 36.0044V34.0044ZM29.748 34.0044H22.8404V36.0044H29.748V34.0044ZM29.748 34.0044V36.0044C30.8526 36.0044 31.748 35.109 31.748 34.0044H29.748ZM29.748 20.6017V34.0044H31.748V20.6017H29.748ZM31.748 18.6017C30.6434 18.6017 29.748 19.4971 29.748 20.6017H31.748V18.6017ZM35.0955 18.6017H31.748V20.6017H35.0955V18.6017ZM35.0955 18.6017V18.6017V20.6017C36.8643 20.6017 37.7624 18.4743 36.5288 17.2067L35.0955 18.6017ZM30.0314 13.3983L35.0955 18.6017L36.5288 17.2067L31.4646 12.0034L30.0314 13.3983ZM29.748 3.34312V12.7009H31.748V3.34312H29.748ZM29.748 3.34312H31.748C31.748 2.23855 30.8526 1.34312 29.748 1.34312V3.34312ZM25.0673 3.34312H29.748V1.34312H25.0673V3.34312ZM25.0673 3.34312V3.34312V1.34312C23.9627 1.34312 23.0673 2.23854 23.0673 3.34312H25.0673ZM25.0673 5.83649V3.34312H23.0673V5.83649H25.0673ZM18.5 1.54999L23.3506 6.53395L24.7839 5.13904L19.9333 0.155076L18.5 1.54999Z" fill="#898989" mask="url(#path-1-inside-1_54_75)"/>
<path d="M2.02994 49.0045H1.17994L4.30994 41.8845H5.02994L8.15994 49.0045H7.31994L4.52994 42.4845H4.82994L2.02994 49.0045ZM2.50994 47.1745L2.79994 46.4945H6.53994L6.82994 47.1745H2.50994ZM11.2337 49.0745C10.7404 49.0745 10.3137 48.9678 9.95369 48.7545C9.59369 48.5411 9.31369 48.2411 9.11369 47.8545C8.92036 47.4678 8.82369 47.0111 8.82369 46.4845C8.82369 45.9645 8.92369 45.5078 9.12369 45.1145C9.32369 44.7145 9.60702 44.4045 9.97369 44.1845C10.3404 43.9645 10.7737 43.8545 11.2737 43.8545C11.6137 43.8545 11.9404 43.9145 12.2537 44.0345C12.5737 44.1478 12.837 44.3078 13.0437 44.5145L12.7737 45.1145C12.527 44.9211 12.2837 44.7778 12.0437 44.6845C11.8104 44.5845 11.567 44.5345 11.3137 44.5345C10.807 44.5345 10.4037 44.7045 10.1037 45.0445C9.81036 45.3845 9.66369 45.8645 9.66369 46.4845C9.66369 47.0978 9.81036 47.5711 10.1037 47.9045C10.397 48.2378 10.8004 48.4045 11.3137 48.4045C11.5604 48.4045 11.8037 48.3578 12.0437 48.2645C12.2837 48.1645 12.527 48.0178 12.7737 47.8245L13.0437 48.4245C12.8304 48.6245 12.5604 48.7845 12.2337 48.9045C11.9137 49.0178 11.5804 49.0745 11.2337 49.0745ZM13.3746 44.6145V43.9745H16.6046V44.6145H13.3746ZM16.5846 48.2845V48.9745C16.4713 49.0078 16.358 49.0311 16.2446 49.0445C16.138 49.0645 16.018 49.0745 15.8846 49.0745C15.418 49.0745 15.0446 48.9411 14.7646 48.6745C14.4913 48.4078 14.3546 48.0078 14.3546 47.4745V42.6845L15.1646 42.3945V47.3645C15.1646 47.6311 15.2013 47.8378 15.2746 47.9845C15.3546 48.1311 15.4613 48.2345 15.5946 48.2945C15.728 48.3478 15.878 48.3745 16.0446 48.3745C16.1446 48.3745 16.2346 48.3678 16.3146 48.3545C16.3946 48.3411 16.4846 48.3178 16.5846 48.2845ZM17.5807 49.0045V43.9745H18.3907V49.0045H17.5807ZM17.5007 41.8445H18.4907V42.7645H17.5007V41.8445ZM21.4435 49.0045L19.3035 43.9845H20.1535L21.9735 48.4145H21.7335L23.5735 43.9845H24.3835L22.2135 49.0045H21.4435ZM25.276 49.0045V43.9745H26.086V49.0045H25.276ZM25.196 41.8445H26.186V42.7645H25.196V41.8445ZM26.9488 44.6145V43.9745H30.1788V44.6145H26.9488ZM30.1588 48.2845V48.9745C30.0455 49.0078 29.9322 49.0311 29.8188 49.0445C29.7122 49.0645 29.5922 49.0745 29.4588 49.0745C28.9922 49.0745 28.6188 48.9411 28.3388 48.6745C28.0655 48.4078 27.9288 48.0078 27.9288 47.4745V42.6845L28.7388 42.3945V47.3645C28.7388 47.6311 28.7755 47.8378 28.8488 47.9845C28.9288 48.1311 29.0355 48.2345 29.1688 48.2945C29.3022 48.3478 29.4522 48.3745 29.6188 48.3745C29.7188 48.3745 29.8088 48.3678 29.8888 48.3545C29.9688 48.3411 30.0588 48.3178 30.1588 48.2845ZM30.9735 51.2745L30.8035 50.6445C31.1102 50.5711 31.3669 50.4845 31.5735 50.3845C31.7869 50.2911 31.9635 50.1678 32.1035 50.0145C32.2502 49.8611 32.3769 49.6578 32.4835 49.4045L32.8035 48.6645L32.9835 48.4145L34.8235 43.9745H35.6335L33.2835 49.4645C33.1035 49.8711 32.9002 50.1945 32.6735 50.4345C32.4469 50.6811 32.1902 50.8678 31.9035 50.9945C31.6235 51.1211 31.3135 51.2145 30.9735 51.2745ZM32.8135 49.2645L30.5535 43.9745H31.4035L33.2235 48.4145L32.8135 49.2645Z" fill="#898989"/>
</svg>
