<svg width="38" height="52" viewBox="0 0 38 52" fill="none" xmlns="http://www.w3.org/2000/svg">
<mask id="path-1-inside-1_52_96" fill="white">
<path fill-rule="evenodd" clip-rule="evenodd" d="M19.2166 0.848076C18.824 0.444684 18.176 0.444684 17.7834 0.848076L1.1879 17.8997C0.571078 18.5335 1.02014 19.5972 1.90452 19.5972H4.50972C5.062 19.5972 5.50972 20.0449 5.50972 20.5972V34C5.50972 34.5523 5.95743 35 6.50972 35H14.1596C14.7119 35 15.1596 34.5523 15.1596 34V24.8654C15.1596 24.3132 15.6074 23.8654 16.1596 23.8654H20.8404C21.3926 23.8654 21.8404 24.3132 21.8404 24.8654V34C21.8404 34.5523 22.2881 35 22.8404 35H29.748C30.3003 35 30.748 34.5523 30.748 34V20.5972C30.748 20.0449 31.1957 19.5972 31.748 19.5972H35.0955C35.9799 19.5972 36.429 18.5335 35.8121 17.8997L30.748 12.6964V3.33866C30.748 2.78638 30.3003 2.33866 29.748 2.33866H25.0673C24.515 2.33866 24.0673 2.78638 24.0673 3.33866V5.83204L19.2166 0.848076Z"/>
</mask>
<path d="M17.7834 0.848076L18.5 1.54553L18.5 1.54553L17.7834 0.848076ZM19.2166 0.848076L18.5 1.54553L18.5 1.54553L19.2166 0.848076ZM1.1879 17.8997L0.471269 17.2023H0.471269L1.1879 17.8997ZM35.8121 17.8997L35.0955 18.5972L35.0955 18.5972L35.8121 17.8997ZM30.748 12.6964H29.748V13.1027L30.0314 13.3939L30.748 12.6964ZM24.0673 5.83204L23.3506 6.52949L25.0673 8.29331V5.83204H24.0673ZM18.5 1.54553L18.5 1.54553L19.9333 0.150621C19.1481 -0.656164 17.852 -0.656164 17.0668 0.150621L18.5 1.54553ZM1.90452 18.5972L18.5 1.54553L17.0668 0.15062L0.471269 17.2023L1.90452 18.5972ZM1.90452 18.5972L0.471269 17.2023C-0.762368 18.4698 0.135758 20.5972 1.90452 20.5972V18.5972ZM4.50972 18.5972H1.90452V20.5972H4.50972V18.5972ZM6.50972 20.5972C6.50972 19.4926 5.61429 18.5972 4.50972 18.5972V20.5972H4.50972H6.50972ZM6.50972 34V20.5972H4.50972V34H6.50972ZM6.50972 34H4.50972C4.50972 35.1045 5.40515 36 6.50972 36V34ZM14.1596 34H6.50972V36H14.1596V34ZM14.1596 34H14.1596V36C15.2642 36 16.1596 35.1045 16.1596 34H14.1596ZM14.1596 24.8654V34H16.1596V24.8654H14.1596ZM16.1596 22.8654C15.0551 22.8654 14.1596 23.7609 14.1596 24.8654H16.1596V24.8654V22.8654ZM20.8404 22.8654H16.1596V24.8654H20.8404V22.8654ZM22.8404 24.8654C22.8404 23.7609 21.9449 22.8654 20.8404 22.8654V24.8654H22.8404ZM22.8404 34V24.8654H20.8404V34H22.8404ZM22.8404 34H20.8404C20.8404 35.1045 21.7358 36 22.8404 36V34ZM29.748 34H22.8404V36H29.748V34ZM29.748 34V36C30.8526 36 31.748 35.1045 31.748 34H29.748ZM29.748 20.5972V34H31.748V20.5972H29.748ZM31.748 18.5972C30.6434 18.5972 29.748 19.4926 29.748 20.5972H31.748V18.5972ZM35.0955 18.5972H31.748V20.5972H35.0955V18.5972ZM35.0955 18.5972V18.5972V20.5972C36.8643 20.5972 37.7624 18.4698 36.5288 17.2023L35.0955 18.5972ZM30.0314 13.3939L35.0955 18.5972L36.5288 17.2023L31.4646 11.9989L30.0314 13.3939ZM29.748 3.33866V12.6964H31.748V3.33866H29.748ZM29.748 3.33866H31.748C31.748 2.23409 30.8526 1.33866 29.748 1.33866V3.33866ZM25.0673 3.33866H29.748V1.33866H25.0673V3.33866ZM25.0673 3.33866V3.33866V1.33866C23.9627 1.33866 23.0673 2.23409 23.0673 3.33866H25.0673ZM25.0673 5.83204V3.33866H23.0673V5.83204H25.0673ZM18.5 1.54553L23.3506 6.52949L24.7839 5.13458L19.9333 0.15062L18.5 1.54553Z" fill="#0D82C4" mask="url(#path-1-inside-1_52_96)"/>
<path d="M6.5 47.33H3.02L2.3 49H1L4.22 41.88H5.27L8.5 49H7.21L6.5 47.33ZM6.07 46.33L4.76 43.28L3.45 46.33H6.07ZM11.47 49.08C10.9433 49.08 10.4867 48.9733 10.1 48.76C9.71333 48.5467 9.41667 48.2467 9.21 47.86C9.00333 47.4667 8.9 47.0067 8.9 46.48C8.9 45.9533 9.00667 45.49 9.22 45.09C9.44 44.69 9.74667 44.38 10.14 44.16C10.54 43.9333 11 43.82 11.52 43.82C11.88 43.82 12.2267 43.8767 12.56 43.99C12.9 44.1033 13.17 44.26 13.37 44.46L13.02 45.34C12.8067 45.1667 12.58 45.0367 12.34 44.95C12.1 44.8567 11.8633 44.81 11.63 44.81C11.1767 44.81 10.8233 44.9533 10.57 45.24C10.3167 45.52 10.19 45.9267 10.19 46.46C10.19 46.9933 10.3133 47.4 10.56 47.68C10.8133 47.96 11.17 48.1 11.63 48.1C11.8633 48.1 12.1 48.0533 12.34 47.96C12.58 47.8667 12.8067 47.7333 13.02 47.56L13.37 48.44C13.1567 48.64 12.88 48.7967 12.54 48.91C12.2 49.0233 11.8433 49.08 11.47 49.08ZM15.8286 44.89V47.15C15.8286 47.7433 16.1053 48.04 16.6586 48.04C16.8119 48.04 16.9786 48.0133 17.1586 47.96V48.95C16.9386 49.03 16.6719 49.07 16.3586 49.07C15.7853 49.07 15.3453 48.91 15.0386 48.59C14.7319 48.27 14.5786 47.81 14.5786 47.21V44.89H13.6086V43.95H14.5786V42.72L15.8286 42.3V43.95H17.1686V44.89H15.8286ZM18.0277 43.95H19.2677V49H18.0277V43.95ZM19.3377 41.66V42.89H17.9477V41.66H19.3377ZM25.4151 43.96L23.2051 49H22.1151L19.9351 43.96H21.2451L22.6951 47.58L24.1751 43.96H25.4151ZM26.0648 43.95H27.3048V49H26.0648V43.95ZM27.3748 41.66V42.89H25.9848V41.66H27.3748ZM30.2622 44.89V47.15C30.2622 47.7433 30.5389 48.04 31.0922 48.04C31.2455 48.04 31.4122 48.0133 31.5922 47.96V48.95C31.3722 49.03 31.1055 49.07 30.7922 49.07C30.2189 49.07 29.7789 48.91 29.4722 48.59C29.1655 48.27 29.0122 47.81 29.0122 47.21V44.89H28.0422V43.95H29.0122V42.72L30.2622 42.3V43.95H31.6022V44.89H30.2622ZM37.3291 43.95L34.9791 49.34C34.7125 49.9667 34.3725 50.4233 33.9591 50.71C33.5458 50.9967 33.0358 51.1867 32.4291 51.28L32.1491 50.32C32.6225 50.2133 32.9758 50.0767 33.2091 49.91C33.4491 49.75 33.6425 49.51 33.7891 49.19L33.9491 48.82L31.8491 43.95H33.1591L34.6091 47.58L36.0891 43.95H37.3291Z" fill="#0D82C4"/>
</svg>
