<svg width="110" height="32" viewBox="0 0 110 32" fill="none" xmlns="http://www.w3.org/2000/svg">
<path d="M52.328 10.608H53.976V22H52.328V10.608ZM60.7689 13.744C62.6995 13.744 63.6649 14.8213 63.6649 16.976V22H62.0489V17.072C62.0489 16.368 61.9102 15.856 61.6329 15.536C61.3662 15.216 60.9342 15.056 60.3369 15.056C59.6542 15.056 59.1049 15.2693 58.6889 15.696C58.2835 16.1227 58.0809 16.6933 58.0809 17.408V22H56.4809V16.208C56.4809 15.3653 56.4382 14.608 56.3529 13.936H57.8569L58.0009 15.328C58.2569 14.816 58.6249 14.4267 59.1049 14.16C59.5955 13.8827 60.1502 13.744 60.7689 13.744ZM68.0613 15.184V19.232C68.0613 19.7867 68.1786 20.1813 68.4133 20.416C68.6586 20.64 68.9946 20.752 69.4213 20.752C69.6986 20.752 69.9813 20.7093 70.2693 20.624V21.936C69.9173 22.0533 69.5173 22.112 69.0693 22.112C68.2373 22.112 67.5919 21.8773 67.1332 21.408C66.6746 20.9387 66.4453 20.256 66.4453 19.36V15.184H64.8773V13.936H66.4453V11.92L68.0613 11.36V13.936H70.2853V15.184H68.0613ZM78.6578 18H72.8978C72.9511 19.888 73.8098 20.832 75.4738 20.832C76.4018 20.832 77.2498 20.528 78.0178 19.92L78.5138 21.072C78.1511 21.392 77.6871 21.648 77.1218 21.84C76.5671 22.0213 76.0071 22.112 75.4418 22.112C74.1511 22.112 73.1378 21.744 72.4018 21.008C71.6658 20.2613 71.2978 19.2427 71.2978 17.952C71.2978 17.1307 71.4578 16.4 71.7778 15.76C72.1084 15.12 72.5671 14.624 73.1538 14.272C73.7404 13.92 74.4071 13.744 75.1538 13.744C76.2418 13.744 77.0951 14.096 77.7138 14.8C78.3431 15.504 78.6578 16.48 78.6578 17.728V18ZM75.1858 14.944C74.5778 14.944 74.0818 15.1253 73.6978 15.488C73.3138 15.8507 73.0684 16.368 72.9618 17.04H77.2338C77.1698 16.3573 76.9618 15.84 76.6098 15.488C76.2578 15.1253 75.7831 14.944 75.1858 14.944ZM84.5281 13.744C84.7735 13.744 85.0295 13.7813 85.2961 13.856L85.2641 15.328C84.9761 15.2213 84.6615 15.168 84.3201 15.168C83.5841 15.168 83.0295 15.392 82.6561 15.84C82.2935 16.2773 82.1121 16.832 82.1121 17.504V22H80.5121V16.208C80.5121 15.3653 80.4695 14.608 80.3841 13.936H81.8881L82.0321 15.392C82.2455 14.8587 82.5761 14.4533 83.0241 14.176C83.4721 13.888 83.9735 13.744 84.5281 13.744ZM90.8158 13.744C92.7464 13.744 93.7118 14.8213 93.7118 16.976V22H92.0958V17.072C92.0958 16.368 91.9571 15.856 91.6798 15.536C91.4131 15.216 90.9811 15.056 90.3838 15.056C89.7011 15.056 89.1518 15.2693 88.7358 15.696C88.3304 16.1227 88.1278 16.6933 88.1278 17.408V22H86.5278V16.208C86.5278 15.3653 86.4851 14.608 86.3997 13.936H87.9038L88.0478 15.328C88.3038 14.816 88.6718 14.4267 89.1518 14.16C89.6424 13.8827 90.1971 13.744 90.8158 13.744ZM102.892 18H97.1321C97.1855 19.888 98.0441 20.832 99.7081 20.832C100.636 20.832 101.484 20.528 102.252 19.92L102.748 21.072C102.385 21.392 101.921 21.648 101.356 21.84C100.801 22.0213 100.241 22.112 99.6761 22.112C98.3855 22.112 97.3721 21.744 96.6361 21.008C95.9001 20.2613 95.5321 19.2427 95.5321 17.952C95.5321 17.1307 95.6921 16.4 96.0121 15.76C96.3428 15.12 96.8015 14.624 97.3881 14.272C97.9748 13.92 98.6415 13.744 99.3881 13.744C100.476 13.744 101.329 14.096 101.948 14.8C102.577 15.504 102.892 16.48 102.892 17.728V18ZM99.4201 14.944C98.8121 14.944 98.3161 15.1253 97.9321 15.488C97.5481 15.8507 97.3028 16.368 97.1961 17.04H101.468C101.404 16.3573 101.196 15.84 100.844 15.488C100.492 15.1253 100.017 14.944 99.4201 14.944ZM106.764 15.184V19.232C106.764 19.7867 106.882 20.1813 107.116 20.416C107.362 20.64 107.698 20.752 108.124 20.752C108.402 20.752 108.684 20.7093 108.972 20.624V21.936C108.62 22.0533 108.22 22.112 107.772 22.112C106.94 22.112 106.295 21.8773 105.836 21.408C105.378 20.9387 105.148 20.256 105.148 19.36V15.184H103.58V13.936H105.148V11.92L106.764 11.36V13.936H108.988V15.184H106.764Z" fill="white"/>
<circle cx="16" cy="16" r="15.5" stroke="white"/>
<circle cx="16" cy="16" r="15.5" stroke="white"/>
<path d="M22.3571 16C22.3571 20.3672 21.5975 24.2972 20.3892 27.1167C19.7846 28.5274 19.0775 29.6371 18.3179 30.3868C17.5604 31.1344 16.7777 31.5 16 31.5C15.2223 31.5 14.4396 31.1344 13.6821 30.3868C12.9225 29.6371 12.2154 28.5274 11.6108 27.1167C10.4025 24.2972 9.64285 20.3672 9.64285 16C9.64285 11.6328 10.4025 7.7028 11.6108 4.88325C12.2154 3.47259 12.9225 2.36295 13.6821 1.61323C14.4396 0.86564 15.2223 0.5 16 0.5C16.7777 0.5 17.5604 0.86564 18.3179 1.61323C19.0775 2.36295 19.7846 3.47259 20.3892 4.88325C21.5975 7.7028 22.3571 11.6328 22.3571 16Z" stroke="white"/>
<rect x="2.28574" y="8" width="27.4286" height="1.14286" fill="white"/>
<rect x="2.28574" y="22.8571" width="27.4286" height="1.14286" fill="white"/>
<rect y="16" width="32" height="1" fill="white"/>
</svg>
