<svg width="38" height="48" viewBox="0 0 38 48" fill="none" xmlns="http://www.w3.org/2000/svg">
<path d="M0.88 45V37.88H1.56L4.45 44.45H4.07L6.93 37.88H7.61V45H6.85V38.96L7.16 39L4.54 45H3.96L1.3 39L1.63 38.96L1.64 45H0.88ZM9.02633 47.27L8.85633 46.64C9.16299 46.5667 9.41966 46.48 9.62633 46.38C9.83966 46.2867 10.0163 46.1633 10.1563 46.01C10.303 45.8567 10.4297 45.6533 10.5363 45.4L10.8563 44.66L11.0363 44.41L12.8763 39.97H13.6863L11.3363 45.46C11.1563 45.8667 10.953 46.19 10.7263 46.43C10.4997 46.6767 10.243 46.8633 9.95633 46.99C9.67633 47.1167 9.36633 47.21 9.02633 47.27ZM10.8663 45.26L8.60633 39.97H9.45633L11.2763 44.41L10.8663 45.26ZM17.2863 45V37.88H20.1263C20.8596 37.88 21.4296 38.0567 21.8363 38.41C22.2496 38.7633 22.4563 39.25 22.4563 39.87C22.4563 40.4833 22.2496 40.97 21.8363 41.33C21.4229 41.69 20.8529 41.87 20.1263 41.87H18.1063V45H17.2863ZM18.1063 41.19H20.0563C20.5829 41.19 20.9796 41.0767 21.2463 40.85C21.5129 40.6167 21.6463 40.29 21.6463 39.87C21.6463 39.45 21.5129 39.1267 21.2463 38.9C20.9796 38.6733 20.5829 38.56 20.0563 38.56H18.1063V41.19ZM23.6999 45V37.64H24.5099V45H23.6999ZM28.0127 45.07C27.5661 45.07 27.1727 44.9667 26.8327 44.76C26.4994 44.5467 26.2394 44.2467 26.0527 43.86C25.8727 43.4667 25.7827 43.0067 25.7827 42.48C25.7827 41.9533 25.8761 41.4933 26.0627 41.1C26.2494 40.7067 26.5094 40.4 26.8427 40.18C27.1827 39.96 27.5727 39.85 28.0127 39.85C28.4727 39.85 28.8627 39.9633 29.1827 40.19C29.5027 40.4167 29.7194 40.74 29.8327 41.16L29.7127 41.24V39.97H30.5127V45H29.7127V43.7L29.8327 43.76C29.7194 44.18 29.5027 44.5033 29.1827 44.73C28.8627 44.9567 28.4727 45.07 28.0127 45.07ZM28.1727 44.4C28.6661 44.4 29.0461 44.2333 29.3127 43.9C29.5794 43.56 29.7127 43.08 29.7127 42.46C29.7127 41.84 29.5761 41.3633 29.3027 41.03C29.0361 40.6967 28.6594 40.53 28.1727 40.53C27.6794 40.53 27.2927 40.7033 27.0127 41.05C26.7394 41.39 26.6027 41.8667 26.6027 42.48C26.6027 43.0933 26.7394 43.5667 27.0127 43.9C27.2927 44.2333 27.6794 44.4 28.1727 44.4ZM32.0788 45V41.38C32.0788 41.1467 32.0722 40.9133 32.0588 40.68C32.0522 40.44 32.0322 40.2033 31.9988 39.97H32.7688L32.8588 41.01L32.7588 41.09C32.8988 40.6833 33.1322 40.3767 33.4588 40.17C33.7855 39.9567 34.1622 39.85 34.5888 39.85C35.7955 39.85 36.3988 40.5133 36.3988 41.84V45H35.5888V41.88C35.5888 41.4133 35.4955 41.0733 35.3088 40.86C35.1222 40.64 34.8288 40.53 34.4288 40.53C33.9622 40.53 33.5888 40.6733 33.3088 40.96C33.0288 41.2467 32.8888 41.6333 32.8888 42.12V45H32.0788Z" fill="#898989"/>
<mask id="path-2-inside-1_993_452" fill="white">
<path fill-rule="evenodd" clip-rule="evenodd" d="M1.76538 27.5519C5.60324 22.1773 11.8925 18.6735 19.0002 18.6735C26.1078 18.6735 32.397 22.1773 36.2349 27.5519C33.2766 29.5556 28.0908 30.5 19 30.5C9.90933 30.5 4.72358 29.5557 1.76538 27.5519Z"/>
</mask>
<path d="M1.76538 27.5519L0.951564 26.9708L0.355883 27.805L1.20457 28.3799L1.76538 27.5519ZM36.2349 27.5519L36.7957 28.3798L37.6444 27.8049L37.0487 26.9707L36.2349 27.5519ZM2.5792 28.1331C6.23742 23.01 12.2292 19.6735 19.0002 19.6735V17.6735C11.5559 17.6735 4.96906 21.3446 0.951564 26.9708L2.5792 28.1331ZM19.0002 19.6735C25.7711 19.6735 31.7628 23.01 35.4211 28.133L37.0487 26.9707C33.0312 21.3446 26.4444 17.6735 19.0002 17.6735V19.6735ZM35.6741 26.7239C32.9965 28.5376 28.1018 29.5 19 29.5V31.5C28.0799 31.5 33.5568 30.5737 36.7957 28.3798L35.6741 26.7239ZM19 29.5C9.89838 29.5 5.00372 28.5376 2.32619 26.724L1.20457 28.3799C4.44343 30.5737 9.92028 31.5 19 31.5V29.5Z" fill="#898989" mask="url(#path-2-inside-1_993_452)"/>
<path d="M27.5 8.5C27.5 4.10826 23.7217 0.5 19 0.5C14.2783 0.5 10.5 4.10826 10.5 8.5C10.5 12.8917 14.2783 16.5 19 16.5C23.7217 16.5 27.5 12.8917 27.5 8.5Z" stroke="#898989"/>
</svg>
