<svg width="140" height="32" viewBox="0 0 140 32" fill="none" xmlns="http://www.w3.org/2000/svg">
<path d="M63.24 10.608V22H61.752V14.176L58.376 22H57.24L53.816 14.224L53.832 22H52.344V10.608H53.672L57.816 20.016L61.912 10.608H63.24ZM73.0901 13.936L69.3301 22.656C68.9141 23.6053 68.3915 24.2987 67.7621 24.736C67.1435 25.184 66.3755 25.4827 65.4581 25.632L65.1061 24.384C65.8635 24.2133 66.4341 23.9893 66.8181 23.712C67.2128 23.4453 67.5275 23.04 67.7621 22.496L68.0501 21.824L64.6581 13.936H66.3701L68.8981 20.176L71.4741 13.936H73.0901ZM86.2379 19.184H80.4779L79.2619 22H77.5819L82.6539 10.608H84.0459L89.1339 22H87.4539L86.2379 19.184ZM85.6779 17.872L83.3579 12.448L81.0379 17.872H85.6779ZM93.9693 22.112C93.1586 22.112 92.4493 21.9413 91.8413 21.6C91.2439 21.2587 90.7853 20.7787 90.4653 20.16C90.1453 19.5307 89.9853 18.8 89.9853 17.968C89.9853 17.136 90.1506 16.4 90.4813 15.76C90.8226 15.12 91.2973 14.624 91.9053 14.272C92.5133 13.92 93.2226 13.744 94.0333 13.744C94.5986 13.744 95.1426 13.84 95.6653 14.032C96.1879 14.2133 96.6093 14.464 96.9293 14.784L96.4333 15.952C95.6759 15.3547 94.9133 15.056 94.1453 15.056C93.3666 15.056 92.7586 15.312 92.3213 15.824C91.8839 16.3253 91.6653 17.0347 91.6653 17.952C91.6653 18.8693 91.8839 19.5787 92.3213 20.08C92.7586 20.5707 93.3666 20.816 94.1453 20.816C94.9346 20.816 95.6973 20.5173 96.4333 19.92L96.9293 21.088C96.5879 21.408 96.1506 21.6587 95.6173 21.84C95.0946 22.0213 94.5453 22.112 93.9693 22.112ZM101.954 22.112C101.143 22.112 100.434 21.9413 99.8256 21.6C99.2283 21.2587 98.7696 20.7787 98.4496 20.16C98.1296 19.5307 97.9696 18.8 97.9696 17.968C97.9696 17.136 98.135 16.4 98.4656 15.76C98.807 15.12 99.2816 14.624 99.8896 14.272C100.498 13.92 101.207 13.744 102.018 13.744C102.583 13.744 103.127 13.84 103.65 14.032C104.172 14.2133 104.594 14.464 104.914 14.784L104.418 15.952C103.66 15.3547 102.898 15.056 102.13 15.056C101.351 15.056 100.743 15.312 100.306 15.824C99.8683 16.3253 99.6496 17.0347 99.6496 17.952C99.6496 18.8693 99.8683 19.5787 100.306 20.08C100.743 20.5707 101.351 20.816 102.13 20.816C102.919 20.816 103.682 20.5173 104.418 19.92L104.914 21.088C104.572 21.408 104.135 21.6587 103.602 21.84C103.079 22.0213 102.53 22.112 101.954 22.112ZM109.906 22.112C109.117 22.112 108.423 21.9413 107.826 21.6C107.229 21.2587 106.765 20.7733 106.434 20.144C106.114 19.5147 105.954 18.7787 105.954 17.936C105.954 17.0933 106.114 16.3573 106.434 15.728C106.765 15.088 107.229 14.5973 107.826 14.256C108.423 13.9147 109.117 13.744 109.906 13.744C110.685 13.744 111.373 13.9147 111.97 14.256C112.567 14.5973 113.026 15.088 113.346 15.728C113.677 16.3573 113.842 17.0933 113.842 17.936C113.842 18.7787 113.677 19.5147 113.346 20.144C113.026 20.7733 112.567 21.2587 111.97 21.6C111.373 21.9413 110.685 22.112 109.906 22.112ZM109.89 20.832C110.637 20.832 111.207 20.5867 111.602 20.096C111.997 19.6053 112.194 18.8853 112.194 17.936C112.194 17.008 111.991 16.2933 111.586 15.792C111.191 15.2907 110.631 15.04 109.906 15.04C109.17 15.04 108.599 15.2907 108.194 15.792C107.789 16.2933 107.586 17.008 107.586 17.936C107.586 18.8853 107.783 19.6053 108.178 20.096C108.583 20.5867 109.154 20.832 109.89 20.832ZM122.739 13.936V22H121.171V20.656C120.915 21.1253 120.563 21.488 120.115 21.744C119.667 21.9893 119.16 22.112 118.595 22.112C116.654 22.112 115.683 21.0347 115.683 18.88V13.936H117.283V18.864C117.283 19.5253 117.416 20.016 117.683 20.336C117.96 20.6453 118.376 20.8 118.931 20.8C119.592 20.8 120.12 20.5867 120.515 20.16C120.92 19.7333 121.123 19.168 121.123 18.464V13.936H122.739ZM129.394 13.744C131.325 13.744 132.29 14.8213 132.29 16.976V22H130.674V17.072C130.674 16.368 130.535 15.856 130.258 15.536C129.991 15.216 129.559 15.056 128.962 15.056C128.279 15.056 127.73 15.2693 127.314 15.696C126.909 16.1227 126.706 16.6933 126.706 17.408V22H125.106V16.208C125.106 15.3653 125.063 14.608 124.978 13.936H126.482L126.626 15.328C126.882 14.816 127.25 14.4267 127.73 14.16C128.221 13.8827 128.775 13.744 129.394 13.744ZM136.686 15.184V19.232C136.686 19.7867 136.804 20.1813 137.038 20.416C137.284 20.64 137.62 20.752 138.046 20.752C138.324 20.752 138.606 20.7093 138.894 20.624V21.936C138.542 22.0533 138.142 22.112 137.694 22.112C136.862 22.112 136.217 21.8773 135.758 21.408C135.3 20.9387 135.07 20.256 135.07 19.36V15.184H133.502V13.936H135.07V11.92L136.686 11.36V13.936H138.91V15.184H136.686Z" fill="white"/>
<circle cx="16" cy="16" r="15.5" stroke="white"/>
</svg>
