<svg width="68" height="61" viewBox="0 0 68 61" fill="none" xmlns="http://www.w3.org/2000/svg">
<path d="M20.77 50.8801V58.0001H19.81L15.97 53.0101V58.0001H14.77V50.8801H15.73L19.56 55.8601V50.8801H20.77ZM26.6488 55.5401H23.1688C23.1955 56.0801 23.3288 56.4801 23.5688 56.7401C23.8155 56.9934 24.1788 57.1201 24.6588 57.1201C25.2122 57.1201 25.7255 56.9401 26.1988 56.5801L26.5588 57.4401C26.3188 57.6334 26.0222 57.7901 25.6688 57.9101C25.3222 58.0234 24.9688 58.0801 24.6088 58.0801C23.7822 58.0801 23.1322 57.8467 22.6588 57.3801C22.1855 56.9134 21.9488 56.2734 21.9488 55.4601C21.9488 54.9467 22.0522 54.4901 22.2588 54.0901C22.4655 53.6901 22.7555 53.3801 23.1288 53.1601C23.5022 52.9334 23.9255 52.8201 24.3988 52.8201C25.0922 52.8201 25.6388 53.0467 26.0388 53.5001C26.4455 53.9467 26.6488 54.5634 26.6488 55.3501V55.5401ZM24.4288 53.7201C24.0955 53.7201 23.8222 53.8201 23.6088 54.0201C23.4022 54.2134 23.2688 54.4967 23.2088 54.8701H25.5588C25.5188 54.4901 25.4022 54.2034 25.2088 54.0101C25.0222 53.8167 24.7622 53.7201 24.4288 53.7201ZM29.229 53.8901V56.1501C29.229 56.7434 29.5057 57.0401 30.059 57.0401C30.2123 57.0401 30.379 57.0134 30.559 56.9601V57.9501C30.339 58.0301 30.0723 58.0701 29.759 58.0701C29.1857 58.0701 28.7457 57.9101 28.439 57.5901C28.1323 57.2701 27.979 56.8101 27.979 56.2101V53.8901H27.009V52.9501H27.979V51.7201L29.229 51.3001V52.9501H30.569V53.8901H29.229ZM39.5559 52.9501L37.5759 58.0001H36.4859L35.2359 54.6901L34.0159 58.0001H32.9159L30.9359 52.9501H32.2159L33.5159 56.5101L34.8259 52.9501H35.7259L37.0359 56.5401L38.3359 52.9501H39.5559ZM42.5462 58.0801C42.0328 58.0801 41.5795 57.9734 41.1862 57.7601C40.7995 57.5467 40.4995 57.2434 40.2862 56.8501C40.0795 56.4501 39.9762 55.9834 39.9762 55.4501C39.9762 54.9167 40.0795 54.4534 40.2862 54.0601C40.4995 53.6601 40.7995 53.3534 41.1862 53.1401C41.5795 52.9267 42.0328 52.8201 42.5462 52.8201C43.0528 52.8201 43.4995 52.9267 43.8862 53.1401C44.2728 53.3534 44.5695 53.6601 44.7762 54.0601C44.9895 54.4534 45.0962 54.9167 45.0962 55.4501C45.0962 55.9834 44.9895 56.4501 44.7762 56.8501C44.5695 57.2434 44.2728 57.5467 43.8862 57.7601C43.4995 57.9734 43.0528 58.0801 42.5462 58.0801ZM42.5362 57.1001C42.9628 57.1001 43.2862 56.9634 43.5062 56.6901C43.7328 56.4101 43.8462 55.9967 43.8462 55.4501C43.8462 54.9101 43.7328 54.5001 43.5062 54.2201C43.2795 53.9334 42.9595 53.7901 42.5462 53.7901C42.1262 53.7901 41.8028 53.9334 41.5762 54.2201C41.3495 54.5001 41.2362 54.9101 41.2362 55.4501C41.2362 55.9967 41.3462 56.4101 41.5662 56.6901C41.7928 56.9634 42.1162 57.1001 42.5362 57.1001ZM48.8941 52.8301C49.0875 52.8301 49.2541 52.8567 49.3941 52.9101L49.3841 54.0501C49.1708 53.9634 48.9508 53.9201 48.7241 53.9201C48.2975 53.9201 47.9708 54.0434 47.7441 54.2901C47.5241 54.5367 47.4141 54.8634 47.4141 55.2701V58.0001H46.1741V54.3801C46.1741 53.8467 46.1475 53.3701 46.0941 52.9501H47.2641L47.3641 53.8401C47.4908 53.5134 47.6908 53.2634 47.9641 53.0901C48.2375 52.9167 48.5475 52.8301 48.8941 52.8301ZM53.5402 58.0001L51.3302 55.6701V58.0001H50.0902V50.6401H51.3302V55.1801L53.4102 52.9601H54.9202L52.6502 55.3701L55.1002 58.0001H53.5402Z" fill="#0D82C4"/>
<mask id="mask0_54_141" style="mask-type:alpha" maskUnits="userSpaceOnUse" x="4" y="11" width="60" height="33">
<path d="M34 44.0001L4.55514 11.0001L63.4449 11.0001L34 44.0001Z" fill="#C4C4C4"/>
</mask>
<g mask="url(#mask0_54_141)">
<path d="M10.9279 23.9209C24.5 10 42.2905 10.0288 56.1827 23.9209" stroke="#0D82C4"/>
</g>
<mask id="mask1_54_141" style="mask-type:alpha" maskUnits="userSpaceOnUse" x="4" y="11" width="60" height="33">
<path d="M34 44L4.55514 11L63.4449 11L34 44Z" fill="#C4C4C4"/>
</mask>
<g mask="url(#mask1_54_141)">
<path d="M15.9579 29.6393C25.5 19.0001 41 19 50.6133 29.6393" stroke="#0D82C4"/>
</g>
<mask id="mask2_54_141" style="mask-type:alpha" maskUnits="userSpaceOnUse" x="4" y="11" width="60" height="33">
<path d="M34 44.0001L4.55514 11.0001L63.4449 11.0001L34 44.0001Z" fill="#0D82C4"/>
</mask>
<g mask="url(#mask2_54_141)">
<path d="M23.7426 34.4182C28.5966 29.1908 38 28.5001 42.8475 34.4182" stroke="#0D82C4"/>
</g>
<circle cx="33.5553" cy="39.5128" r="2.5" transform="rotate(45 33.5553 39.5128)" fill="#0D82C4"/>
</svg>
