<svg width="68" height="59" viewBox="0 0 68 59" fill="none" xmlns="http://www.w3.org/2000/svg">
<path d="M14.88 56.0001V48.8801H15.51L20.05 54.9301L19.81 54.9901V48.8801H20.59V56.0001H19.95L15.42 49.9601L15.65 49.8901V56.0001H14.88ZM26.3609 55.4001C26.1409 55.6067 25.8576 55.7701 25.5109 55.8901C25.1709 56.0101 24.8209 56.0701 24.4609 56.0701C23.9409 56.0701 23.4909 55.9667 23.1109 55.7601C22.7376 55.5534 22.4476 55.2567 22.2409 54.8701C22.0409 54.4767 21.9409 54.0101 21.9409 53.4701C21.9409 52.9501 22.0409 52.4934 22.2409 52.1001C22.4409 51.7067 22.7176 51.4001 23.0709 51.1801C23.4309 50.9601 23.8443 50.8501 24.3109 50.8501C24.7576 50.8501 25.1409 50.9501 25.4609 51.1501C25.7809 51.3434 26.0243 51.6234 26.1909 51.9901C26.3643 52.3567 26.4509 52.7967 26.4509 53.3101V53.4601H22.6509V52.9301H25.9909L25.7309 53.3001C25.7443 52.7134 25.6276 52.2634 25.3809 51.9501C25.1409 51.6367 24.7876 51.4801 24.3209 51.4801C23.8343 51.4801 23.4509 51.6534 23.1709 52.0001C22.8976 52.3401 22.7609 52.8134 22.7609 53.4201C22.7609 54.0734 22.9043 54.5667 23.1909 54.9001C23.4843 55.2334 23.9109 55.4001 24.4709 55.4001C24.7643 55.4001 25.0443 55.3534 25.3109 55.2601C25.5843 55.1601 25.8443 55.0101 26.0909 54.8101L26.3609 55.4001ZM26.9411 51.6101V50.9701H30.1711V51.6101H26.9411ZM30.1511 55.2801V55.9701C30.0378 56.0034 29.9244 56.0267 29.8111 56.0401C29.7044 56.0601 29.5844 56.0701 29.4511 56.0701C28.9844 56.0701 28.6111 55.9367 28.3311 55.6701C28.0578 55.4034 27.9211 55.0034 27.9211 54.4701V49.6801L28.7311 49.3901V54.3601C28.7311 54.6267 28.7678 54.8334 28.8411 54.9801C28.9211 55.1267 29.0278 55.2301 29.1611 55.2901C29.2944 55.3434 29.4444 55.3701 29.6111 55.3701C29.7111 55.3701 29.8011 55.3634 29.8811 55.3501C29.9611 55.3367 30.0511 55.3134 30.1511 55.2801ZM32.5558 56.0001L30.6958 50.9701H31.5458L33.0958 55.4001H32.8358L34.4358 50.9701H35.1458L36.7258 55.4001H36.4658L38.0458 50.9701H38.8458L36.9858 56.0001H36.2058L34.5458 51.4701H34.9858L33.3358 56.0001H32.5558ZM41.9186 56.0701C41.4386 56.0701 41.0186 55.9634 40.6586 55.7501C40.3053 55.5367 40.0286 55.2367 39.8286 54.8501C39.6353 54.4567 39.5386 53.9934 39.5386 53.4601C39.5386 52.9334 39.6353 52.4734 39.8286 52.0801C40.0286 51.6867 40.3053 51.3834 40.6586 51.1701C41.0186 50.9567 41.4386 50.8501 41.9186 50.8501C42.3986 50.8501 42.8153 50.9567 43.1686 51.1701C43.5286 51.3834 43.8053 51.6867 43.9986 52.0801C44.1986 52.4734 44.2986 52.9334 44.2986 53.4601C44.2986 53.9934 44.1986 54.4567 43.9986 54.8501C43.8053 55.2367 43.5286 55.5367 43.1686 55.7501C42.8153 55.9634 42.3986 56.0701 41.9186 56.0701ZM41.9186 55.4001C42.4119 55.4001 42.7919 55.2367 43.0586 54.9101C43.3319 54.5767 43.4686 54.0934 43.4686 53.4601C43.4686 52.8401 43.3319 52.3634 43.0586 52.0301C42.7853 51.6967 42.4053 51.5301 41.9186 51.5301C41.4319 51.5301 41.0486 51.6967 40.7686 52.0301C40.4953 52.3634 40.3586 52.8401 40.3586 53.4601C40.3586 54.0934 40.4919 54.5767 40.7586 54.9101C41.0319 55.2367 41.4186 55.4001 41.9186 55.4001ZM45.5613 56.0001V52.3801C45.5613 52.1467 45.5546 51.9134 45.5413 51.6801C45.5346 51.4401 45.5146 51.2034 45.4813 50.9701H46.2512L46.3613 52.2101L46.2512 52.1801C46.3446 51.7401 46.5446 51.4101 46.8513 51.1901C47.1646 50.9634 47.5146 50.8501 47.9013 50.8501C47.9879 50.8501 48.0679 50.8567 48.1413 50.8701C48.2213 50.8767 48.2946 50.8901 48.3613 50.9101L48.3413 51.6501C48.1879 51.5967 48.0113 51.5701 47.8113 51.5701C47.4646 51.5701 47.1846 51.6467 46.9713 51.8001C46.7646 51.9534 46.6113 52.1501 46.5113 52.3901C46.4179 52.6234 46.3713 52.8701 46.3713 53.1301V56.0001H45.5613ZM52.5743 56.0001L49.8343 53.4301L52.3643 50.9801H53.3943L50.5943 53.6601L50.6243 53.1501L53.6343 56.0001H52.5743ZM49.1843 56.0001V48.6401H49.9943V56.0001H49.1843Z" fill="#898989"/>
<mask id="mask0_54_77" style="mask-type:alpha" maskUnits="userSpaceOnUse" x="4" y="9" width="60" height="33">
<path d="M34 42.0001L4.55514 9.00006L63.4449 9.00005L34 42.0001Z" fill="#C4C4C4"/>
</mask>
<g mask="url(#mask0_54_77)">
<path d="M10.9279 21.921C24.5 8.00006 42.2905 8.02885 56.1827 21.921" stroke="#898989"/>
</g>
<mask id="mask1_54_77" style="mask-type:alpha" maskUnits="userSpaceOnUse" x="4" y="9" width="60" height="33">
<path d="M34 42L4.55514 9L63.4449 8.99999L34 42Z" fill="#C4C4C4"/>
</mask>
<g mask="url(#mask1_54_77)">
<path d="M15.9579 27.6393C25.5 17.0001 41 17 50.6133 27.6393" stroke="#898989"/>
</g>
<mask id="mask2_54_77" style="mask-type:alpha" maskUnits="userSpaceOnUse" x="4" y="9" width="60" height="33">
<path d="M34 42.0001L4.55514 9.00006L63.4449 9.00005L34 42.0001Z" fill="#C4C4C4"/>
</mask>
<g mask="url(#mask2_54_77)">
<path d="M23.7426 32.4182C28.5966 27.1908 38 26.5001 42.8475 32.4182" stroke="#898989"/>
</g>
<circle cx="33.5553" cy="37.5128" r="2.5" transform="rotate(45 33.5553 37.5128)" fill="#898989"/>
</svg>
