<svg width="42" height="47" viewBox="0 0 42 47" fill="none" xmlns="http://www.w3.org/2000/svg">
<path d="M0.88 44V36.88H3.72C4.45333 36.88 5.02333 37.0567 5.43 37.41C5.84333 37.7633 6.05 38.25 6.05 38.87C6.05 39.4833 5.84333 39.97 5.43 40.33C5.01667 40.69 4.44667 40.87 3.72 40.87H1.7V44H0.88ZM1.7 40.19H3.65C4.17667 40.19 4.57333 40.0767 4.84 39.85C5.10667 39.6167 5.24 39.29 5.24 38.87C5.24 38.45 5.10667 38.1267 4.84 37.9C4.57333 37.6733 4.17667 37.56 3.65 37.56H1.7V40.19ZM9.05766 44.07C8.61099 44.07 8.21766 43.9667 7.87766 43.76C7.54432 43.5467 7.28432 43.2467 7.09766 42.86C6.91766 42.4667 6.82766 42.0067 6.82766 41.48C6.82766 40.9533 6.92099 40.4933 7.10766 40.1C7.29432 39.7067 7.55432 39.4 7.88766 39.18C8.22766 38.96 8.61766 38.85 9.05766 38.85C9.51766 38.85 9.90766 38.9633 10.2277 39.19C10.5477 39.4167 10.7643 39.74 10.8777 40.16L10.7577 40.24V38.97H11.5577V44H10.7577V42.7L10.8777 42.76C10.7643 43.18 10.5477 43.5033 10.2277 43.73C9.90766 43.9567 9.51766 44.07 9.05766 44.07ZM9.21766 43.4C9.71099 43.4 10.091 43.2333 10.3577 42.9C10.6243 42.56 10.7577 42.08 10.7577 41.46C10.7577 40.84 10.621 40.3633 10.3477 40.03C10.081 39.6967 9.70432 39.53 9.21766 39.53C8.72432 39.53 8.33766 39.7033 8.05766 40.05C7.78432 40.39 7.64766 40.8667 7.64766 41.48C7.64766 42.0933 7.78432 42.5667 8.05766 42.9C8.33766 43.2333 8.72432 43.4 9.21766 43.4ZM12.8838 46.27L12.7138 45.64C13.0204 45.5667 13.2771 45.48 13.4838 45.38C13.6971 45.2867 13.8738 45.1633 14.0138 45.01C14.1604 44.8567 14.2871 44.6533 14.3938 44.4L14.7138 43.66L14.8938 43.41L16.7338 38.97H17.5438L15.1938 44.46C15.0138 44.8667 14.8104 45.19 14.5838 45.43C14.3571 45.6767 14.1004 45.8633 13.8137 45.99C13.5338 46.1167 13.2238 46.21 12.8838 46.27ZM14.7238 44.26L12.4638 38.97H13.3138L15.1338 43.41L14.7238 44.26ZM18.4363 44V40.38C18.4363 40.1467 18.4296 39.9133 18.4163 39.68C18.4096 39.44 18.3896 39.2033 18.3563 38.97H19.1262L19.2163 40.01L19.1163 40.08C19.2363 39.6867 19.4429 39.3833 19.7363 39.17C20.0363 38.9567 20.3896 38.85 20.7963 38.85C21.2829 38.85 21.6596 38.97 21.9263 39.21C22.1996 39.45 22.3729 39.8167 22.4463 40.31L22.2063 40.18C22.3129 39.7733 22.5263 39.45 22.8463 39.21C23.1729 38.97 23.5629 38.85 24.0163 38.85C24.5696 38.85 24.9863 39.0167 25.2663 39.35C25.5463 39.6767 25.6863 40.1733 25.6863 40.84V44H24.8763V40.88C24.8763 40.4133 24.7929 40.0733 24.6263 39.86C24.4596 39.64 24.1963 39.53 23.8363 39.53C23.4163 39.53 23.0829 39.6733 22.8363 39.96C22.5963 40.2467 22.4763 40.6367 22.4763 41.13V44H21.6663V40.88C21.6663 40.4133 21.5796 40.0733 21.4063 39.86C21.2396 39.64 20.9763 39.53 20.6163 39.53C20.1896 39.53 19.8529 39.6733 19.6063 39.96C19.3663 40.2467 19.2463 40.6367 19.2463 41.13V44H18.4363ZM31.3453 43.4C31.1253 43.6067 30.842 43.77 30.4953 43.89C30.1553 44.01 29.8053 44.07 29.4453 44.07C28.9253 44.07 28.4753 43.9667 28.0953 43.76C27.722 43.5533 27.432 43.2567 27.2253 42.87C27.0253 42.4767 26.9253 42.01 26.9253 41.47C26.9253 40.95 27.0253 40.4933 27.2253 40.1C27.4253 39.7067 27.702 39.4 28.0553 39.18C28.4153 38.96 28.8286 38.85 29.2953 38.85C29.742 38.85 30.1253 38.95 30.4453 39.15C30.7653 39.3433 31.0086 39.6233 31.1753 39.99C31.3486 40.3567 31.4353 40.7967 31.4353 41.31V41.46H27.6353V40.93H30.9753L30.7153 41.3C30.7286 40.7133 30.612 40.2633 30.3653 39.95C30.1253 39.6367 29.772 39.48 29.3053 39.48C28.8186 39.48 28.4353 39.6533 28.1553 40C27.882 40.34 27.7453 40.8133 27.7453 41.42C27.7453 42.0733 27.8886 42.5667 28.1753 42.9C28.4686 43.2333 28.8953 43.4 29.4553 43.4C29.7486 43.4 30.0286 43.3533 30.2953 43.26C30.5686 43.16 30.8286 43.01 31.0753 42.81L31.3453 43.4ZM32.6648 44V40.38C32.6648 40.1467 32.6581 39.9133 32.6448 39.68C32.6381 39.44 32.6181 39.2033 32.5848 38.97H33.3548L33.4448 40.01L33.3448 40.09C33.4848 39.6833 33.7181 39.3767 34.0448 39.17C34.3714 38.9567 34.7481 38.85 35.1748 38.85C36.3814 38.85 36.9848 39.5133 36.9848 40.84V44H36.1748V40.88C36.1748 40.4133 36.0814 40.0733 35.8948 39.86C35.7081 39.64 35.4148 39.53 35.0148 39.53C34.5481 39.53 34.1748 39.6733 33.8948 39.96C33.6148 40.2467 33.4748 40.6333 33.4748 41.12V44H32.6648ZM37.8044 39.61V38.97H41.0344V39.61H37.8044ZM41.0144 43.28V43.97C40.901 44.0033 40.7877 44.0267 40.6744 44.04C40.5677 44.06 40.4477 44.07 40.3144 44.07C39.8477 44.07 39.4744 43.9367 39.1944 43.67C38.921 43.4033 38.7844 43.0033 38.7844 42.47V37.68L39.5944 37.39V42.36C39.5944 42.6267 39.631 42.8333 39.7044 42.98C39.7844 43.1267 39.891 43.23 40.0244 43.29C40.1577 43.3433 40.3077 43.37 40.4744 43.37C40.5744 43.37 40.6644 43.3633 40.7444 43.35C40.8244 43.3367 40.9144 43.3133 41.0144 43.28Z" fill="#0D82C4"/>
<rect x="3.5" y="0.5" width="35" height="24.5" rx="1.5" stroke="#0D82C4"/>
<rect x="3" y="4.5" width="36" height="6" fill="#0D82C4"/>
<rect x="7.5" y="13.5" width="15" height="1.5" rx="0.75" fill="#878787"/>
</svg>
