<svg width="35" height="50" viewBox="0 0 35 50" fill="none" xmlns="http://www.w3.org/2000/svg">
<path d="M0.88 47V39.88H3.72C4.45333 39.88 5.02333 40.0567 5.43 40.41C5.84333 40.7633 6.05 41.25 6.05 41.87C6.05 42.4833 5.84333 42.97 5.43 43.33C5.01667 43.69 4.44667 43.87 3.72 43.87H1.7V47H0.88ZM1.7 43.19H3.65C4.17667 43.19 4.57333 43.0767 4.84 42.85C5.10667 42.6167 5.24 42.29 5.24 41.87C5.24 41.45 5.10667 41.1267 4.84 40.9C4.57333 40.6733 4.17667 40.56 3.65 40.56H1.7V43.19ZM7.19602 47V43.38C7.19602 43.1467 7.18935 42.9133 7.17602 42.68C7.16935 42.44 7.14935 42.2033 7.11602 41.97H7.88602L7.99602 43.21L7.88602 43.18C7.97935 42.74 8.17935 42.41 8.48602 42.19C8.79935 41.9633 9.14935 41.85 9.53602 41.85C9.62268 41.85 9.70268 41.8567 9.77602 41.87C9.85602 41.8767 9.92935 41.89 9.99602 41.91L9.97602 42.65C9.82268 42.5967 9.64602 42.57 9.44602 42.57C9.09935 42.57 8.81935 42.6467 8.60602 42.8C8.39935 42.9533 8.24602 43.15 8.14602 43.39C8.05268 43.6233 8.00602 43.87 8.00602 44.13V47H7.19602ZM12.8014 47.07C12.3214 47.07 11.9014 46.9633 11.5414 46.75C11.1881 46.5367 10.9114 46.2367 10.7114 45.85C10.5181 45.4567 10.4214 44.9933 10.4214 44.46C10.4214 43.9333 10.5181 43.4733 10.7114 43.08C10.9114 42.6867 11.1881 42.3833 11.5414 42.17C11.9014 41.9567 12.3214 41.85 12.8014 41.85C13.2814 41.85 13.6981 41.9567 14.0514 42.17C14.4114 42.3833 14.6881 42.6867 14.8814 43.08C15.0814 43.4733 15.1814 43.9333 15.1814 44.46C15.1814 44.9933 15.0814 45.4567 14.8814 45.85C14.6881 46.2367 14.4114 46.5367 14.0514 46.75C13.6981 46.9633 13.2814 47.07 12.8014 47.07ZM12.8014 46.4C13.2947 46.4 13.6747 46.2367 13.9414 45.91C14.2147 45.5767 14.3514 45.0933 14.3514 44.46C14.3514 43.84 14.2147 43.3633 13.9414 43.03C13.6681 42.6967 13.2881 42.53 12.8014 42.53C12.3147 42.53 11.9314 42.6967 11.6514 43.03C11.3781 43.3633 11.2414 43.84 11.2414 44.46C11.2414 45.0933 11.3747 45.5767 11.6414 45.91C11.9147 46.2367 12.3014 46.4 12.8014 46.4ZM19.6943 39.79H20.7043V40.73H19.6943V39.79ZM20.6043 41.97V47H19.7943V42.61H15.7243V41.97H20.6043ZM16.7043 47V41.3C16.7043 40.9 16.7643 40.5767 16.8843 40.33C17.011 40.0833 17.2143 39.9033 17.4943 39.79C17.7743 39.67 18.1543 39.61 18.6343 39.61H18.9543V40.24H18.7043C18.3776 40.24 18.1276 40.27 17.9543 40.33C17.781 40.39 17.6643 40.5067 17.6043 40.68C17.5443 40.8533 17.5143 41.1133 17.5143 41.46V47H16.7043ZM22.1667 47V39.64H22.9767V47H22.1667ZM28.6695 46.4C28.4495 46.6067 28.1662 46.77 27.8195 46.89C27.4795 47.01 27.1295 47.07 26.7695 47.07C26.2495 47.07 25.7995 46.9667 25.4195 46.76C25.0462 46.5533 24.7562 46.2567 24.5495 45.87C24.3495 45.4767 24.2495 45.01 24.2495 44.47C24.2495 43.95 24.3495 43.4933 24.5495 43.1C24.7495 42.7067 25.0262 42.4 25.3795 42.18C25.7395 41.96 26.1529 41.85 26.6195 41.85C27.0662 41.85 27.4495 41.95 27.7695 42.15C28.0895 42.3433 28.3329 42.6233 28.4995 42.99C28.6729 43.3567 28.7595 43.7967 28.7595 44.31V44.46H24.9595V43.93H28.2995L28.0395 44.3C28.0529 43.7133 27.9362 43.2633 27.6895 42.95C27.4495 42.6367 27.0962 42.48 26.6295 42.48C26.1429 42.48 25.7595 42.6533 25.4795 43C25.2062 43.34 25.0695 43.8133 25.0695 44.42C25.0695 45.0733 25.2129 45.5667 25.4995 45.9C25.7929 46.2333 26.2195 46.4 26.7795 46.4C27.0729 46.4 27.3529 46.3533 27.6195 46.26C27.8929 46.16 28.1529 46.01 28.3995 45.81L28.6695 46.4ZM31.689 47.07C30.8423 47.07 30.1723 46.8533 29.679 46.42L29.949 45.82C30.2157 46.0267 30.489 46.18 30.769 46.28C31.0557 46.3733 31.3723 46.42 31.719 46.42C32.099 46.42 32.3857 46.3567 32.579 46.23C32.779 46.0967 32.879 45.9067 32.879 45.66C32.879 45.46 32.8123 45.3033 32.679 45.19C32.5457 45.07 32.3257 44.9733 32.019 44.9L31.169 44.7C30.749 44.6067 30.4223 44.44 30.189 44.2C29.9623 43.96 29.849 43.6733 29.849 43.34C29.849 43.0467 29.929 42.79 30.089 42.57C30.249 42.3433 30.4723 42.1667 30.759 42.04C31.0457 41.9133 31.3857 41.85 31.779 41.85C32.1323 41.85 32.4657 41.9067 32.779 42.02C33.0923 42.1333 33.3557 42.2967 33.569 42.51L33.299 43.1C33.059 42.9 32.8123 42.7533 32.559 42.66C32.3123 42.56 32.0523 42.51 31.779 42.51C31.419 42.51 31.139 42.58 30.939 42.72C30.7457 42.86 30.649 43.05 30.649 43.29C30.649 43.4967 30.709 43.66 30.829 43.78C30.9557 43.9 31.1557 43.9933 31.429 44.06L32.279 44.27C32.7523 44.37 33.099 44.5367 33.319 44.77C33.5457 44.9967 33.659 45.2867 33.659 45.64C33.659 46.0733 33.4823 46.42 33.129 46.68C32.7757 46.94 32.2957 47.07 31.689 47.07Z" fill="#898989"/>
<circle cx="17" cy="17" r="16.5" stroke="#898989"/>
<mask id="path-3-inside-1_54_76" fill="white">
<path fill-rule="evenodd" clip-rule="evenodd" d="M3.62933 27.5C6.7419 23.542 11.5741 21 17 21C22.4259 21 27.2581 23.542 30.3707 27.5C27.2581 31.458 22.4259 34 17 34C11.5741 34 6.7419 31.458 3.62933 27.5Z"/>
</mask>
<path d="M3.62933 27.5L2.84327 26.8818L2.35716 27.5L2.84327 28.1182L3.62933 27.5ZM30.3707 27.5L31.1567 28.1182L31.6428 27.5L31.1567 26.8818L30.3707 27.5ZM4.41539 28.1182C7.34652 24.3908 11.8938 22 17 22V20C11.2544 20 6.13727 22.6931 2.84327 26.8818L4.41539 28.1182ZM17 22C22.1062 22 26.6535 24.3908 29.5846 28.1182L31.1567 26.8818C27.8627 22.6931 22.7456 20 17 20V22ZM29.5846 26.8818C26.6535 30.6092 22.1062 33 17 33V35C22.7456 35 27.8627 32.3069 31.1567 28.1182L29.5846 26.8818ZM17 33C11.8938 33 7.34652 30.6092 4.41539 26.8818L2.84327 28.1182C6.13727 32.3069 11.2544 35 17 35V33Z" fill="#898989" mask="url(#path-3-inside-1_54_76)"/>
<circle cx="6" cy="6" r="5.5" transform="matrix(1 0 0 -1 11 19)" stroke="#898989"/>
</svg>
