<svg width="36" height="50" viewBox="0 0 36 50" fill="none" xmlns="http://www.w3.org/2000/svg">
<path d="M0.77 39.88H3.86C4.62667 39.88 5.22333 40.0667 5.65 40.44C6.07667 40.8067 6.29 41.31 6.29 41.95C6.29 42.59 6.07333 43.0967 5.64 43.47C5.21333 43.8433 4.62 44.03 3.86 44.03H2.06V47H0.77V39.88ZM3.71 43.03C4.15667 43.03 4.49333 42.94 4.72 42.76C4.95333 42.5733 5.07 42.3067 5.07 41.96C5.07 41.6067 4.95667 41.34 4.73 41.16C4.50333 40.9733 4.16333 40.88 3.71 40.88H2.06V43.03H3.71ZM9.9625 41.83C10.1558 41.83 10.3225 41.8567 10.4625 41.91L10.4525 43.05C10.2392 42.9633 10.0192 42.92 9.7925 42.92C9.36583 42.92 9.03917 43.0433 8.8125 43.29C8.5925 43.5367 8.4825 43.8633 8.4825 44.27V47H7.2425V43.38C7.2425 42.8467 7.21583 42.37 7.1625 41.95H8.3325L8.4325 42.84C8.55917 42.5133 8.75917 42.2633 9.0325 42.09C9.30583 41.9167 9.61583 41.83 9.9625 41.83ZM13.3509 47.08C12.8375 47.08 12.3842 46.9733 11.9909 46.76C11.6042 46.5467 11.3042 46.2433 11.0909 45.85C10.8842 45.45 10.7809 44.9833 10.7809 44.45C10.7809 43.9167 10.8842 43.4533 11.0909 43.06C11.3042 42.66 11.6042 42.3533 11.9909 42.14C12.3842 41.9267 12.8375 41.82 13.3509 41.82C13.8575 41.82 14.3042 41.9267 14.6909 42.14C15.0775 42.3533 15.3742 42.66 15.5809 43.06C15.7942 43.4533 15.9009 43.9167 15.9009 44.45C15.9009 44.9833 15.7942 45.45 15.5809 45.85C15.3742 46.2433 15.0775 46.5467 14.6909 46.76C14.3042 46.9733 13.8575 47.08 13.3509 47.08ZM13.3409 46.1C13.7675 46.1 14.0909 45.9633 14.3109 45.69C14.5375 45.41 14.6509 44.9967 14.6509 44.45C14.6509 43.91 14.5375 43.5 14.3109 43.22C14.0842 42.9333 13.7642 42.79 13.3509 42.79C12.9309 42.79 12.6075 42.9333 12.3809 43.22C12.1542 43.5 12.0409 43.91 12.0409 44.45C12.0409 44.9967 12.1509 45.41 12.3709 45.69C12.5975 45.9633 12.9209 46.1 13.3409 46.1ZM18.5395 41.95H21.8595V47H20.6095V42.89H18.5395V47H17.2895V42.89H16.3195V41.95H17.2895V41.44C17.2895 40.9867 17.3595 40.63 17.4995 40.37C17.6395 40.1033 17.8662 39.91 18.1795 39.79C18.4995 39.67 18.9329 39.61 19.4795 39.61H19.8495V40.53H19.6095C19.2962 40.53 19.0662 40.5567 18.9195 40.61C18.7729 40.6567 18.6729 40.7533 18.6195 40.9C18.5662 41.04 18.5395 41.2667 18.5395 41.58V41.95ZM21.9395 39.61V40.87H20.5295V39.61H21.9395ZM23.2093 39.64H24.4493V47H23.2093V39.64ZM30.2367 44.54H26.7567C26.7834 45.08 26.9167 45.48 27.1567 45.74C27.4034 45.9933 27.7667 46.12 28.2467 46.12C28.8001 46.12 29.3134 45.94 29.7867 45.58L30.1467 46.44C29.9067 46.6333 29.6101 46.79 29.2567 46.91C28.9101 47.0233 28.5567 47.08 28.1967 47.08C27.3701 47.08 26.7201 46.8467 26.2467 46.38C25.7734 45.9133 25.5367 45.2733 25.5367 44.46C25.5367 43.9467 25.6401 43.49 25.8467 43.09C26.0534 42.69 26.3434 42.38 26.7167 42.16C27.0901 41.9333 27.5134 41.82 27.9867 41.82C28.6801 41.82 29.2267 42.0467 29.6267 42.5C30.0334 42.9467 30.2367 43.5633 30.2367 44.35V44.54ZM28.0167 42.72C27.6834 42.72 27.4101 42.82 27.1967 43.02C26.9901 43.2133 26.8567 43.4967 26.7967 43.87H29.1467C29.1067 43.49 28.9901 43.2033 28.7967 43.01C28.6101 42.8167 28.3501 42.72 28.0167 42.72ZM33.1452 47.08C32.2319 47.08 31.5052 46.8667 30.9652 46.44L31.3152 45.56C31.8552 45.96 32.4719 46.16 33.1652 46.16C33.4652 46.16 33.6952 46.11 33.8552 46.01C34.0219 45.91 34.1052 45.77 34.1052 45.59C34.1052 45.4367 34.0486 45.3167 33.9352 45.23C33.8219 45.1367 33.6286 45.0567 33.3552 44.99L32.5152 44.8C31.5952 44.6 31.1352 44.13 31.1352 43.39C31.1352 43.0833 31.2219 42.8133 31.3952 42.58C31.5686 42.34 31.8119 42.1533 32.1252 42.02C32.4386 41.8867 32.8019 41.82 33.2152 41.82C33.5752 41.82 33.9219 41.8767 34.2552 41.99C34.5886 42.0967 34.8819 42.2533 35.1352 42.46L34.7652 43.31C34.2586 42.9367 33.7386 42.75 33.2052 42.75C32.9186 42.75 32.6952 42.8033 32.5352 42.91C32.3752 43.0167 32.2952 43.1633 32.2952 43.35C32.2952 43.4967 32.3419 43.6133 32.4352 43.7C32.5352 43.7867 32.7019 43.86 32.9352 43.92L33.7952 44.11C34.2952 44.2233 34.6586 44.4 34.8852 44.64C35.1186 44.8733 35.2352 45.18 35.2352 45.56C35.2352 46.0267 35.0486 46.3967 34.6752 46.67C34.3019 46.9433 33.7919 47.08 33.1452 47.08Z" fill="#0D82C4"/>
<circle cx="17" cy="17" r="16.5" stroke="#0D82C4"/>
<mask id="path-3-inside-1_58_599" fill="white">
<path fill-rule="evenodd" clip-rule="evenodd" d="M3.62939 27.5C6.74196 23.542 11.5742 21 17.0001 21C22.426 21 27.2582 23.542 30.3707 27.5C27.2582 31.458 22.426 34 17.0001 34C11.5742 34 6.74196 31.458 3.62939 27.5Z"/>
</mask>
<path d="M3.62939 27.5L2.84334 26.8818L2.35723 27.5L2.84334 28.1182L3.62939 27.5ZM30.3707 27.5L31.1568 28.1182L31.6429 27.5L31.1568 26.8818L30.3707 27.5ZM4.41545 28.1182C7.34658 24.3908 11.8938 22 17.0001 22V20C11.2545 20 6.13733 22.6931 2.84334 26.8818L4.41545 28.1182ZM17.0001 22C22.1063 22 26.6535 24.3908 29.5847 28.1182L31.1568 26.8818C27.8628 22.6931 22.7456 20 17.0001 20V22ZM29.5847 26.8818C26.6535 30.6092 22.1063 33 17.0001 33V35C22.7456 35 27.8628 32.3069 31.1568 28.1182L29.5847 26.8818ZM17.0001 33C11.8938 33 7.34658 30.6092 4.41545 26.8818L2.84334 28.1182C6.13733 32.3069 11.2545 35 17.0001 35V33Z" fill="#0D82C4" mask="url(#path-3-inside-1_58_599)"/>
<circle cx="6" cy="6" r="5.5" transform="matrix(1 0 0 -1 11 19)" stroke="#0D82C4"/>
</svg>
