<svg width="45" height="41" viewBox="0 0 45 41" fill="none" xmlns="http://www.w3.org/2000/svg">
<rect x="0.5" y="24.5" width="44" height="16" rx="2.5" fill="white" stroke="#898989"/>
<path d="M3.5 1C3.5 0.723858 3.72386 0.5 4 0.5H5.0392C5.30757 0.5 5.52807 0.711862 5.5388 0.980016L6.4588 23.98C6.47015 24.2638 6.24318 24.5 5.9592 24.5H4C3.72386 24.5 3.5 24.2761 3.5 24V1Z" stroke="#898989"/>
<path d="M41.5 1C41.5 0.723858 41.2761 0.5 41 0.5H39.9608C39.6924 0.5 39.4719 0.711862 39.4612 0.980016L38.5412 23.98C38.5298 24.2638 38.7568 24.5 39.0408 24.5H41C41.2761 24.5 41.5 24.2761 41.5 24V1Z" stroke="#898989"/>
<circle cx="25.5" cy="33.5" r="1.5" fill="#898989"/>
<circle cx="30.5" cy="33.5" r="1.5" fill="#898989"/>
<circle cx="35.5" cy="33.5" r="1.5" fill="#898989"/>
</svg>
