<svg width="30" height="23" viewBox="0 0 30 23" fill="none" xmlns="http://www.w3.org/2000/svg">
<circle cx="1.5" cy="1.5" r="1" transform="matrix(1 0 0 -1 13 16)" fill="#898989" stroke="#898989"/>
<path d="M25.8286 8.63833C26.1572 8.49384 26.5407 8.64311 26.6852 8.97173C26.8297 9.30035 26.6804 9.68389 26.3518 9.82838L14.548 15.0184L14.0247 13.8284L25.8286 8.63833Z" fill="#898989"/>
<rect y="22" width="30" height="1" rx="0.5" fill="#898989"/>
<path fill-rule="evenodd" clip-rule="evenodd" d="M25.5841 22C27.2069 19.811 28.1667 17.1009 28.1667 14.1667C28.1667 6.89492 22.2718 1 15 1C7.72829 1 1.83337 6.89492 1.83337 14.1667C1.83337 17.1009 2.79319 19.811 4.416 22H3.19425C1.70253 19.7563 0.833374 17.063 0.833374 14.1667C0.833374 6.34263 7.17601 0 15 0C22.8241 0 29.1667 6.34263 29.1667 14.1667C29.1667 17.063 28.2975 19.7563 26.8058 22H25.5841Z" fill="#898989"/>
<mask id="path-5-inside-1_86_14" fill="white">
<path fill-rule="evenodd" clip-rule="evenodd" d="M22.1017 18.7647C23.2913 17.2389 24 15.3199 24 13.2353C24 8.26474 19.9706 4.23532 15.0001 4.23532C10.0295 4.23532 6.00012 8.26474 6.00012 13.2353C6.00012 15.3199 6.70885 17.2389 7.8985 18.7647H6.66662C5.61364 17.1809 5.00012 15.2797 5.00012 13.2353C5.00012 7.71246 9.47726 3.23532 15.0001 3.23532C20.5229 3.23532 25 7.71246 25 13.2353C25 15.2797 24.3865 17.1809 23.3335 18.7647H22.1017Z"/>
</mask>
<path d="M22.1017 18.7647L21.7074 18.4572L21.0778 19.2647H22.1017V18.7647ZM7.8985 18.7647V19.2647H8.92239L8.2928 18.4572L7.8985 18.7647ZM6.66662 18.7647L6.25024 19.0415L6.39862 19.2647H6.66662V18.7647ZM23.3335 18.7647V19.2647H23.6015L23.7499 19.0415L23.3335 18.7647ZM22.1017 19.2647H22.4096V18.2647H22.1017V19.2647ZM23.0256 19.2647H23.3335V18.2647H23.0256V19.2647ZM23.7499 19.0415C24.0327 18.6162 24.2853 18.1689 24.5048 17.7029L23.6 17.2769C23.4016 17.6984 23.1731 18.1029 22.9172 18.4878L23.7499 19.0415ZM25.389 14.7674C25.4622 14.267 25.5 13.7554 25.5 13.2353H24.5C24.5 13.7068 24.4657 14.17 24.3995 14.6227L25.389 14.7674ZM25.5 13.2353C25.5 12.5347 25.4314 11.8496 25.3002 11.1866L24.3192 11.3807C24.4378 11.9801 24.5 12.6002 24.5 13.2353H25.5ZM23.7312 7.40099C22.9647 6.25617 21.9792 5.27061 20.8344 4.50418L20.2781 5.33514C21.3143 6.02886 22.2065 6.92111 22.9002 7.95731L23.7312 7.40099ZM17.0487 2.93517C16.3857 2.80401 15.7007 2.73532 15.0001 2.73532V3.73532C15.6352 3.73532 16.2552 3.79757 16.8547 3.91615L17.0487 2.93517ZM15.0001 2.73532C14.2995 2.73532 13.6144 2.80401 12.9514 2.93517L13.1455 3.91615C13.7449 3.79757 14.365 3.73532 15.0001 3.73532V2.73532ZM9.16579 4.50418C8.02097 5.27061 7.03541 6.25617 6.26898 7.40099L7.09995 7.95731C7.79366 6.92111 8.68591 6.02886 9.72211 5.33514L9.16579 4.50418ZM4.69997 11.1866C4.56881 11.8496 4.50012 12.5347 4.50012 13.2353H5.50012C5.50012 12.6002 5.56237 11.9801 5.68096 11.3807L4.69997 11.1866ZM4.50012 13.2353C4.50012 13.7554 4.53798 14.267 4.61116 14.7674L5.60064 14.6227C5.53444 14.17 5.50012 13.7068 5.50012 13.2353H4.50012ZM5.49539 17.7029C5.71481 18.1689 5.96746 18.6162 6.25024 19.0415L7.08299 18.4878C6.82709 18.1029 6.59856 17.6984 6.40013 17.2769L5.49539 17.7029ZM6.66662 19.2647H6.97459V18.2647H6.66662V19.2647ZM7.59053 19.2647H7.8985V18.2647H7.59053V19.2647ZM8.2928 18.4572C8.00536 18.0886 7.74769 17.6957 7.52337 17.2822L6.64438 17.759C6.89515 18.2213 7.1831 18.6603 7.5042 19.0721L8.2928 18.4572ZM6.61486 14.6357C6.53942 14.1804 6.50012 13.7126 6.50012 13.2353H5.50012C5.50012 13.7676 5.54396 14.2901 5.62831 14.7992L6.61486 14.6357ZM6.50012 13.2353C6.50012 12.0818 6.72959 10.9832 7.14491 9.98173L6.22118 9.59868C5.7564 10.7195 5.50012 11.9481 5.50012 13.2353H6.50012ZM11.7465 5.38011C12.748 4.96479 13.8466 4.73532 15.0001 4.73532V3.73532C13.7129 3.73532 12.4843 3.9916 11.3635 4.45638L11.7465 5.38011ZM15.0001 4.73532C16.1535 4.73532 17.2521 4.96479 18.2536 5.38011L18.6367 4.45638C17.5159 3.9916 16.2873 3.73532 15.0001 3.73532V4.73532ZM22.8553 9.98173C23.2706 10.9832 23.5 12.0818 23.5 13.2353H24.5C24.5 11.9481 24.2438 10.7195 23.779 9.59868L22.8553 9.98173ZM23.5 13.2353C23.5 13.7126 23.4607 14.1804 23.3853 14.6357L24.3718 14.7992C24.4562 14.2901 24.5 13.7676 24.5 13.2353H23.5ZM22.4768 17.2822C22.2525 17.6957 21.9948 18.0886 21.7074 18.4572L22.496 19.0721C22.8171 18.6603 23.105 18.2213 23.3558 17.759L22.4768 17.2822ZM22.1017 18.7647L21.3131 18.1498L20.0539 19.7647H22.1017V18.7647ZM7.8985 18.7647V19.7647H9.94629L8.68711 18.1498L7.8985 18.7647ZM6.66662 18.7647L5.83387 19.3183L6.13062 19.7647H6.66662V18.7647ZM23.3335 18.7647V19.7647H23.8695L24.1663 19.3183L23.3335 18.7647ZM22.1017 19.7647H22.4096V17.7647H22.1017V19.7647ZM23.0256 19.7647H23.3335V17.7647H23.0256V19.7647ZM24.1663 19.3183C24.4625 18.8728 24.7272 18.4042 24.9571 17.9159L23.1477 17.064C22.9597 17.4631 22.7432 17.8463 22.5008 18.211L24.1663 19.3183ZM25.8837 14.8397C25.9604 14.3155 26 13.7797 26 13.2353H24C24 13.6825 23.9675 14.1216 23.9048 14.5503L25.8837 14.8397ZM26 13.2353C26 12.5019 25.9281 11.7844 25.7907 11.0896L23.8287 11.4777C23.941 12.0454 24 12.6329 24 13.2353H26ZM24.1467 7.12283C23.3439 5.9237 22.3117 4.89149 21.1125 4.08869L19.9999 5.75063C20.9818 6.40799 21.8274 7.25358 22.4847 8.23547L24.1467 7.12283ZM17.1458 2.44467C16.451 2.30723 15.7334 2.23532 15.0001 2.23532V4.23532C15.6024 4.23532 16.19 4.29435 16.7576 4.40665L17.1458 2.44467ZM15.0001 2.23532C14.2667 2.23532 13.5492 2.30723 12.8544 2.44467L13.2425 4.40665C13.8102 4.29435 14.3977 4.23532 15.0001 4.23532V2.23532ZM8.88763 4.08869C7.6885 4.89149 6.65629 5.9237 5.85349 7.12283L7.51543 8.23547C8.17279 7.25358 9.01838 6.40799 10.0003 5.75063L8.88763 4.08869ZM4.20947 11.0896C4.07203 11.7844 4.00012 12.5019 4.00012 13.2353H6.00012C6.00012 12.6329 6.05916 12.0454 6.17145 11.4777L4.20947 11.0896ZM4.00012 13.2353C4.00012 13.7797 4.03975 14.3155 4.11643 14.8397L6.09537 14.5503C6.03267 14.1216 6.00012 13.6825 6.00012 13.2353H4.00012ZM5.04303 17.9159C5.27294 18.4042 5.53764 18.8728 5.83387 19.3183L7.49937 18.211C7.25691 17.8463 7.04043 17.4631 6.8525 17.064L5.04303 17.9159ZM6.66662 19.7647H6.97459V17.7647H6.66662V19.7647ZM7.59053 19.7647H7.8985V17.7647H7.59053V19.7647ZM8.68711 18.1498C8.41649 17.8027 8.17396 17.4329 7.96287 17.0438L6.20488 17.9974C6.46888 18.4841 6.77197 18.9462 7.10989 19.3796L8.68711 18.1498ZM7.10814 14.554C7.03715 14.1256 7.00012 13.6851 7.00012 13.2353H5.00012C5.00012 13.7951 5.04622 14.3449 5.13504 14.8809L7.10814 14.554ZM7.00012 13.2353C7.00012 12.1487 7.21619 11.1151 7.60677 10.1733L5.75932 9.40715C5.2698 10.5876 5.00012 11.8812 5.00012 13.2353H7.00012ZM11.9381 5.84197C12.8799 5.45139 13.9135 5.23532 15.0001 5.23532V3.23532C13.646 3.23532 12.3524 3.505 11.172 3.99452L11.9381 5.84197ZM15.0001 5.23532C16.0867 5.23532 17.1202 5.45139 18.0621 5.84197L18.8282 3.99452C17.6477 3.505 16.3541 3.23532 15.0001 3.23532V5.23532ZM22.3934 10.1733C22.784 11.1151 23 12.1487 23 13.2353H25C25 11.8812 24.7304 10.5876 24.2408 9.40715L22.3934 10.1733ZM23 13.2353C23 13.6851 22.963 14.1256 22.892 14.554L24.8651 14.8809C24.9539 14.3449 25 13.7951 25 13.2353H23ZM22.0373 17.0438C21.8262 17.4329 21.5837 17.8027 21.3131 18.1498L22.8903 19.3796C23.2282 18.9462 23.5313 18.4841 23.7953 17.9974L22.0373 17.0438Z" fill="#898989" mask="url(#path-5-inside-1_86_14)"/>
</svg>
