<svg width="24" height="24" viewBox="0 0 24 24" fill="none" xmlns="http://www.w3.org/2000/svg">
<circle cx="12" cy="12" r="11.5" stroke="#898989"/>
<path d="M8.50098 9.75977H10.4214C10.4307 8.61865 11.0894 7.7373 12.416 7.7373C13.4087 7.7373 14.3364 8.23828 14.3364 9.44434C14.3364 10.3721 13.7891 10.7988 12.917 11.4482C11.9429 12.1626 11.1543 12.9976 11.21 14.3521L11.2192 15.0293H13.1396V14.5098C13.1396 13.4614 13.5386 13.1553 14.6147 12.3389C15.4961 11.6616 16.4331 10.9102 16.4331 9.33301C16.4331 7.125 14.5591 6.05811 12.5181 6.05811C10.5884 6.05811 8.45459 7.00439 8.50098 9.75977ZM10.9688 17.9888C10.9688 18.6753 11.5254 19.1855 12.2212 19.1855C12.9077 19.1855 13.4644 18.6753 13.4644 17.9888C13.4644 17.3022 12.9077 16.8013 12.2212 16.8013C11.5254 16.8013 10.9688 17.3022 10.9688 17.9888Z" fill="#898989"/>
</svg>
